<svg width="70px" height="auto" viewBox="0 0 305 195" fill="none" xmlns="http://www.w3.org/2000/svg">
<style>

#bikecrank {
    animation: rotate-gears 10s linear infinite;
}
@keyframes rotate-gears {
    from {
transform: rotateZ(0deg);
    }
    to{transform: rotateZ(350deg)};
}
#bikewheel {
    animation: rotate-gears reverse 10s linear infinite;
}
#bikewheel, #bikecrank {
transform-origin: center;
transform-box: fill-box;
}</style>

<path id="bikeframe" d="M88.4351 64.2341L155.348 137.823C155.369 137.844 155.389 137.864 155.41 137.885C155.471 137.946 155.512 137.987 155.573 138.049C155.614 138.09 155.655 138.131 155.696 138.172C155.757 138.234 155.818 138.275 155.879 138.316C155.92 138.357 155.961 138.377 156.022 138.418C156.104 138.459 156.165 138.521 156.247 138.562C156.288 138.582 156.329 138.603 156.369 138.644C156.451 138.685 156.553 138.746 156.635 138.788C156.676 138.808 156.696 138.829 156.737 138.829C156.839 138.87 156.962 138.911 157.064 138.952C157.084 138.952 157.105 138.972 157.105 138.972C157.227 139.013 157.37 139.054 157.492 139.075C157.635 139.095 157.758 139.116 157.901 139.136C158.044 139.157 158.187 139.157 158.309 139.157H242.865C244.212 139.157 245.478 138.5 246.234 137.372C246.989 136.244 247.153 134.828 246.683 133.577L204.701 44.7238L213.767 22.0952L222.589 22.6902C222.65 22.6902 222.711 22.6902 222.772 22.6902C224.488 22.5671 225.815 19.3872 225.774 15.5508C225.713 11.7349 224.304 8.71911 222.589 8.8422L181.832 11.5913C180.852 11.6528 180.056 13.4172 180.035 15.6123C179.994 17.9101 180.811 19.818 181.832 19.9001L205.396 21.5003L196.432 45.7907L95.5001 31.2041C96.0923 28.2704 96.7048 25.3162 97.2766 22.3824C97.6033 20.7617 97.9096 19.141 98.2363 17.5408C98.3996 16.7407 98.5425 15.9406 98.7059 15.12C98.7876 14.7096 98.8693 14.3198 98.9305 13.9095L98.9509 13.7659L98.9714 13.6839C98.9714 13.6428 98.9509 13.7864 98.9714 13.6839L99.0326 13.3761L99.0734 13.1915L99.1143 12.9453C99.1347 12.7812 99.1755 12.6171 99.196 12.4734C99.3593 11.3246 99.4001 10.0116 99.0939 8.63705C98.9509 7.93952 98.7059 7.24199 98.3792 6.5855C98.0525 5.929 97.6441 5.31353 97.1745 4.78013C96.2556 3.71332 95.1938 2.95425 94.1729 2.42085C93.1519 1.88744 92.1718 1.51816 91.2325 1.23094C90.2932 0.964243 89.3744 0.759088 88.4964 0.594964C87.6183 0.430839 86.7403 0.328262 85.9031 0.2462C84.2083 0.0615601 82.5544 0.020529 80.9617 -0.020502C79.3486 -0.0410176 77.7967 -0.0410176 76.2449 -0.020502C75.469 1.34906e-05 74.7135 0.020529 73.958 0.020529C73.182 0.0410445 72.4265 0.0615601 71.671 0.102591L71.3852 0.123107L71.0585 0.143622C70.8338 0.164138 70.5888 0.164138 70.3846 0.184653C69.9558 0.225684 69.527 0.266715 69.0982 0.328262C68.2406 0.451355 67.4034 0.615479 66.5867 0.84115C64.9531 1.27198 63.3809 1.88744 61.9311 2.64652C59.0316 4.18518 56.5813 6.29828 54.7028 8.69859C52.8446 11.1194 51.5378 13.7864 50.8231 16.4945C50.476 17.8485 50.2514 19.182 50.1493 20.5155C50.1085 21.172 50.088 21.8285 50.088 22.4645C50.088 22.6286 50.088 22.7928 50.1085 22.9364V23.1826C50.1085 23.2031 50.1085 23.2851 50.1085 23.2646V23.3262V23.4287C50.1289 23.716 50.1493 23.9827 50.1901 24.3314C50.2106 24.4955 50.231 24.6597 50.231 24.8033C50.2514 24.9469 50.2718 25.111 50.2922 25.2546C50.3331 25.5624 50.3943 25.8701 50.4352 26.1573C50.4964 26.465 50.5577 26.7523 50.6189 27.0395C50.7006 27.3267 50.7619 27.6139 50.8435 27.9011C51.1703 29.05 51.6195 30.1373 52.1504 31.1221C53.2122 33.1121 54.6619 34.6918 56.1729 35.8201C57.6839 36.969 59.2154 37.7281 60.6243 38.2409C62.0332 38.7538 63.34 39.0616 64.4631 39.2462C65.5861 39.4308 66.5662 39.5129 67.3422 39.5539C68.1181 39.595 68.7307 39.5745 69.1186 39.5539C69.527 39.5334 69.7312 39.5129 69.7312 39.5129C69.7312 39.5129 68.894 39.4308 67.4034 39.0821C66.6479 38.8974 65.7495 38.6513 64.7081 38.282C63.6667 37.9127 62.5029 37.4203 61.2981 36.7433C60.0934 36.0458 58.8478 35.1841 57.7248 34.0353C56.6222 32.8864 55.6216 31.4708 55.009 29.7885C54.6823 28.9474 54.4577 28.0447 54.2944 27.1215C54.2535 26.8959 54.2331 26.6497 54.1923 26.4035C54.1719 26.1573 54.131 25.9111 54.131 25.6649C54.1106 25.4187 54.0902 25.1726 54.0902 24.9264C54.0902 24.8033 54.0902 24.6802 54.0902 24.5571C54.0902 24.434 54.0902 24.3109 54.0902 24.1878C54.0902 23.9621 54.1106 23.6544 54.1106 23.3672V23.2646V23.2031C54.1106 23.162 54.1106 23.2031 54.1106 23.1826L54.131 22.9979C54.131 22.8748 54.1514 22.7312 54.1719 22.6081C54.2127 22.0952 54.2944 21.5618 54.3965 21.0489C54.5802 20.0026 54.8865 18.9769 55.2745 17.9511C56.0504 15.9201 57.2347 13.9506 58.807 12.2683C59.6033 11.4272 60.4609 10.6476 61.4206 9.97056C62.3803 9.29354 63.4217 8.69859 64.5243 8.22674C65.627 7.75488 66.7704 7.3856 67.9752 7.15993C68.5673 7.03684 69.1799 6.95478 69.7925 6.91374C70.0988 6.89323 70.405 6.87271 70.7113 6.87271C70.8747 6.87271 70.9972 6.87271 71.1401 6.87271H71.3852H71.671C73.1412 6.91374 74.6114 6.97529 76.102 7.01632C77.5926 7.07787 79.0832 7.13941 80.5737 7.24199C82.0643 7.34457 83.5141 7.48818 84.9434 7.67282C86.3524 7.87797 87.7204 8.14467 88.8843 8.53447C89.1702 8.63705 89.4356 8.73962 89.7011 8.8422C89.9461 8.94478 90.1707 9.06787 90.3749 9.19097C90.7629 9.41664 91.0079 9.66282 91.1304 9.80643C91.2529 9.97056 91.2734 10.0526 91.3142 10.2578C91.355 10.4629 91.355 10.8117 91.2734 11.263C90.9466 12.7812 90.6199 14.3198 90.2932 15.8585C89.9461 17.4587 89.6194 19.0794 89.2723 20.6797C88.5985 23.9006 87.9246 27.142 87.2712 30.3835C87.0058 31.676 86.7403 32.9479 86.4953 34.2404C86.4749 34.343 86.4544 34.4661 86.434 34.5892C85.4131 39.677 84.4125 44.7444 83.4528 49.7707C83.1466 51.3709 82.8403 52.9711 82.5544 54.5508C82.5544 54.5508 66.1374 119.647 60.2159 136.818C60.2159 136.818 62.6662 139.034 63.8913 134.972C65.1165 130.91 84.5351 82.0211 88.4351 64.2341ZM157.247 127.73L91.2734 51.4324C91.498 50.4272 91.0487 52.4377 91.2734 51.4324C92.131 47.4524 92.9886 43.4519 93.8257 39.4103L192.756 56.1305L157.247 127.73ZM164.762 130.951L201.108 57.7717L241.068 131.361L164.762 130.951Z" fill="black"/>
<path id="bikewheel" d="M105.996 90.9453C94.275 79.1694 78.6748 72.666 62.0945 72.666C45.5142 72.666 29.914 79.1489 18.1934 90.9453C6.45243 102.721 0 118.375 0 135.054C0 151.712 6.45243 167.386 18.1934 179.162C29.9344 190.938 44.8403 195 61.4206 195C78.0009 195 94.275 190.938 105.996 179.162C117.716 167.386 124.189 151.712 124.189 135.054C124.169 118.375 117.716 102.721 105.996 90.9453ZM115.98 133.207H73.1412C72.9574 132.058 72.5899 130.951 72.059 129.945L102.586 99.2746C110.855 108.712 115.552 120.57 115.98 133.207ZM63.9322 80.9132C77.5721 81.3645 90.3341 86.9037 100.074 96.587L69.8537 126.95C68.261 125.411 66.2191 124.324 63.9322 123.955V80.9132ZM60.2567 80.9132V123.955C58.6641 124.221 57.1939 124.816 55.9075 125.678L25.5647 95.192C35.1004 86.3498 47.2702 81.344 60.2567 80.9132ZM22.9511 97.7769L53.2122 128.181C52.1095 129.617 51.3336 131.34 51.0273 133.187H8.20848C8.63728 119.893 13.8237 107.44 22.9511 97.7769ZM8.20848 136.9H51.0477C51.4357 139.198 52.4975 141.249 54.0289 142.85L23.8087 173.212C14.1504 163.427 8.6577 150.604 8.20848 136.9ZM60.2567 189.194C47.699 188.784 35.8763 184.065 26.4836 175.736L57.0101 145.065C58.0106 145.578 59.1133 145.947 60.2567 146.153V189.194ZM58.0515 138.131C57.9494 138.008 57.8677 137.864 57.786 137.741C57.296 136.962 57.0101 136.038 57.0101 135.054C57.0101 134.397 57.1326 133.782 57.3572 133.207C57.3981 133.105 57.4389 133.023 57.4797 132.92C57.4797 132.92 57.4798 132.9 57.5002 132.9C57.541 132.797 57.5818 132.715 57.6431 132.612C58.5007 131.033 60.1751 129.945 62.1149 129.945C62.9317 129.945 63.7076 130.15 64.3814 130.479C64.5243 130.54 64.6673 130.622 64.7898 130.704C64.9123 130.786 65.0552 130.868 65.1778 130.971C66.4029 131.894 67.1788 133.371 67.1788 135.033C67.1788 136.962 66.0966 138.644 64.5243 139.526C64.4427 139.567 64.3406 139.629 64.2385 139.67C64.2385 139.67 64.2181 139.67 64.2181 139.69C64.1364 139.731 64.0343 139.772 63.9322 139.813C63.3604 140.039 62.7479 140.162 62.0945 140.162C60.4405 140.141 58.9908 139.362 58.0515 138.131ZM63.9322 189.194V146.153C65.7903 145.845 67.4851 145.065 68.9349 143.957L99.196 174.361C89.5786 183.532 77.1638 188.743 63.9322 189.194ZM101.769 171.735L71.426 141.249C72.2836 139.957 72.8757 138.48 73.1412 136.88H115.98C115.552 149.927 110.549 162.155 101.769 171.735Z" fill="black"/>
<path id="bikewheel" d="M286.807 90.9453C275.086 79.1694 259.486 72.666 242.906 72.666C226.325 72.666 210.725 79.1489 199.005 90.9453C187.284 102.721 180.811 118.395 180.811 135.054C180.811 151.712 187.264 167.386 199.005 179.162C210.745 190.938 225.651 195 242.232 195C258.812 195 275.086 190.938 286.807 179.162C298.527 167.386 305 151.712 305 135.054C305 118.375 298.548 102.721 286.807 90.9453ZM296.792 133.207H253.952C253.769 132.058 253.401 130.951 252.87 129.945L283.417 99.2746C291.687 108.712 296.383 120.57 296.792 133.207ZM244.743 80.9132C258.383 81.3645 271.145 86.9037 280.885 96.587L250.665 126.95C249.072 125.411 247.03 124.324 244.743 123.955V80.9132ZM241.068 80.9132V123.955C239.475 124.221 238.005 124.816 236.719 125.678L206.396 95.192C215.932 86.3498 228.102 81.344 241.068 80.9132ZM203.783 97.7769L234.044 128.181C232.941 129.617 232.165 131.34 231.859 133.187H189.02C189.469 119.893 194.655 107.44 203.783 97.7769ZM189.02 136.9H231.859C232.247 139.198 233.309 141.249 234.84 142.85L204.62 173.212C194.982 163.427 189.489 150.604 189.02 136.9ZM241.068 189.194C228.51 188.784 216.687 184.065 207.295 175.736L237.821 145.065C238.822 145.578 239.924 145.947 241.068 146.153V189.194ZM238.883 138.131C238.781 138.008 238.699 137.864 238.618 137.741C238.127 136.962 237.842 136.038 237.842 135.054C237.842 134.397 237.964 133.782 238.189 133.207C238.23 133.105 238.27 133.023 238.311 132.92C238.311 132.92 238.311 132.9 238.332 132.9C238.373 132.797 238.413 132.715 238.475 132.612C239.332 131.033 241.007 129.945 242.946 129.945C243.763 129.945 244.539 130.15 245.213 130.479C245.356 130.54 245.499 130.622 245.621 130.704C245.744 130.786 245.887 130.868 246.009 130.971C247.234 131.894 248.01 133.371 248.01 135.033C248.01 136.962 246.928 138.644 245.356 139.526C245.274 139.567 245.172 139.629 245.07 139.67C245.07 139.67 245.05 139.67 245.05 139.69C244.968 139.731 244.866 139.772 244.764 139.813C244.192 140.039 243.579 140.162 242.926 140.162C241.272 140.141 239.802 139.362 238.883 138.131ZM244.743 189.194V146.153C246.601 145.845 248.296 145.065 249.746 143.957L280.007 174.361C270.39 183.532 257.995 188.743 244.743 189.194ZM282.58 171.735L252.237 141.249C253.095 139.957 253.687 138.48 253.952 136.88H296.792C296.363 149.927 291.38 162.155 282.58 171.735Z" fill="black"/>
<path id="bikecrank" d="M158.37 114.333C148.978 114.333 141.361 121.985 141.361 131.422C141.361 137.639 144.669 143.075 149.59 146.071L142.934 162.77H138.584C136.338 162.77 134.501 164.617 134.501 166.873C134.501 169.13 136.338 170.976 138.584 170.976H145.67H145.69H145.711H152.02C154.266 170.976 156.104 169.13 156.104 166.873C156.104 164.617 154.266 162.77 152.02 162.77H151.714L157.39 148.491C157.697 148.512 158.023 148.512 158.33 148.512C167.722 148.512 175.339 140.86 175.339 131.422C175.38 121.985 167.763 114.333 158.37 114.333ZM160.127 141.639L162.148 136.551C162.985 134.438 161.964 132.058 159.882 131.217C157.778 130.376 155.41 131.402 154.573 133.495L152.122 139.67C149.652 137.782 148.038 134.787 148.038 131.402C148.038 125.678 152.653 121.021 158.37 121.021C164.088 121.021 168.703 125.658 168.703 131.402C168.682 136.551 164.986 140.798 160.127 141.639Z" fill="black"/>

</svg>
