<?xml version="1.0" encoding="utf-8"?>
<!-- Generator: Adobe Illustrator 19.0.0, SVG Export Plug-In . SVG Version: 6.00 Build 0)  -->
<svg version="1.1" id="Layer_1" xmlns="http://www.w3.org/2000/svg" xmlns:xlink="http://www.w3.org/1999/xlink" x="0px" y="0px"
	 viewBox="0 0 166.8 166.1" style="enable-background:new 0 0 166.8 166.1;" xml:space="preserve">
<style type="text/css">
	.st0{fill:#14120E;}
</style>
<path class="st0" d="M164.4,80.4c-0.9-0.1-2.1-0.2-2.9-0.3c-1.1-0.1-2.1-1.1-2.2-2.2c-0.2-2.2-0.4-4.4-0.8-6.6
	c-0.2-1.1,0.4-2.2,1.5-2.6c0.8-0.3,1.7-0.6,2.6-1c1.1-0.4,1.7-1.6,1.4-2.7c-0.1-0.3-0.1-0.5-0.2-0.8c-0.3-1.2-1.3-1.9-2.5-1.8
	c-1,0.1-1.9,0.2-2.8,0.3c-1.1,0.1-2.2-0.6-2.5-1.7c-0.6-2.1-1.4-4.2-2.2-6.2c-0.4-1.1-0.1-2.3,0.9-2.9c0.8-0.5,1.6-1,2.4-1.6
	c1-0.7,1.3-1.9,0.8-3c-0.1-0.2-0.2-0.5-0.3-0.7c-0.5-1.1-1.7-1.6-2.9-1.2c-1,0.3-1.9,0.6-2.7,0.9c-1.1,0.4-2.3-0.1-2.8-1.1
	c-1.1-1.9-2.3-3.8-3.5-5.6c-0.6-0.9-0.6-2.2,0.2-3c0.6-0.7,1.4-1.4,2.1-2.2c0.8-0.9,0.8-2.2,0.1-3.1c-0.2-0.2-0.3-0.4-0.5-0.6
	c-0.7-0.9-2-1.2-3-0.5c-0.9,0.5-1.7,1.1-2.5,1.6c-1,0.6-2.2,0.4-3-0.4c-1.5-1.6-3-3.2-4.6-4.7c-0.8-0.8-1-2-0.4-3
	c0.5-0.8,1-1.7,1.6-2.7c0.6-1,0.3-2.3-0.6-3c-0.2-0.2-0.4-0.3-0.6-0.5c-0.9-0.7-2.2-0.7-3.1,0.1c-0.8,0.7-1.5,1.5-2.2,2.1
	c-0.8,0.8-2.1,0.9-3,0.3c-1.8-1.2-3.7-2.4-5.6-3.5c-1-0.6-1.4-1.7-1.1-2.8c0.3-0.9,0.7-2,1-3.1c0.3-1.1-0.2-2.3-1.2-2.8
	c-0.2-0.1-0.4-0.2-0.6-0.3c-1.1-0.5-2.3-0.2-3,0.8c-0.6,0.9-1.2,1.8-1.7,2.7c-0.6,1-1.8,1.3-2.9,0.9c-2-0.8-4.1-1.5-6.2-2.2
	c-1.1-0.3-1.8-1.4-1.7-2.5c0.1-1,0.2-2.1,0.3-3.3c0.1-1.2-0.7-2.2-1.8-2.5c-0.2-0.1-0.4-0.1-0.7-0.2c-1.1-0.3-2.3,0.4-2.7,1.5
	C98.2,4,97.8,5,97.5,5.9C97.1,7,96,7.7,94.9,7.5c-2.1-0.3-4.3-0.6-6.5-0.7c-1.1-0.1-2.1-0.9-2.2-2c-0.1-1-0.3-2.2-0.5-3.4
	C85.6,0.2,84.6,0,83.4,0c-0.2,0-0.4,0.7-0.6,0.7c0,0-0.1,0-0.1,0c-1.2,0-2.1,0.2-2.3,1.4c-0.2,1.2-0.3,2-0.4,3
	c-0.1,1.1-1.1,1.8-2.2,1.9c-2.2,0.2-4.4,0.3-6.5,0.6c-1.1,0.2-2.2-0.5-2.6-1.5c-0.4-1-0.8-2.1-1.2-3.3c-0.4-1.1-1.6-1.7-2.7-1.5
	c-0.2,0-0.4,0.1-0.6,0.1c-1.1,0.3-1.9,1.3-1.8,2.5c0.1,1.2,0.2,2.3,0.3,3.4c0.1,1.1-0.6,2.2-1.7,2.5c-2.1,0.6-4.2,1.4-6.2,2.2
	c-1,0.4-2.2,0.1-2.9-0.9c-0.6-0.9-1.2-1.9-1.9-2.9c-0.7-1-1.9-1.3-3-0.8c-0.2,0.1-0.4,0.2-0.6,0.3c-1.1,0.5-1.6,1.7-1.2,2.9
	c0.4,1.2,0.8,2.3,1.1,3.3c0.4,1.1-0.1,2.3-1.1,2.8c-1.9,1.1-3.8,2.3-5.6,3.5c-0.9,0.6-2.2,0.6-3-0.2c-0.8-0.8-1.6-1.6-2.6-2.4
	c-0.8-0.8-2.2-0.8-3.1-0.1c-0.2,0.1-0.3,0.3-0.5,0.4c-0.9,0.7-1.1,2-0.5,3c0.6,1.1,1.3,2.1,1.8,3c0.6,1,0.4,2.2-0.4,3
	c-1.6,1.5-3.2,3-4.6,4.7c-0.8,0.8-2,1-3,0.4c-0.9-0.6-2-1.2-3.1-1.8c-1-0.6-2.3-0.3-3,0.6c-0.1,0.2-0.3,0.3-0.4,0.5
	c-0.7,0.9-0.7,2.2,0.1,3.1c0.8,0.9,1.7,1.7,2.4,2.5c0.8,0.8,0.9,2.1,0.2,3c-1.2,1.8-2.4,3.7-3.5,5.6c-0.6,1-1.7,1.5-2.8,1.1
	c-1-0.3-2.2-0.7-3.4-1.1c-1.1-0.3-2.3,0.2-2.8,1.2c-0.1,0.2-0.2,0.4-0.3,0.5c-0.5,1.1-0.2,2.3,0.8,3c1,0.7,2,1.3,2.9,1.9
	c1,0.6,1.3,1.8,0.9,2.9c-0.8,2-1.5,4.1-2.2,6.2c-0.3,1.1-1.4,1.8-2.5,1.7c-1.1-0.1-2.3-0.2-3.5-0.3c-1.2-0.1-2.2,0.7-2.5,1.8
	c0,0.2-0.1,0.4-0.1,0.6C1.3,66,1.9,67.2,3,67.6c1.1,0.4,2.2,0.8,3.2,1.2c1.1,0.4,1.7,1.5,1.5,2.6c-0.3,2.2-0.6,4.3-0.7,6.6
	C7,79,6.1,80,5,80.1c-1,0.1-1.8,0.3-3,0.5c-1.1,0.2-1.6,1.1-1.6,2.3c0,0,0,0,0,0c0,0.2-0.4,0.4-0.4,0.7c0,1.2,0.7,2.2,1.8,2.3
	C3,86,4,86.2,5.1,86.3c1.1,0.1,1.9,1.1,2,2.2c0.2,2.2,0.4,4.4,0.7,6.6c0.2,1.1-0.5,2.2-1.5,2.6c-1,0.4-2.1,0.8-3.2,1.2
	c-1.1,0.4-1.7,1.6-1.4,2.7c0,0.2,0.1,0.4,0.1,0.6c0.3,1.1,1.3,1.9,2.5,1.8s2.3-0.2,3.3-0.3c1.1-0.1,2.2,0.6,2.5,1.7
	c0.6,2.1,1.4,4.2,2.2,6.2c0.4,1.1,0.1,2.3-0.9,2.9c-0.9,0.6-1.8,1.2-2.8,1.8c-1,0.7-1.3,1.9-0.8,3c0.1,0.2,0.2,0.4,0.3,0.6
	c0.5,1.1,1.7,1.6,2.8,1.2c1.1-0.4,2.1-0.7,3.1-1c1.1-0.4,2.2,0.1,2.8,1.1c1.1,1.9,2.3,3.8,3.5,5.6c0.6,0.9,0.6,2.2-0.2,3
	c-0.7,0.7-1.5,1.5-2.2,2.3c-0.8,0.9-0.8,2.2-0.1,3.1c0.1,0.2,0.3,0.4,0.4,0.5c0.7,0.9,2,1.1,3,0.5c1-0.6,1.9-1.1,2.7-1.7
	c1-0.6,2.2-0.4,3,0.4c1.5,1.6,3,3.2,4.6,4.7c0.8,0.8,1,2,0.4,3c-0.5,0.8-1,1.7-1.6,2.7c-0.6,1-0.3,2.3,0.6,3
	c0.2,0.2,0.4,0.3,0.6,0.5c0.9,0.7,2.2,0.7,3.1-0.2c0.8-0.7,1.5-1.5,2.2-2.2c0.8-0.8,2.1-0.9,3-0.3c1.8,1.2,3.7,2.4,5.6,3.5
	c1,0.6,1.4,1.7,1.1,2.8c-0.3,0.9-0.6,1.9-0.9,2.9c-0.4,1.1,0.2,2.3,1.2,2.8c0.2,0.1,0.4,0.2,0.7,0.3c1.1,0.5,2.3,0.1,3-0.8
	c0.6-0.9,1.1-1.7,1.6-2.5c0.6-1,1.8-1.3,2.9-0.9c2,0.8,4.1,1.5,6.2,2.2c1.1,0.3,1.8,1.4,1.7,2.5c-0.1,0.9-0.2,1.9-0.3,2.9
	c-0.1,1.2,0.7,2.2,1.8,2.5c0.3,0.1,0.5,0.1,0.8,0.2c1.1,0.2,2.3-0.4,2.7-1.5c0.3-0.9,0.7-1.9,1-2.7c0.4-1.1,1.5-1.7,2.6-1.5
	c2.1,0.3,4.3,0.6,6.5,0.7c1.1,0.1,2.1,0.9,2.2,2.1c0.1,0.9,0.2,1.5,0.4,2.5c0.2,1.1,1.1,1.7,2.3,1.7c0,0,0,0,0,0
	c0.3,0,0.5,0.4,0.8,0.4c1.2,0,2.1-0.7,2.3-1.9c0.1-1,0.2-1.8,0.3-2.7c0.1-1.1,1.1-2,2.2-2c2.2-0.2,4.4-0.4,6.5-0.7
	c1.1-0.2,2.2,0.5,2.6,1.5c0.3,0.8,0.6,1.7,1,2.6c0.4,1.1,1.6,1.7,2.7,1.5c0.3-0.1,0.5-0.1,0.8-0.2c1.1-0.3,1.9-1.3,1.8-2.5
	c-0.1-1-0.2-1.9-0.3-2.7c-0.1-1.1,0.6-2.2,1.7-2.5c2.1-0.6,4.2-1.4,6.2-2.2c1-0.4,2.2-0.1,2.9,0.9c0.5,0.7,1,1.5,1.5,2.3
	c0.7,1,1.9,1.3,3,0.8c0.2-0.1,0.5-0.2,0.7-0.4c1.1-0.5,1.6-1.7,1.2-2.9c-0.3-0.9-0.6-1.8-0.9-2.5c-0.4-1.1,0.1-2.3,1.1-2.8
	c1.9-1.1,3.8-2.3,5.6-3.5c0.9-0.6,2.2-0.6,3,0.2c0.6,0.6,1.3,1.2,1.9,1.9c0.9,0.8,2.2,0.9,3.1,0.1c0.2-0.2,0.4-0.4,0.7-0.5
	c0.9-0.7,1.1-2,0.5-3.1c-0.5-0.8-1-1.6-1.4-2.2c-0.6-1-0.4-2.2,0.4-3c1.6-1.5,3.2-3,4.6-4.7c0.8-0.8,2-1,3-0.4
	c0.7,0.4,1.5,0.9,2.3,1.4c1,0.6,2.3,0.4,3-0.6c0.2-0.2,0.4-0.4,0.5-0.7c0.7-0.9,0.7-2.3-0.2-3.1c-0.6-0.7-1.3-1.3-1.8-1.9
	c-0.8-0.8-0.9-2.1-0.2-3c1.2-1.8,2.4-3.7,3.5-5.6c0.6-1,1.7-1.5,2.8-1.1c0.8,0.3,1.7,0.6,2.6,0.8c1.1,0.4,2.3-0.2,2.8-1.2
	c0.1-0.3,0.2-0.5,0.4-0.8c0.5-1.1,0.2-2.4-0.8-3c-0.8-0.5-1.5-1-2.2-1.4c-1-0.6-1.3-1.8-0.9-2.9c0.8-2,1.5-4.1,2.2-6.2
	c0.3-1.1,1.4-1.8,2.5-1.7c0.8,0.1,1.8,0.2,2.7,0.2c1.2,0.1,2.2-0.7,2.5-1.8c0.1-0.3,0.1-0.5,0.2-0.8c0.3-1.2-0.4-2.3-1.5-2.7
	c-0.9-0.3-1.7-0.6-2.5-0.9c-1.1-0.4-1.7-1.5-1.5-2.6c0.3-2.2,0.6-4.3,0.7-6.6c0.1-1.1,0.9-2.1,2-2.2c0.9-0.1,1.8-0.2,2.8-0.4
	c1.1-0.2,2.4-1.1,2.4-2.3c0-0.2,0.4-0.4,0.4-0.6c0-0.1,0-0.1,0-0.2C166.8,81.5,165.5,80.5,164.4,80.4z M106.4,36.8
	c0.9-1.7,1.8-3.5,2.6-5.2c2.1-4,7.2-5.4,10.9-2.9c7,4.8,13.1,10.9,17.9,18c2.5,3.8,1.2,8.9-2.8,11c-1.7,0.9-3.5,1.8-5.2,2.6
	c-3.3,1.7-7.4,0.7-9.6-2.4c-3.1-4.5-7-8.4-11.5-11.5C105.7,44.3,104.7,40.2,106.4,36.8z M70.5,18.7c8.4-1.6,17-1.6,25.3,0
	c4.4,0.9,7.1,5.5,5.7,9.8c-0.6,1.8-1.2,3.7-1.8,5.5c-1.2,3.6-4.8,5.8-8.5,5.1c-5.4-1-10.9-1-16.2,0c-3.7,0.7-7.3-1.5-8.5-5.1
	c-0.6-1.8-1.2-3.7-1.8-5.5C63.4,24.2,66,19.6,70.5,18.7z M28.4,46.7c4.8-7.1,10.9-13.2,17.9-18c3.7-2.5,8.9-1.2,10.9,2.9
	c0.9,1.7,1.8,3.5,2.6,5.2c1.7,3.4,0.7,7.5-2.4,9.6C53,49.6,49.1,53.5,46,58c-2.2,3.1-6.2,4.1-9.6,2.4c-1.7-0.9-3.5-1.8-5.2-2.6
	C27.2,55.6,25.9,50.5,28.4,46.7z M18.4,96.4c-1.6-8.4-1.6-17,0-25.4c0.8-4.5,5.4-7.1,9.7-5.7c1.8,0.6,3.7,1.2,5.5,1.8
	c3.6,1.2,5.7,4.8,5.1,8.5c-0.9,5.4-0.9,10.9,0,16.3c0.7,3.7-1.5,7.3-5.1,8.5c-1.8,0.6-3.7,1.2-5.5,1.8
	C23.8,103.6,19.2,100.9,18.4,96.4z M59.9,130.6c-0.9,1.7-1.8,3.5-2.6,5.2c-2.1,4-7.2,5.4-10.9,2.9c-7-4.8-13.1-10.9-17.9-18
	c-2.5-3.8-1.2-8.9,2.8-11c1.7-0.9,3.5-1.8,5.2-2.6c3.3-1.7,7.4-0.7,9.6,2.4c3.1,4.5,7,8.4,11.5,11.5
	C60.5,123.2,61.6,127.3,59.9,130.6z M95.8,148.7c-8.4,1.6-17,1.6-25.3,0c-4.4-0.9-7.1-5.5-5.7-9.8c0.6-1.8,1.2-3.7,1.8-5.5
	c1.2-3.6,4.8-5.8,8.5-5.1c5.4,1,10.9,1,16.2,0c3.7-0.7,7.3,1.5,8.5,5.1c0.6,1.8,1.2,3.7,1.8,5.5C102.9,143.3,100.2,147.9,95.8,148.7
	z M83.1,114.2c-17.1,0-30.9-13.9-30.9-31c0-17.1,13.8-31,30.9-31c17.1,0,30.9,13.9,30.9,31C114,100.3,100.2,114.2,83.1,114.2z
	 M137.9,120.7c-4.8,7.1-10.9,13.2-17.9,18c-3.7,2.5-8.9,1.2-10.9-2.9c-0.9-1.7-1.8-3.5-2.6-5.2c-1.7-3.4-0.7-7.5,2.4-9.6
	c4.5-3.1,8.3-7,11.5-11.5c2.2-3.1,6.2-4.1,9.6-2.4c1.7,0.9,3.5,1.8,5.2,2.6C139,111.8,140.4,117,137.9,120.7z M147.9,96.4
	c-0.8,4.5-5.4,7.1-9.7,5.7c-1.8-0.6-3.7-1.2-5.5-1.8c-3.6-1.2-5.7-4.8-5.1-8.5c0.9-5.4,0.9-10.9,0-16.3c-0.7-3.7,1.5-7.3,5.1-8.5
	c1.8-0.6,3.7-1.2,5.5-1.8c4.3-1.4,8.9,1.3,9.7,5.7C149.5,79.4,149.5,88,147.9,96.4z"/>
</svg>
