<?xml version="1.0" encoding="utf-8"?>
<!-- Generator: Adobe Illustrator 19.0.0, SVG Export Plug-In . SVG Version: 6.00 Build 0)  -->
<svg version="1.1" id="Layer_1" xmlns="http://www.w3.org/2000/svg" xmlns:xlink="http://www.w3.org/1999/xlink" x="0px" y="0px"
	 viewBox="0 0 161.5 61.6" style="enable-background:new 0 0 161.5 61.6;" xml:space="preserve">
<style type="text/css">
	.st0{fill:#969696;}
	.st1{fill:#171717;}
</style>
<g id="bodyofchain">
	<path id="XMLID_87_" class="st0" d="M80.3,9.7c7.9,0,20.2-5.6,24.8-5.3c0,0-11.4,11.8-11.4,25.8s11.4,25.8,11.4,25.8
		c-4.6,0.3-16.9-5.3-24.8-5.3c-7.9,0-20.2,5.6-24.8,5.3c0,0,11.4-11.8,11.4-25.8S55.5,4.3,55.5,4.3C60.1,4,72.4,9.7,80.3,9.7z"/>
	<path id="XMLID_32_" class="st0" d="M128.4,0.3c-16.5,0-29.8,13.3-29.8,29.8c0,16.5,13.3,29.8,29.8,29.8
		c16.5,0,29.8-13.3,29.8-29.8C158.3,13.6,144.9,0.3,128.4,0.3z M128.4,50.6c-11.3,0-20.5-9.2-20.5-20.5s9.2-20.5,20.5-20.5
		s20.5,9.2,20.5,20.5S139.7,50.6,128.4,50.6z"/>
	<path id="XMLID_27_" class="st0" d="M32.3,0.3C15.9,0.3,2.5,13.6,2.5,30.1c0,16.5,13.3,29.8,29.8,29.8c16.5,0,29.8-13.3,29.8-29.8
		C62.1,13.6,48.8,0.3,32.3,0.3z M32.3,50.6c-11.3,0-20.5-9.2-20.5-20.5S21,9.7,32.3,9.7s20.5,9.2,20.5,20.5S43.6,50.6,32.3,50.6z"/>
</g>
<g id="strokeofchain">
	<path id="XMLID_114_" class="st1" d="M80.3,9.4l1.6-0.1l1.5-0.2c1-0.2,2.1-0.4,3.1-0.6c1-0.3,2-0.5,3-0.9c1-0.3,2-0.7,3-1l6-2.3
		c1-0.4,2-0.7,3.1-1.1c0.6-0.1,1.1-0.3,1.7-0.4c0.6-0.1,1.2-0.2,1.9-0.2l3.5-0.2l-2.4,3.2c-0.6,0.9-1.3,1.8-2,2.8
		c-0.6,1-1.2,2-1.8,2.9c-0.6,1-1.1,2-1.6,3c-0.5,1-1,2-1.5,3.1l-0.7,1.5l-0.6,1.6c-0.2,0.5-0.4,1-0.5,1.6c-0.2,0.5-0.4,1.1-0.5,1.6
		l-0.4,1.6c-0.1,0.5-0.2,1.1-0.3,1.6c-0.1,0.5-0.2,1.1-0.2,1.6l-0.2,1.6c0,0.9-0.1,2.4,0.1,3.3c0.1,0.5,0.1,1,0.1,1.6l0.3,1.7
		c0.1,0.6,0.2,1.1,0.3,1.7c0.1,0.6,0.2,1.1,0.4,1.7l0.5,1.6l0.6,1.6c0.4,1.1,0.9,2.2,1.4,3.2c0.5,1,1.1,2.1,1.7,3.1
		c0.6,1,1.2,2,1.9,2.9c0.7,1,1.4,1.9,2.2,2.7l1.4,1.5l-2,0c-1.2,0-2.3-0.2-3.4-0.4c-1.1-0.2-2.1-0.5-3.1-0.8
		c-2.1-0.6-4.1-1.2-6.1-1.7c-1-0.3-2-0.5-3.1-0.8c-1-0.2-2-0.4-3.1-0.6l-1.5-0.2l-1.5-0.2l-1.5-0.1l-1.5,0l-1.5,0.2l-1.4,0.3
		c-1,0.2-2,0.5-2.9,0.7c-2,0.6-3.9,1.2-5.9,1.9c-2,0.7-4,1.4-6.1,2c-1,0.3-2.1,0.6-3.2,0.9c-0.6,0.1-1.1,0.3-1.8,0.3
		c-0.3,0-0.6,0.1-1,0.1l-1.1,0l-6,0.1l4.2-4.8c0.6-0.7,1.4-1.7,2-2.6c0.7-0.9,1.3-1.9,1.9-2.8c0.6-1,1.2-1.9,1.7-2.9
		c0.3-0.5,0.5-1,0.8-1.5c0.2-0.5,0.5-1,0.7-1.5l0.7-1.5l0.6-1.6c0.2-0.5,0.4-1,0.5-1.6c0.1-0.5,0.3-1,0.4-1.6l0.4-1.6
		c0.1-0.5,0.2-1.1,0.2-1.6c0.1-0.5,0.2-1.1,0.2-1.6l0-0.8l0-0.4l0-0.2l0-0.1l0,0l0,0l0,0c0,0.1,0-0.2,0,0.1l-0.1-1.8
		c0-0.3,0-0.6,0-0.9l-0.1-0.7c-0.1-0.5-0.1-1-0.2-1.5L63,23.8c-0.1-0.5-0.3-1.1-0.4-1.6c-0.1-0.5-0.3-1.1-0.5-1.6L61.5,19l-0.6-1.6
		c-0.4-1-0.9-2.1-1.4-3.1c-0.5-1-1-2-1.6-3c-0.6-1-1.1-2-1.8-3c-0.6-1-1.3-1.9-1.9-2.8l-2.4-3.3l3.6,0.2c0.7,0,1.4,0.1,1.9,0.2
		C57.9,2.8,58.4,3,59,3.2c1.1,0.3,2.1,0.7,3.1,1.1l6,2.3c1,0.4,2,0.7,3,1c1,0.3,2,0.6,3,0.9c1,0.3,2,0.5,3.1,0.7l1.6,0.2L80.3,9.4
		L80.3,9.4z M80.3,10L80.3,10l-1.6,0l-1.6-0.2l-1.6-0.2l-1.6-0.3c-2.1-0.4-4.2-0.9-6.3-1.3c-2.1-0.4-4.2-0.9-6.2-1.3
		c-1-0.2-2.1-0.4-3.1-0.5c-0.5,0-1-0.1-1.5-0.1c-0.5,0-0.9,0-1.3,0.1l1.2-3.1c1,0.9,1.8,1.8,2.7,2.7c0.8,0.9,1.7,1.9,2.4,2.9
		c0.8,1,1.5,2,2.2,3.1c0.4,0.5,0.7,1.1,1,1.6c0.3,0.6,0.7,1.1,0.9,1.7l0.9,1.7l0.8,1.8c0.3,0.6,0.5,1.2,0.7,1.8
		c0.2,0.6,0.4,1.2,0.6,1.9l0.5,1.9c0.2,0.6,0.2,1.4,0.3,2.1l0.2,1c0,0.3,0,0.6,0.1,0.9l0.1,1.8l0,0.2l0,0.1l0,0.1l0,0.3l0,0.5l0,1
		c0,0.7-0.1,1.3-0.2,2c-0.1,0.7-0.2,1.3-0.3,2L69.1,38c-0.1,0.7-0.4,1.3-0.6,1.9c-0.2,0.6-0.4,1.3-0.6,1.8l-0.7,1.8l-0.8,1.7
		c-0.3,0.6-0.6,1.1-0.9,1.7c-0.3,0.6-0.6,1.1-0.9,1.7c-0.6,1.1-1.3,2.2-2.1,3.2c-0.7,1-1.5,2-2.3,3c-0.8,1-1.6,1.9-2.6,2.9l-1.8-4.7
		c0.5,0,1.5-0.1,2.4-0.2c0.9-0.2,1.9-0.4,2.9-0.6c2-0.5,4.1-1.1,6.1-1.5c1-0.2,2.1-0.5,3.2-0.7c1.1-0.2,2.1-0.4,3.2-0.6
		c1.1-0.2,2.2-0.3,3.3-0.4l1.8-0.1l1.7,0l1.7,0.2l1.7,0.3c1.1,0.2,2.2,0.5,3.2,0.8C89,50.7,91,51.4,93,52c2,0.7,4,1.3,6.1,1.9
		c1,0.3,2,0.6,3,0.8c1,0.2,2,0.4,2.9,0.3l-0.6,1.6c-0.9-0.9-1.7-1.8-2.5-2.8c-0.8-0.9-1.5-1.9-2.3-2.9c-0.7-1-1.5-2-2.1-3
		c-0.3-0.5-0.7-1-1-1.6c-0.3-0.5-0.7-1.1-0.9-1.6L94.8,43L94,41.3c-0.3-0.6-0.5-1.2-0.7-1.8c-0.2-0.6-0.5-1.2-0.6-1.8l-0.5-1.8
		c-0.2-0.6-0.3-1.3-0.4-2l-0.2-1c-0.1-0.3-0.1-0.6-0.1-0.9l-0.1-0.9l0-0.4l0-0.2l0-0.1l0-0.1l0,0l0-0.1c0-1.3,0-2.6,0.2-3.9
		c0.1-0.6,0.1-1.3,0.3-1.9l0.4-1.9c0.1-0.6,0.4-1.2,0.5-1.9c0.2-0.6,0.4-1.2,0.6-1.8l0.7-1.8l0.8-1.7c0.3-0.6,0.6-1.1,0.9-1.7
		c0.3-0.6,0.6-1.1,1-1.6c0.7-1.1,1.4-2.1,2.1-3.1c0.8-1,1.6-2,2.4-2.9c0.8-0.9,1.7-1.8,2.7-2.7l1.1,3c-0.4,0-0.8-0.1-1.3-0.1
		c-0.5,0-1,0.1-1.5,0.1c-1,0.1-2,0.3-3.1,0.5C97.1,7,95,7.5,93,7.9c-2.1,0.4-4.2,0.9-6.3,1.3l-1.6,0.3l-1.6,0.2l-1.6,0.2L80.3,10
		L80.3,10z"/>
	<g id="XMLID_100_">
		<path id="XMLID_103_" class="st1" d="M128.5,0.6c0,0-0.7,0-2.1,0.1c-0.3,0-0.7,0-1.1,0.1c-0.4,0.1-0.9,0.2-1.3,0.2
			c-0.5,0.1-1,0.2-1.5,0.3c-0.5,0.2-1.1,0.3-1.7,0.5c-0.3,0.1-0.6,0.2-0.9,0.3c-0.3,0.1-0.6,0.3-0.9,0.4c-0.6,0.3-1.3,0.6-2,0.9
			c-0.6,0.4-1.3,0.8-2,1.2c-0.7,0.5-1.3,1-2,1.5c-2.6,2.2-5.2,5.1-7.2,8.6c-2,3.5-3.5,7.6-4.2,12.1c-0.1,0.6-0.1,1.1-0.2,1.7
			l-0.1,0.9l0,0.4c0,0.1,0-0.1,0-0.1l0,0.1l0,0.1l0,0.2c0,1.3-0.1,2.7,0.1,3.8c0.1,0.6,0.1,1.2,0.2,1.8c0.1,0.6,0.2,1.2,0.3,1.9
			c0.1,0.6,0.3,1.2,0.4,1.9c0.2,0.6,0.3,1.3,0.6,1.9c0.2,0.6,0.5,1.2,0.7,1.8c0.2,0.6,0.6,1.2,0.9,1.8l0.5,0.9
			c0.2,0.3,0.4,0.6,0.6,0.8c0.4,0.6,0.7,1.1,1.2,1.7c1.7,2.2,3.7,4,6.1,5.6c2.3,1.5,5,2.6,7.7,3.4c2.7,0.7,5.6,0.9,8.3,0.7
			c1.3-0.2,3-0.3,4.1-0.6c0.6-0.2,1.3-0.2,1.9-0.5l1.9-0.6c0.6-0.2,1.2-0.5,1.9-0.8c0.3-0.1,0.6-0.3,0.9-0.4l0.9-0.5
			c0.6-0.3,1.2-0.6,1.7-1l1.6-1.1c2.1-1.6,4-3.3,5.6-5.4c1.5-2,2.9-4.2,3.8-6.5c0.9-2.3,1.6-4.6,1.9-6.9c0.2-1.2,0.2-2.3,0.3-3.5
			l0-0.2l0-0.1l0-0.1c0-0.1,0,0.3,0,0.1l0-0.5l0-1l0-1c0-0.3,0-0.7-0.1-0.9c-0.2-1.1-0.2-2.1-0.5-3.1c-0.1-0.5-0.2-1.1-0.4-1.6
			c-0.2-0.5-0.3-1-0.5-1.5c-0.6-2-1.5-3.9-2.4-5.7c-2-3.5-4.5-6.5-7.1-8.7c-0.7-0.5-1.3-1-2-1.5c-0.7-0.4-1.4-0.8-2-1.2
			c-0.6-0.4-1.3-0.6-1.9-1c-0.3-0.1-0.6-0.3-0.9-0.4c-0.3-0.1-0.6-0.2-0.9-0.3c-0.6-0.2-1.2-0.4-1.7-0.5c-0.5-0.1-1.1-0.2-1.5-0.3
			c-0.5-0.1-0.9-0.2-1.3-0.2c-0.4-0.1-0.8-0.1-1.1-0.1C129.2,0.6,128.4,0.6,128.5,0.6L128.5,0.6z M128.4,0c0,0,0.7,0,2.1,0.1
			c0.3,0,0.7,0,1.2,0.1c0.4,0.1,0.9,0.1,1.4,0.2c0.5,0.1,1,0.1,1.6,0.2c0.6,0.1,1.2,0.2,1.8,0.4c0.3,0.1,0.7,0.1,1,0.2
			c0.3,0.1,0.7,0.2,1,0.3c0.7,0.2,1.4,0.4,2.2,0.6c0.7,0.3,1.5,0.6,2.3,0.9c0.8,0.4,1.6,0.8,2.4,1.2c3.3,1.7,6.9,4.3,9.8,8.1
			c0.3,0.5,0.7,1,1,1.5c0.3,0.5,0.7,1,1,1.6c0.6,1.1,1.3,2.2,1.7,3.4c0.2,0.6,0.5,1.2,0.7,1.8c0.2,0.6,0.4,1.3,0.5,1.9
			c0.2,0.6,0.4,1.3,0.5,2c0.1,0.7,0.3,1.4,0.4,2.1c0.1,0.4,0.1,0.7,0.1,1l0.1,1l0.1,1l0,0.5l0,0.2l0,0.1l0,0.1l0,0.3
			c-0.1,1.4-0.1,2.9-0.3,4.3c-0.4,2.9-1.3,5.8-2.6,8.5c-1.3,2.8-3,5.3-5,7.7c-2.1,2.3-4.5,4.3-7.1,6c-2.7,1.7-5.6,2.8-8.7,3.6
			c-1.5,0.3-3.1,0.6-4.7,0.7c-0.8,0.1-1.6,0.1-2.3,0.1l-2.3,0c-1.5-0.2-3.1-0.3-4.6-0.7c-0.7-0.2-1.5-0.3-2.2-0.5l-2.2-0.7
			c-0.7-0.2-1.4-0.6-2.1-0.8c-0.3-0.1-0.7-0.3-1-0.4l-1-0.5c-0.7-0.4-1.4-0.6-2-1l-1.9-1.2c-2.4-1.7-4.7-3.6-6.7-5.8
			c-1.9-2.2-3.7-4.5-5-7.1c-1.3-2.6-2.4-5.2-3-8.1c-0.4-1.5-0.4-2.7-0.6-4l0-0.2l0-0.1l0-0.1l0-0.2l0-0.5l0-1c0-0.7,0-1.4,0.1-2.1
			c0.5-5.5,2.6-10.4,5.4-14.2c2.9-3.8,6.5-6.4,9.7-8.1c0.8-0.4,1.6-0.8,2.4-1.2c0.8-0.3,1.6-0.6,2.3-0.9c0.7-0.3,1.5-0.4,2.2-0.6
			c0.3-0.1,0.7-0.2,1-0.3c0.3-0.1,0.7-0.1,1-0.2c0.6-0.1,1.2-0.3,1.8-0.4c0.6-0.1,1.1-0.1,1.6-0.2c0.5-0.1,1-0.1,1.4-0.2
			c0.4,0,0.8,0,1.1-0.1C127.7,0,128.4,0,128.4,0L128.4,0z"/>
		<path id="XMLID_95_" class="st1" d="M128.4,50.9c0,0-0.5,0-1.4-0.1c-0.5,0-1.1-0.1-1.8-0.1c-0.3,0-0.7-0.1-1.1-0.1
			c-0.4-0.1-0.8-0.2-1.3-0.2c-1.8-0.4-3.9-0.9-6.3-2c-2.4-1.1-5-2.8-7.1-5.5c-2.1-2.6-3.6-6.2-3.9-10.1c-0.1-0.5,0-1,0-1.5l0-0.7
			l0-0.4l0-0.2l0,0l0-0.1l0-0.2c0.1-0.9,0.2-1.7,0.5-2.8c0.5-2.1,1.3-3.9,2.3-5.7c1-1.8,2.3-3.4,3.7-4.9c1.4-1.5,3-2.8,4.7-4
			c1.7-1.2,3.6-2.1,5.6-2.9c1-0.3,2-0.7,3.1-0.9c1-0.3,2.1-0.4,3.2-0.5c1.2,0,2-0.2,3.2,0c1.2,0,2.3,0.2,3.4,0.4
			c2.2,0.5,4.3,1.3,6.2,2.5c1.9,1.2,3.6,2.6,5.1,4.2c1.5,1.7,2.7,3.5,3.7,5.5c0.9,2,1.6,4,1.9,6.1c0.2,1,0.2,2.1,0.2,3.1l0,0.2
			l0,0.1l0,0l0,0.2l0,0.3l0,0.7c0,0.5,0,0.8-0.1,1.4c-0.2,1-0.3,2.1-0.6,3c-0.1,0.5-0.3,0.9-0.4,1.4c-0.2,0.4-0.4,0.9-0.5,1.3
			c-0.7,1.7-1.7,3.2-2.8,4.6c-2.2,2.6-4.8,4.3-7.2,5.5c-2.4,1.1-4.6,1.6-6.3,2c-0.4,0.1-0.9,0.2-1.3,0.2c-0.4,0.1-0.8,0.1-1.1,0.1
			c-0.7,0.1-1.3,0.1-1.8,0.1C128.9,50.9,128.4,50.9,128.4,50.9L128.4,50.9z M128.4,50.3c0,0,0.5,0,1.4-0.1c0.5,0,1-0.1,1.7-0.3
			c0.3-0.1,0.7-0.1,1-0.2c0.4-0.1,0.7-0.3,1.2-0.4c1.6-0.6,3.5-1.6,5.2-3.2c1.7-1.6,3.3-3.6,4.4-6c0.6-1.2,1.1-2.5,1.5-3.8
			c0.4-1.3,0.7-2.8,0.8-4c0.1-0.3,0-0.8,0.1-1.2l0-0.7l0-0.3c0-0.2,0,0.2,0,0.1l0,0l0-0.1l0-0.1c-0.1-0.7,0-1.5-0.2-2.3
			c-0.2-1.5-0.6-3-1.2-4.5c-0.6-1.5-1.4-2.9-2.4-4.2c-1-1.3-2.2-2.5-3.6-3.6c-1.4-1-2.9-1.9-4.6-2.6c-0.8-0.3-1.7-0.7-2.5-0.9
			c-0.7-0.3-2-0.4-2.8-0.5c-1.8-0.2-3.8-0.1-5.6,0.3c-1.8,0.5-3.6,1.2-5.2,2.2c-1.6,1.1-3,2.3-4.1,3.8c-1.1,1.5-1.9,3.1-2.4,4.8
			c-0.2,0.4-0.2,0.8-0.3,1.3c-0.1,0.4-0.2,0.8-0.2,1.3c-0.1,0.4-0.1,0.8-0.2,1.2c0,0.4,0,0.8,0,1.2c-0.1,0.7,0,1.7,0,2.5l0,0.2
			l0,0.1l0,0c0,0,0-0.2,0-0.1l0,0.3l0.1,0.6c0.1,0.4,0.1,0.8,0.1,1.1c0.5,3,1.5,5.6,2.7,8c1.2,2.4,2.8,4.4,4.5,6
			c1.7,1.6,3.6,2.6,5.2,3.2c0.4,0.1,0.8,0.3,1.2,0.4c0.4,0.1,0.7,0.2,1,0.2c0.7,0.1,1.2,0.2,1.7,0.2C128,50.2,128.5,50.3,128.4,50.3
			L128.4,50.3z"/>
	</g>
	<g id="XMLID_86_">
		<path id="XMLID_92_" class="st1" d="M32.3,0.6c0,0-0.7,0-2.1,0.1c-0.3,0-0.7,0-1.1,0.1c-0.4,0.1-0.9,0.2-1.3,0.2
			c-0.5,0.1-1,0.2-1.5,0.3c-0.5,0.2-1.1,0.3-1.7,0.5c-0.3,0.1-0.6,0.2-0.9,0.3c-0.3,0.1-0.6,0.3-0.9,0.4c-0.6,0.3-1.3,0.6-2,0.9
			c-0.6,0.4-1.3,0.8-2,1.2c-0.7,0.5-1.3,1-2,1.5c-2.6,2.2-5.2,5.1-7.2,8.6C7.5,18.4,6,22.5,5.3,27c-0.1,0.6-0.1,1.1-0.2,1.7
			l-0.1,0.9l0,0.4C5,30.2,5,30,5,30l0,0.1l0,0.1l0,0.2c0,1.3-0.1,2.7,0.1,3.8c0.1,0.6,0.1,1.2,0.2,1.8c0.1,0.6,0.2,1.2,0.3,1.9
			c0.1,0.6,0.3,1.2,0.4,1.9c0.2,0.6,0.3,1.3,0.6,1.9c0.2,0.6,0.5,1.2,0.7,1.8c0.2,0.6,0.6,1.2,0.9,1.8l0.5,0.9
			c0.2,0.3,0.4,0.6,0.6,0.8c0.4,0.6,0.7,1.1,1.2,1.7c1.7,2.2,3.7,4,6.1,5.6c2.3,1.5,5,2.6,7.7,3.4c2.7,0.7,5.6,0.9,8.3,0.7
			c1.3-0.2,3-0.3,4.1-0.6c0.6-0.2,1.3-0.2,1.9-0.5l1.9-0.6c0.6-0.2,1.2-0.5,1.9-0.8c0.3-0.1,0.6-0.3,0.9-0.4l0.9-0.5
			c0.6-0.3,1.2-0.6,1.7-1l1.6-1.1c2.1-1.6,4-3.3,5.6-5.4c1.5-2,2.9-4.2,3.8-6.5c0.9-2.3,1.6-4.6,1.9-6.9c0.2-1.2,0.2-2.3,0.3-3.5
			l0-0.2l0-0.1l0-0.1c0-0.1,0,0.3,0,0.1l0-0.5l0-1l0-1c0-0.3,0-0.7-0.1-0.9c-0.2-1.1-0.2-2.1-0.5-3.1c-0.1-0.5-0.2-1.1-0.4-1.6
			c-0.2-0.5-0.3-1-0.5-1.5c-0.6-2-1.5-3.9-2.4-5.7c-2-3.5-4.5-6.5-7.1-8.7c-0.7-0.5-1.3-1-2-1.5c-0.7-0.4-1.4-0.8-2-1.2
			c-0.6-0.4-1.3-0.6-1.9-1c-0.3-0.1-0.6-0.3-0.9-0.4c-0.3-0.1-0.6-0.2-0.9-0.3c-0.6-0.2-1.2-0.4-1.7-0.5c-0.5-0.1-1.1-0.2-1.5-0.3
			c-0.5-0.1-0.9-0.2-1.3-0.2c-0.4-0.1-0.8-0.1-1.1-0.1C33,0.6,32.3,0.6,32.3,0.6L32.3,0.6z M32.3,0c0,0,0.7,0,2.1,0.1
			c0.3,0,0.7,0,1.2,0.1C36,0.2,36.5,0.2,37,0.3c0.5,0.1,1,0.1,1.6,0.2c0.6,0.1,1.2,0.2,1.8,0.4c0.3,0.1,0.7,0.1,1,0.2
			c0.3,0.1,0.7,0.2,1,0.3c0.7,0.2,1.4,0.4,2.2,0.6c0.7,0.3,1.5,0.6,2.3,0.9c0.8,0.4,1.6,0.8,2.4,1.2c3.3,1.7,6.9,4.3,9.8,8.1
			c0.3,0.5,0.7,1,1,1.5c0.3,0.5,0.7,1,1,1.6c0.6,1.1,1.3,2.2,1.7,3.4c0.2,0.6,0.5,1.2,0.7,1.8c0.2,0.6,0.4,1.3,0.5,1.9
			c0.2,0.6,0.4,1.3,0.5,2c0.1,0.7,0.3,1.4,0.4,2.1c0.1,0.4,0.1,0.7,0.1,1l0.1,1l0.1,1l0,0.5l0,0.2l0,0.1l0,0.1l0,0.3
			c-0.1,1.4-0.1,2.9-0.3,4.3c-0.4,2.9-1.3,5.8-2.6,8.5c-1.3,2.8-3,5.3-5,7.7c-2.1,2.3-4.5,4.3-7.1,6c-2.7,1.7-5.6,2.8-8.7,3.6
			c-1.5,0.3-3.1,0.6-4.7,0.7c-0.8,0.1-1.6,0.1-2.3,0.1l-2.3,0c-1.5-0.2-3.1-0.3-4.6-0.7c-0.7-0.2-1.5-0.3-2.2-0.5l-2.2-0.7
			c-0.7-0.2-1.4-0.6-2.1-0.8c-0.3-0.1-0.7-0.3-1-0.4l-1-0.5c-0.7-0.4-1.4-0.6-2-1l-1.9-1.2c-2.4-1.7-4.7-3.6-6.7-5.8
			c-1.9-2.2-3.7-4.5-5-7.1c-1.3-2.6-2.4-5.2-3-8.1c-0.4-1.5-0.4-2.7-0.6-4l0-0.2l0-0.1l0-0.1l0-0.2l0-0.5l0-1c0-0.7,0-1.4,0.1-2.1
			C0.6,21,2.7,16,5.5,12.2c2.9-3.8,6.5-6.4,9.7-8.1c0.8-0.4,1.6-0.8,2.4-1.2c0.8-0.3,1.6-0.6,2.3-0.9c0.7-0.3,1.5-0.4,2.2-0.6
			c0.3-0.1,0.7-0.2,1-0.3c0.3-0.1,0.7-0.1,1-0.2c0.6-0.1,1.2-0.3,1.8-0.4c0.6-0.1,1.1-0.1,1.6-0.2c0.5-0.1,1-0.1,1.4-0.2
			c0.4,0,0.8,0,1.1-0.1C31.6,0,32.3,0,32.3,0L32.3,0z"/>
		<path id="XMLID_89_" class="st1" d="M32.3,50.9c0,0-0.5,0-1.4-0.1c-0.5,0-1.1-0.1-1.8-0.1c-0.3,0-0.7-0.1-1.1-0.1
			c-0.4-0.1-0.8-0.2-1.3-0.2c-1.8-0.4-3.9-0.9-6.3-2c-2.4-1.1-5-2.8-7.1-5.5c-2.1-2.6-3.6-6.2-3.9-10.1c-0.1-0.5,0-1,0-1.5l0-0.7
			l0-0.4l0-0.2l0,0l0-0.1l0-0.2c0.1-0.9,0.2-1.7,0.5-2.8c0.5-2.1,1.3-3.9,2.3-5.7c1-1.8,2.3-3.4,3.7-4.9c1.4-1.5,3-2.8,4.7-4
			c1.7-1.2,3.6-2.1,5.6-2.9c1-0.3,2-0.7,3.1-0.9c1-0.3,2.1-0.4,3.2-0.5c1.2,0,2-0.2,3.2,0c1.2,0,2.3,0.2,3.4,0.4
			c2.2,0.5,4.3,1.3,6.2,2.5c1.9,1.2,3.6,2.6,5.1,4.2c1.5,1.7,2.7,3.5,3.7,5.5c0.9,2,1.6,4,1.9,6.1c0.2,1,0.2,2.1,0.2,3.1l0,0.2
			l0,0.1l0,0l0,0.2l0,0.3l0,0.7c0,0.5,0,0.8-0.1,1.4c-0.2,1-0.3,2.1-0.6,3c-0.1,0.5-0.3,0.9-0.4,1.4c-0.2,0.4-0.4,0.9-0.5,1.3
			c-0.7,1.7-1.7,3.2-2.8,4.6c-2.2,2.6-4.8,4.3-7.2,5.5c-2.4,1.1-4.6,1.6-6.3,2c-0.4,0.1-0.9,0.2-1.3,0.2c-0.4,0.1-0.8,0.1-1.1,0.1
			c-0.7,0.1-1.3,0.1-1.8,0.1C32.8,50.9,32.3,50.9,32.3,50.9L32.3,50.9z M32.3,50.3c0,0,0.5,0,1.4-0.1c0.5,0,1-0.1,1.7-0.3
			c0.3-0.1,0.7-0.1,1-0.2c0.4-0.1,0.7-0.3,1.2-0.4c1.6-0.6,3.5-1.6,5.2-3.2c1.7-1.6,3.3-3.6,4.4-6c0.6-1.2,1.1-2.5,1.5-3.8
			c0.4-1.3,0.7-2.8,0.8-4c0.1-0.3,0-0.8,0.1-1.2l0-0.7l0-0.3c0-0.2,0,0.2,0,0.1l0,0l0-0.1l0-0.1c-0.1-0.7,0-1.5-0.2-2.3
			c-0.2-1.5-0.6-3-1.2-4.5c-0.6-1.5-1.4-2.9-2.4-4.2c-1-1.3-2.2-2.5-3.6-3.6c-1.4-1-2.9-1.9-4.6-2.6c-0.8-0.3-1.7-0.7-2.5-0.9
			c-0.7-0.3-2-0.4-2.8-0.5c-1.8-0.2-3.8-0.1-5.6,0.3c-1.8,0.5-3.6,1.2-5.2,2.2c-1.6,1.1-3,2.3-4.1,3.8c-1.1,1.5-1.9,3.1-2.4,4.8
			c-0.2,0.4-0.2,0.8-0.3,1.3c-0.1,0.4-0.2,0.8-0.2,1.3c-0.1,0.4-0.1,0.8-0.2,1.2c0,0.4,0,0.8,0,1.2c-0.1,0.7,0,1.7,0,2.5l0,0.2
			l0,0.1l0,0c0,0,0-0.2,0-0.1l0,0.3l0.1,0.6c0.1,0.4,0.1,0.8,0.1,1.1c0.5,3,1.5,5.6,2.7,8c1.2,2.4,2.8,4.4,4.5,6
			c1.7,1.6,3.6,2.6,5.2,3.2c0.4,0.1,0.8,0.3,1.2,0.4c0.4,0.1,0.7,0.2,1,0.2c0.7,0.1,1.2,0.2,1.7,0.2C31.8,50.2,32.3,50.3,32.3,50.3
			L32.3,50.3z"/>
	</g>
</g>
</svg>
