<?xml version="1.0" encoding="utf-8"?>
<!-- Generator: Adobe Illustrator 19.0.0, SVG Export Plug-In . SVG Version: 6.00 Build 0)  -->
<svg version="1.1" id="Layer_1" xmlns="http://www.w3.org/2000/svg" xmlns:xlink="http://www.w3.org/1999/xlink" x="0px" y="0px"
	 viewBox="335 -254.6 755.4 679.7" style="enable-background:new 335 -254.6 755.4 679.7;" xml:space="preserve">
<style type="text/css">
	.st0{fill:none;}
</style>
<g>
	<g>
		<path d="M796.6-184.9c0,0-0.8,2,3.5,6.5c4.3,4.5,21,19.3,21.5,21.7c0.5,2.3-5.5,8.2,3,15.2s21,13.2,27,8.3c6-4.8,5-1.3,4.5,0.8
			c-0.5,2.2,0.5,4,1.5,2.8s5-10.5,0-11s-7.5,10.2-16.3,7.3c-8.9-2.9-15.7-9.2-17.3-11.2s3.3-14.5,5.8-13.3s30.5,13,38.8,11.5
			s9.8-3.3,6.7-4.8l-4.2-0.7c0,0,3,3.3-5,2.3s-37-10.8-46.7-16.5C809.7-171.6,796.6-184.9,796.6-184.9z"/>
	</g>
</g>
<g>
	<g>
		<path d="M827.9-124c0,0,10.9,2,14.2,2.6c3.3,0.6,3.4,0.6,3.4,0.6s-0.5-1-3-1.6S830.9-124.2,827.9-124z"/>
	</g>
</g>
<g>
	<g>
		<path d="M828.8-121.4c0,0,2.8,3.1,3.2,4.5s3.4,3.4,5.2,3.4s5.5-1.4,5.4-3.4c0,0-2.4,0.2-5.4-0.6S830.3-122.2,828.8-121.4z"/>
	</g>
</g>
<g>
	<g>
		<path d="M827.3-113.5c0,0,0.6-0.1,1.4-0.1c0.8,0,1.9,0,3,0.2c1.1,0.2,2.1,0.5,2.9,0.9s1.2,0.7,1.2,0.7s-0.6-0.1-1.4-0.2
			c-0.8-0.1-1.8-0.3-2.9-0.5c-1-0.2-2.1-0.4-2.9-0.7C827.8-113.3,827.3-113.5,827.3-113.5z"/>
	</g>
</g>
<g>
	<g>
		<path d="M810.9-166.8l3.6,4.4c0,0-10.8,13.6-10.8,21.8s3.9,14.8,7.9,20.6s4.6,8.8,4.4,12s0.6,9.9,2.9,7.1c2.3-2.8,3.9-6.2,3.9-6.2
			l4.5,2.9c0,0-5.9,8.1-10.8,5.8s-5.1-7.4-5-11.5s-1.5-9.1-6.6-15.5c-5.1-6.4-6.2-10.2-6.5-13.2c-0.3-3,1.8-4.6,1.6-6.5
			c-0.2-1.9-5.9-11.7-5.9-11.7s8.8,7.7,11.1,1.1C807.5-162.3,810.9-166.8,810.9-166.8z"/>
	</g>
</g>
<g>
	<g>
		<path d="M803.2-122.4c0,0,3.6,0.3,4,1.6s-4.2,5.6-6.8,4.9s-3.4-2.6-1.1-4C801.6-121.3,803.2-122.4,803.2-122.4z"/>
	</g>
</g>
<g>
	<g>
		<path d="M791.2-165.5l1.2,4.2c0,0-6.6,5.2-9.1,12s-6.1,13.9-6.1,19.1s-2.6,13.8-2.5,19s-1,19.8-1.9,23.1
			c-0.9,3.3-3.1,13.9-6.5,18.1c0,0,6.9-15.9,5.6-28.3s-13.1-28.4-14.8-29.7c-1.7-1.3,5-6.4,7.1-9.2c2.1-2.8,17.5-23.2,19.9-24.6
			C786.5-163.2,791.2-165.5,791.2-165.5z"/>
	</g>
</g>
<g>
	<g>
		<path d="M811.1-106.7c0,0-6,10-13.1,15s-30.6,21.5-34.1,24.8c0,0,19.1-13.4,28.5-19.4c9.4-6,12.6-7.4,20.8-6.6
			c8.2,0.8,9.6,0.1,11.9-7.7c0,0-3.7,4.8-9.1,2.7C810.8-100,811.1-106.7,811.1-106.7z"/>
	</g>
</g>
<g>
	<path d="M857.8-190.8c-2.9-1.5-4.6-0.2-3.4,9.6s6.2,24.5,7.4,21.1C863-163.5,863.2-188.1,857.8-190.8z"/>
</g>
<g>
	<path d="M874.8-184c-2.1,3.7-4.6,14.4-5.5,18.5c-0.9,4.1-2.1,9.6,1.8,5.9c3.9-3.7,10.6-19.2,10.6-23.2S877.7-189.1,874.8-184z"/>
</g>
<g>
	<path d="M888.2-176.5c0,0-6.5,12.1-9.1,16c-2.6,3.9-3.4,5.4-1,4.2C880.5-157.5,888.7-169.8,888.2-176.5z"/>
</g>
<g>
	<path d="M839.4-184c-5-4.9-9.1-7.4-7.8-2.9c1.3,4.5,6.6,16.7,9.4,20.8s11.2,9.4,9.4,3.6S844.4-179.2,839.4-184z"/>
</g>
<g>
	<path d="M803.7-211.2c-0.1,4.4-0.4,13.4,6.4,22c6.8,8.6,13.1,14.3,14.9,15.5s3.6,1.7,1.6-1.8s-13-26.6-15.8-29.6
		C808-208.1,803.7-213.7,803.7-211.2z"/>
</g>
<g>
	<path d="M814.7-210c0.2,2.6,11.2,11.4,16.7,15.8s11.3,7.2,9.6,4.2c-1.6-3-10.2-15.8-15.6-18.6S814.3-214.6,814.7-210z"/>
</g>
<g>
	<path d="M820.8-194.6c0.6,2.2,6.1,11.9,9.1,15.8c3,3.9,3.2,0.5,2.1-1.8s-6.1-13.1-9.1-15C819.9-197.5,820.8-194.6,820.8-194.6z"/>
</g>
<g>
	<path d="M840.3-206.8c0,0-8.1-9-12.3-12c-4.2-3-6.2-8-1.3-5.6s17.3,9.8,22.3,17.6C854-199,844.7-206.7,840.3-206.8z"/>
</g>
<g>
	<path d="M850.4-218.6c0,0,11.8,14.2,14.2,19.4c2.4,5.2,4,7.6,4.9,3.6s4.8-12.6-0.4-18.6s-1.2,5.1-2.8,7
		C864.7-205.3,853.3-219.1,850.4-218.6z"/>
</g>
<g>
	<path d="M876.6-208.4c0,0,1.2,7-0.6,9.9c0,0,5.9-2,4.6-3.4C879.3-203.3,878.4-209.1,876.6-208.4z"/>
</g>
<g>
	<path d="M791.3-206.1c0,0,3.5,10,6.2,15.4c2.7,5.4,7.5,11.8,7.5,11.8S793.2-201.6,791.3-206.1z"/>
</g>
<g>
	<g>
		<path d="M808.1-170.8C808.1-170.8,808.1-170.8,808.1-170.8c-0.2,0.1-0.3,0.2-0.5,0.2c-0.4,0.1-0.9,0.2-1.6,0.4
			c-1.4,0.3-3.4,0.6-5.8,0.9c-1.2,0.1-2.5,0.3-3.9,0.3c-1.4,0.1-2.9,0.2-4.4,0.1c-1.5,0-3.1-0.1-4.7-0.2c-1.6-0.2-3.3-0.4-4.9-1.1
			l-0.3-0.1h-0.1l0,0l0,0l0,0l-0.1-0.1l-0.5-0.3c-0.4-0.2-0.7-0.4-1.1-0.7c-0.7-0.5-1.3-1-2-1.5c-1.2-1.1-2.4-2.2-3.4-3.3
			c-1.1-1.1-2.1-2.1-3.1-3.1s-2-1.8-3-2.5c-0.5-0.3-1-0.6-1.4-0.9c-0.5-0.3-0.9-0.5-1.4-0.7s-0.9-0.3-1.3-0.5
			c-0.4-0.1-0.8-0.2-1.1-0.3c-0.7-0.2-1.2-0.2-1.6-0.2s-0.6,0-0.6,0s0.2,0,0.6,0s1-0.1,1.7,0.1c0.4,0.1,0.8,0.1,1.2,0.2
			c0.4,0.1,0.9,0.3,1.4,0.4c0.5,0.2,1,0.4,1.5,0.6c0.5,0.3,1,0.6,1.5,0.9c2.1,1.4,4.2,3.3,6.4,5.4c1.1,1.1,2.2,2.1,3.4,3.2
			c0.6,0.5,1.2,1,1.9,1.4c0.3,0.2,0.6,0.4,1,0.6l0.5,0.3l0.1,0.1l0,0l0,0l0,0h0.1l0.3,0.1c1.4,0.6,3,0.9,4.6,1.1
			c1.6,0.2,3.1,0.3,4.6,0.3s3,0,4.4,0c1.4,0,2.7-0.1,3.9-0.2c2.4-0.2,4.5-0.3,5.9-0.5c0.7-0.1,1.3-0.2,1.6-0.2
			c0.2,0,0.3-0.1,0.4-0.1C808-170.8,808.1-170.8,808.1-170.8z"/>
	</g>
</g>
<g>
	<g>
		<path d="M732.5-179c0,0,1-0.6,2.9-1.6c1.9-1,4.6-2.3,7.9-3.7c1.7-0.7,3.5-1.4,5.5-2.1c2-0.6,4.1-1.3,6.5-1.6
			c0.6-0.1,1.2-0.1,1.9-0.1h0.9h0.9c1.2,0.1,2.5,0.2,3.7,0.5c2.4,0.5,4.8,1.3,7.1,2.3s4.4,2.2,6.5,3.5c2,1.3,4,2.7,5.8,4.1
			c0.9,0.7,1.8,1.4,2.6,2.1c0.8,0.7,1.7,1.4,2.4,2c1.3,0.9,3.3,1.2,5,1.1c1.7-0.1,3.3-0.3,4.7-0.6c1.4-0.3,2.6-0.6,3.6-0.9
			c2-0.6,3.1-1,3.1-1s-1,0.6-2.9,1.6c-1,0.4-2.1,1-3.5,1.5c-1.4,0.5-3,1-4.9,1.2c-0.9,0.1-1.9,0.2-3,0.1c-1.1-0.1-2.2-0.3-3.3-1
			c-1-0.6-1.8-1.2-2.7-1.9c-0.9-0.6-1.8-1.3-2.7-1.9c-1.8-1.3-3.7-2.5-5.7-3.7s-4.1-2.3-6.2-3.2c-2.1-0.9-4.3-1.7-6.5-2.2
			c-1.1-0.3-2.2-0.4-3.3-0.6l-0.8-0.1h-0.9c-0.5,0-1,0-1.5,0c-2.1,0.2-4.2,0.6-6.2,1.1s-3.8,1-5.6,1.5c-3.4,1-6.3,2-8.3,2.6
			C733.7-179.4,732.5-179,732.5-179z"/>
	</g>
</g>
<g>
	<g>
		<path d="M770.8-211.8c0,0-0.1,0.9-0.2,2.4s-0.2,3.8-0.2,6.4c0,2.6,0.2,5.7,0.8,8.9c0.3,1.6,0.8,3.2,1.4,4.8c0.7,1.5,1.6,3,2.9,4.1
			c1.3,1,2.9,2,4.3,2.9c1.5,0.9,3,1.7,4.4,2.5c2.9,1.5,5.8,2.8,8.3,3.4c1.3,0.3,2.5,0.5,3.5,0.6c1.1,0,2-0.1,2.7-0.5
			c0.7-0.3,1.1-0.7,1.4-1.1c0.2-0.3,0.4-0.5,0.4-0.5s-0.1,0.2-0.3,0.6c-0.2,0.3-0.6,0.8-1.4,1.2c-0.7,0.4-1.7,0.6-2.8,0.7
			c-1.1,0.1-2.3-0.1-3.6-0.4c-2.6-0.6-5.6-1.7-8.6-3.2c-1.5-0.7-3-1.6-4.5-2.5c-1.5-0.9-3-1.8-4.5-2.9c-1.4-1.2-2.4-2.8-3.1-4.5
			c-0.7-1.7-1.1-3.3-1.4-5c-0.6-3.3-0.6-6.4-0.6-9.1c0.1-2.7,0.3-4.9,0.5-6.4C770.6-211,770.8-211.8,770.8-211.8z"/>
	</g>
</g>
<g>
	<g>
		<path d="M799.8-183.1c0,0-0.2-0.5-0.7-1.3c-0.4-0.8-1.1-1.9-2-3.2c-0.5-0.6-1-1.3-1.6-1.8c-0.3-0.2-0.7-0.4-1.1-0.5
			c-0.4,0-0.6,0.1-1,0.4c-0.8,0.6-1.6,1.2-2.5,1.8c-0.9,0.5-2,1.1-3.3,0.9c-0.3,0-0.6-0.2-0.9-0.3c-0.2-0.2-0.5-0.3-0.7-0.5
			c-0.4-0.4-0.7-0.9-1-1.3c-0.5-1-0.9-1.9-1.1-2.9c-0.1-0.2-0.1-0.5-0.2-0.7c0-0.2-0.1-0.5-0.1-0.7c-0.1-0.5-0.1-1-0.1-1.4
			c0-0.9,0.1-1.8,0.3-2.6c0.2-0.8,0.5-1.5,0.8-2c0.3-0.6,0.7-1,1-1.3c0.6-0.7,1.1-0.9,1.1-0.9s-0.4,0.3-1,1
			c-0.6,0.7-1.2,1.9-1.5,3.4c-0.2,0.7-0.2,1.6-0.1,2.4c0,0.4,0.1,0.9,0.2,1.3c0,0.2,0.1,0.4,0.1,0.7c0.1,0.2,0.1,0.5,0.2,0.7
			c0.2,0.9,0.6,1.8,1.1,2.7c0.5,0.8,1.1,1.6,2,1.7c0.8,0.1,1.8-0.3,2.6-0.8c0.8-0.5,1.7-1.1,2.5-1.7c0.2-0.1,0.4-0.3,0.7-0.4
			c0.3-0.1,0.6-0.1,0.9-0.1c0.6,0.1,1,0.4,1.4,0.7c0.7,0.6,1.2,1.4,1.7,2c0.9,1.4,1.3,2.6,1.7,3.4
			C799.6-183.6,799.8-183.1,799.8-183.1z"/>
	</g>
</g>
<g>
	<g>
		<path d="M839-158.4c3.4,0.8,6.9,1.5,10.4,2c1.7,0.3,3.5,0.5,5.2,0.7c0.9,0.1,1.7,0.2,2.6,0.4c1,0.3,1.7,0.9,2.3,1.6
			c1.2,1.2,2.4,2.7,4,2.9c0.8,0.2,1.6,0,2.5-0.2c0.8-0.2,1.7-0.4,2.5-0.7s1.7-0.6,2.6-0.8c0.9-0.2,1.8-0.3,2.7-0.3
			c0.4,0,0.9,0,1.3,0c0.4,0,0.8-0.1,1.2-0.2c0.8-0.2,1.7-0.4,2.5-0.7c1.6-0.6,3.1-1.5,4.4-2.6c1.3-1.1,2.5-2.4,3.3-3.8
			c0.9-1.5,1.6-3,2-4.7l0.3-1.3l0.2-1.3c0.1-0.8,0.2-1.7,0.3-2.6c0.3-3.5,0.5-7,0.6-10.5c0-1.7,0-3.5-0.3-5.2
			c-0.2-1.7-0.7-3.4-1.6-4.8v-0.1v-0.1c-0.4-2.4-0.9-4.7-1.6-7c-0.4-1.1-0.8-2.3-1.3-3.3c-0.1-0.3-0.3-0.5-0.4-0.8
			c-0.1-0.3-0.3-0.5-0.4-0.8c-0.2-0.3-0.3-0.5-0.5-0.8l-0.5-0.7l0.6,0.7c0.2,0.2,0.4,0.5,0.5,0.7c0.2,0.2,0.3,0.5,0.5,0.8
			c0.2,0.3,0.3,0.5,0.5,0.8c0.6,1.1,1,2.2,1.5,3.3c0.8,2.3,1.5,4.6,1.9,7v-0.1c1,1.5,1.5,3.3,1.8,5c0.3,1.8,0.4,3.5,0.4,5.3
			c0,3.5-0.2,7.1-0.5,10.6c-0.1,0.9-0.1,1.8-0.3,2.6l-0.2,1.3l-0.3,1.3c-0.4,1.8-1.1,3.4-2,5c-0.9,1.6-2.2,2.9-3.5,4.1
			c-1.4,1.1-3,2.1-4.7,2.7c-0.8,0.3-1.7,0.6-2.6,0.7c-0.4,0.1-0.9,0.2-1.4,0.2c-0.5,0.1-0.9,0-1.3,0c-0.9,0-1.7,0-2.5,0.2
			s-1.6,0.5-2.5,0.7c-0.8,0.3-1.7,0.5-2.6,0.7c-0.8,0.2-1.8,0.3-2.8,0.1c-1-0.2-1.8-0.7-2.5-1.3c-0.7-0.6-1.3-1.3-1.9-1.9
			c-0.6-0.6-1.3-1.2-2-1.4c-0.8-0.2-1.7-0.3-2.6-0.5c-1.7-0.3-3.5-0.5-5.2-0.8C845.9-156.6,842.4-157.4,839-158.4z"/>
	</g>
</g>
<g>
	<path d="M797.5-221.1c0.4-0.9,0.9-1.8,1.5-2.6c0.6-0.8,1.2-1.7,1.9-2.4c0.3-0.4,0.7-0.7,1.1-1.1l0.6-0.5c0.2-0.2,0.4-0.3,0.6-0.4
		s0.4-0.3,0.7-0.4c0.2-0.1,0.5-0.2,0.7-0.3c0.3-0.1,0.5-0.2,0.8-0.2l0.8-0.1l-0.3,0.2c0.5-1.1,1.2-1.9,2.2-2.6c0.9-0.6,2-1,3.1-1.2
		c0.5-0.1,1.1-0.1,1.6-0.2l1.6-0.1c1-0.1,2.1-0.2,3.1-0.4s2-0.5,2.8-1c0.4-0.3,0.7-0.6,0.9-1c0.2-0.5,0.6-1,1-1.4
		c0.8-0.8,1.8-1.4,2.7-1.9c1-0.5,2-0.8,3.1-1.1c1.1-0.2,2.2-0.4,3.3-0.4c0.5,0,1.1,0,1.6,0.1c0.5,0,1.1,0.1,1.6,0.2
		c0.5,0.1,1.1,0.2,1.6,0.3s1,0.3,1.5,0.5c1,0.3,2,0.7,3,1c2,0.7,4,1.5,5.9,2.4c1.9,0.9,3.8,1.9,5.5,3.3c-0.9-0.6-1.8-1.1-2.7-1.6
		s-1.9-0.9-2.9-1.3c-2-0.8-3.9-1.5-6-2.2c-1-0.3-2-0.6-3-0.9c-0.5-0.1-1-0.3-1.5-0.4c-0.5-0.1-1-0.2-1.5-0.3c-0.5-0.1-1-0.2-1.5-0.2
		c-0.5-0.1-1-0.1-1.5,0c-1,0-2.1,0.2-3.1,0.4s-2,0.6-2.9,1c-0.9,0.5-1.8,1-2.5,1.7c-0.4,0.4-0.6,0.6-0.8,1.1c-0.3,0.6-0.8,1-1.3,1.3
		c-1,0.6-2.1,0.9-3.2,1.1c-1.1,0.2-2.1,0.3-3.2,0.3c-1.1,0.1-2.1,0-3.1,0.2c-1,0.2-2,0.5-2.8,1s-1.6,1.3-2,2.2l-0.1,0.2h-0.2h-0.7
		c-0.2,0-0.5,0.1-0.7,0.1c-0.2,0-0.5,0.2-0.7,0.2c-0.2,0.1-0.4,0.2-0.6,0.3c-0.2,0.1-0.4,0.2-0.6,0.4l-0.6,0.4
		c-0.4,0.3-0.8,0.6-1.1,1c-0.7,0.7-1.4,1.5-2,2.3C798.6-222.8,798-222,797.5-221.1z"/>
</g>
<g>
	<g>
		<path d="M773-212.3c-0.2,2-0.4,4.1-0.5,6.1s0,4.1,0.1,6.1c0.1,2,0.4,4,1,5.9c0.3,0.9,0.6,1.9,1,2.7c0.2,0.4,0.5,0.9,0.7,1.2
			c0.3,0.4,0.6,0.7,0.9,1c1.4,1.3,3.1,2.2,5,3c1.8,0.8,3.7,1.4,5.7,1.9c1.9,0.5,3.9,1,5.9,1.3c2,0.4,4,0.7,6,0.9l-0.2,2
			c-1.9-0.3-3.6-0.7-5.4-1.1c-1.8-0.4-3.6-0.9-5.3-1.6c-1.8-0.6-3.5-1.3-5.1-2.2c-1.6-0.9-3.3-2-4.5-3.6c-0.3-0.4-0.6-0.9-0.8-1.3
			c-0.2-0.5-0.3-0.9-0.5-1.3c-0.3-0.9-0.5-1.8-0.8-2.7c-0.4-1.8-0.7-3.6-0.8-5.5c-0.1-1.9,0-3.7,0.3-5.5c0.3-1.8,0.9-3.6,2-5.1
			c-0.9,1.6-1.3,3.4-1.5,5.2c-0.2,1.8-0.1,3.6,0.2,5.4c0.2,1.8,0.6,3.5,1.1,5.2c0.3,0.9,0.5,1.7,0.9,2.5c0.2,0.4,0.3,0.9,0.5,1.2
			c0.2,0.4,0.4,0.7,0.6,1c1,1.3,2.5,2.2,4.1,3c1.6,0.8,3.2,1.4,4.9,2c1.7,0.5,3.4,1,5.2,1.4c1.7,0.4,3.5,0.8,5.3,1l-0.2,2
			c-2.1-0.2-4.1-0.5-6.2-0.9c-2-0.4-4.1-0.9-6.1-1.4c-2-0.6-4-1.2-5.9-2.1c-1-0.4-1.9-0.9-2.8-1.5c-0.9-0.6-1.8-1.2-2.6-2
			c-0.4-0.4-0.8-0.9-1.1-1.3c-0.3-0.5-0.6-1-0.8-1.5c-0.5-1-0.8-2-1-3c-0.5-2.1-0.6-4.2-0.7-6.2c0-2.1,0.1-4.1,0.4-6.2
			C772.2-208.3,772.6-210.3,773-212.3z"/>
	</g>
</g>
<g>
	<path d="M689.4-134.1l-10.1,13.6c0,0,14,4.9,19.9,9.2c5.9,4.3,11.9,6.2,11.9,9.8l8.9-11c0,0-6.2,2.4-9.6-12.1
		c0,0-13.5,1.1-16.6-11.1C693.7-135.7,692.3-133.6,689.4-134.1z"/>
</g>
<g>
	<path d="M725.3-121.5c0,0,1.5,1.1,2.8,4.9s2,7.5,4.5,8c0,0-0.5,1.4,0,4.4s3.2,5.1,2.9,7.5c0,0,16,7.6,16,12.9
		c0,0,22.8,0.6,12.5,14.6c0,0-2.9,0.5-1.6,2.2s6,1.3,5.6-0.6c0,0,7.5-7.6,15-5.8s6.4,7.5,6.4,7.5s13.4-1.3,16.4,5.3
		c0,0,10.9-8.9,14.9-4.2c0,0-15.5,10.6-23.6,10.6c-8.1,0-16.8-5.6-23-7.1c-6.2-1.5-12-1-14.6-2.9s-2.1-2.4-5.8-5.6
		s-16.5-11.6-20.6-15.4c-4.1-3.8-7.1-11.4-7.6-22.5s-0.8-12.1-0.8-12.1L725.3-121.5z"/>
</g>
<g>
	<g>
		<path d="M780.6,49.9c-0.1,1.3-0.3,2.5-0.6,3.8c-0.3,1.3-0.6,2.5-1,3.7c-0.1,0.3-0.2,0.6-0.4,0.9c-0.1,0.3-0.2,0.6-0.4,0.9
			c-0.1,0.3-0.3,0.6-0.4,0.9l-0.5,0.8c-0.2,0.3-0.4,0.5-0.5,0.8c-0.2,0.3-0.4,0.5-0.6,0.8c-0.2,0.2-0.4,0.5-0.7,0.7l-0.7,0.7v-0.2
			l2.9,2.1h-0.2l0.8-0.5l0.7-0.6c0.2-0.2,0.4-0.5,0.7-0.7c0.2-0.2,0.4-0.5,0.6-0.8s0.4-0.6,0.5-0.8c0.2-0.3,0.3-0.6,0.5-0.9
			c0.3-0.6,0.6-1.2,0.8-1.8c0.5-1.2,0.9-2.5,1.2-3.8c0.2-0.6,0.3-1.3,0.4-1.9l0.2-1c0.1-0.3,0.1-0.7,0.1-0.9v-0.5l0.4,0.2l8,4.9
			l0.4,0.2l-0.3,0.3c-1.9,1.8-3.7,3.6-5.4,5.5c-0.9,0.9-1.7,1.9-2.5,2.9c-0.4,0.5-0.8,1-1.1,1.5c-0.2,0.3-0.3,0.5-0.4,0.8
			c-0.1,0.3-0.2,0.6-0.2,0.7l-0.2-0.2l4.7,3.2l-0.6,0.1c1.3-2,2.7-3.9,4.2-5.8c0.8-0.9,1.5-1.8,2.4-2.7c0.4-0.4,0.9-0.8,1.4-1.2
			c0.3-0.2,0.5-0.4,0.8-0.5s0.7-0.3,1.1-0.2h0.1h0.1l3.5,2l0.8,0.5l-0.9,0.4c-1.1,0.4-2.2,1-3.2,1.6s-2,1.3-2.9,2.1
			c-0.9,0.8-1.7,1.7-2.5,2.6c-0.4,0.5-0.7,1-1.1,1.5c-0.2,0.2-0.3,0.5-0.5,0.8c-0.1,0.3-0.3,0.5-0.4,0.8l-0.1-0.5l2.1,2.7h-0.8
			c0.4-0.7,0.9-1.3,1.4-1.9s1-1.2,1.5-1.7c1.1-1.1,2.3-2.1,3.6-2.8c0.7-0.4,1.4-0.7,2.2-0.9c0.4-0.1,0.8-0.2,1.2-0.2
			c0.4-0.1,0.8-0.1,1.2-0.1s0.8,0.1,1.2,0.1c0.4,0.1,0.8,0.2,1.1,0.3c0.4,0.1,0.7,0.3,1.1,0.5c0.4,0.2,0.7,0.4,1,0.6l0.1,0.1
			l0.1,0.1l1.9,3.8l0.7,1.3l-1.3-0.7c-0.6-0.3-1.2-0.5-1.8-0.7s-1.3-0.3-1.9-0.4l-1-0.1h-1l-1,0.1c-0.3,0-0.6,0.2-1,0.2
			c-0.3,0.1-0.6,0.2-0.9,0.3c-0.3,0.1-0.6,0.2-0.9,0.4l-0.9,0.5l-0.8,0.6c-0.3,0.2-0.5,0.4-0.8,0.6l-0.7,0.7
			c-0.2,0.2-0.4,0.5-0.6,0.8l-0.6,0.8v-0.6c0.2,0.2,0.4,0.5,0.5,0.7c0.2,0.3,0.3,0.5,0.4,0.8c0.2,0.6,0.4,1.3,0.1,1.9l-0.6-0.6
			c0.7-0.3,1.4-0.6,2.1-0.8c0.7-0.2,1.5-0.4,2.2-0.4c0.4-0.1,0.7-0.1,1.1-0.1c0.4,0,0.8,0,1.1,0c0.4,0,0.8,0.1,1.1,0.1
			c0.4,0.1,0.8,0.1,1.1,0.3c0.4,0.1,0.7,0.2,1.1,0.4c0.3,0.2,0.7,0.4,1,0.6l0.9,0.7c0.3,0.2,0.5,0.6,0.8,0.8
			c0.2,0.3,0.5,0.6,0.7,0.9l0.6,1c0.2,0.3,0.3,0.7,0.5,1l0.4,1l0.1,0.1l-0.1,0.2l-2.3,5.9l-0.3,0.7l-0.4-0.7
			c-0.7-1.1-1.5-2.2-2.3-3.2c-0.9-1-1.9-1.9-3-2.6c-0.3-0.2-0.6-0.3-0.9-0.5c-0.3-0.1-0.6-0.3-0.9-0.4c-0.6-0.2-1.3-0.4-1.9-0.5
			s-1.3-0.2-2-0.2c-0.3,0-0.7,0-1,0.1s-0.6,0.1-0.9,0.2l0.1-0.2l-2.9,7.1l-0.2-0.4c1.2,0.1,2.4,0.4,3.5,0.8c0.6,0.2,1.1,0.4,1.7,0.6
			c0.6,0.2,1.1,0.5,1.6,0.8s1,0.6,1.5,1c0.3,0.2,0.5,0.4,0.7,0.6s0.5,0.4,0.7,0.6l0.6,0.7c0.2,0.2,0.4,0.5,0.6,0.7s0.4,0.5,0.5,0.7
			l0.4,0.8v0.1l-0.1,0.1l-4.6,5.5v0.1h-0.1l-8.7-4.7l8.7,4.5h-0.1l4.5-5.5V99l-0.4-0.8c-0.1-0.3-0.3-0.5-0.5-0.7s-0.3-0.5-0.5-0.7
			l-0.6-0.6c-0.2-0.2-0.4-0.4-0.7-0.6c-0.2-0.2-0.5-0.4-0.7-0.5c-0.5-0.3-1-0.6-1.5-0.9s-1-0.5-1.6-0.7c-0.5-0.2-1.1-0.4-1.7-0.6
			c-1.1-0.3-2.3-0.6-3.4-0.7h-0.4l0.1-0.3l2.8-7.1v-0.1h0.1c0.4-0.2,0.7-0.2,1.1-0.3c0.4-0.1,0.7-0.1,1.1-0.1c0.7,0,1.4,0.1,2.1,0.2
			c0.7,0.1,1.4,0.3,2,0.6c0.3,0.1,0.7,0.2,1,0.4c0.3,0.1,0.6,0.3,0.9,0.5c1.2,0.7,2.3,1.7,3.2,2.7s1.8,2.1,2.5,3.3h-0.7l2.2-5.9v0.3
			l-0.4-1c-0.1-0.3-0.2-0.7-0.4-1l-0.5-0.9c-0.2-0.3-0.4-0.6-0.6-0.8c-0.2-0.2-0.4-0.6-0.7-0.8l-0.8-0.6c-0.3-0.2-0.6-0.3-0.9-0.5
			s-0.6-0.3-1-0.4c-0.3-0.1-0.7-0.2-1-0.3c-0.3-0.1-0.7-0.1-1-0.1s-0.7-0.1-1,0c-0.3,0-0.7,0-1,0.1c-0.7,0.1-1.4,0.2-2.1,0.4
			c-0.7,0.2-1.4,0.4-2,0.7l-1,0.5l0.4-1c0.1-0.4,0.1-0.8-0.1-1.3c-0.1-0.2-0.2-0.4-0.3-0.7c-0.1-0.2-0.3-0.4-0.4-0.6l-0.3-0.3
			l0.2-0.3l0.7-0.8c0.2-0.3,0.4-0.6,0.7-0.8l0.8-0.8c0.2-0.3,0.5-0.5,0.8-0.7l0.9-0.6l0.9-0.5c0.3-0.2,0.6-0.3,1-0.4
			c0.3-0.1,0.7-0.3,1-0.4c0.4-0.1,0.7-0.2,1.1-0.2c0.4,0,0.7-0.1,1.1-0.1h1.1l1.1,0.1c0.7,0.1,1.4,0.2,2.1,0.4
			c0.7,0.2,1.3,0.5,2,0.8l-0.7,0.6l-1.9-3.7l0.2,0.2c-0.3-0.2-0.6-0.4-0.9-0.5c-0.3-0.2-0.6-0.3-1-0.4c-0.3-0.1-0.7-0.2-1-0.3
			c-0.3-0.1-0.7-0.1-1-0.1c-0.3,0-0.7,0-1,0.1c-0.3,0-0.7,0.1-1,0.2c-0.7,0.2-1.3,0.5-2,0.8c-1.3,0.7-2.4,1.6-3.4,2.6
			c-0.5,0.5-1,1.1-1.5,1.6c-0.5,0.6-0.9,1.2-1.3,1.7l-0.4,0.6l-0.4-0.5l-2.1-2.8l-0.2-0.2l0.1-0.2c0.1-0.3,0.3-0.6,0.5-0.9
			s0.3-0.5,0.5-0.8c0.4-0.5,0.7-1,1.1-1.5c0.8-1,1.6-1.9,2.6-2.7c1-0.8,2-1.6,3.1-2.2c1.1-0.6,2.2-1.2,3.4-1.7l-0.1,0.8l-3.5-2
			l0.1,0.1c-0.3-0.1-0.8,0.2-1.3,0.5c-0.4,0.3-0.9,0.7-1.3,1.1c-0.8,0.8-1.6,1.7-2.3,2.6c-1.5,1.8-2.9,3.7-4.2,5.7l-0.2,0.4
			l-0.4-0.2l-4.7-3.2l-0.1-0.1V69c-0.1-0.5,0.1-0.9,0.2-1.2c0.1-0.3,0.3-0.6,0.5-0.9c0.4-0.6,0.8-1.1,1.2-1.6c0.8-1,1.7-2,2.6-2.9
			c1.8-1.9,3.6-3.7,5.5-5.5l0.1,0.5l-8-5l0.4-0.2c0,0.4-0.1,0.7-0.1,1l-0.2,1c-0.1,0.7-0.3,1.3-0.5,2c-0.3,1.3-0.8,2.6-1.3,3.8
			c-0.3,0.6-0.5,1.2-0.8,1.8c-0.1,0.3-0.3,0.6-0.5,0.9s-0.3,0.6-0.5,0.9s-0.4,0.6-0.6,0.8c-0.2,0.3-0.4,0.5-0.7,0.8l-0.8,0.7
			l-0.9,0.5h-0.1l-0.1-0.1l-2.9-2.2l-0.1-0.1l0.1-0.1l0.7-0.6c0.2-0.2,0.4-0.5,0.6-0.7s0.4-0.5,0.6-0.7c0.2-0.3,0.4-0.5,0.5-0.8
			l0.5-0.8c0.2-0.3,0.3-0.6,0.4-0.8c0.1-0.3,0.3-0.6,0.4-0.9c0.1-0.3,0.3-0.6,0.4-0.9c0.5-1.2,0.8-2.4,1.1-3.7
			C780.2,52.4,780.5,51.2,780.6,49.9z"/>
	</g>
</g>
<g>
	<g>
		<path d="M772.8,122.9c0,0-0.2,0.1-0.7,0.1c-0.4,0.1-1.1,0.2-1.9,0.3c-0.8,0.1-1.9,0.1-3,0c-1.2-0.1-2.5-0.3-3.9-0.8
			s-2.9-1.2-4.2-2.4c-0.3-0.3-0.6-0.6-1-0.9c-0.3-0.3-0.6-0.6-0.9-0.9c-0.6-0.7-1.2-1.4-1.7-2.1c-1.1-1.4-2.2-3-3-4.8
			c-0.4-0.9-0.7-1.9-0.9-3c-0.1-0.5-0.1-1.1,0-1.7c0.1-0.3,0.1-0.6,0.3-0.9l0.1-0.2c0.1-0.1,0.1-0.1,0.1-0.2l0.2-0.3
			c0.6-0.9,1.3-1.6,2-2.3c0.7-0.7,1.6-1.3,2.5-1.8s1.9-0.8,3-0.9s2.2,0.2,3.1,0.7c0.4,0.3,0.9,0.5,1.2,0.9l0.5,0.5l0.4,0.5
			c0.6,0.6,1.1,1.2,1.7,1.8c1.1,1.1,2.2,2,3.5,2.4c1.2,0.4,2.5,0.2,3.6,0c0.5-0.2,1-0.3,1.5-0.5s0.9-0.3,1.3-0.5
			c0.8-0.3,1.3-0.6,1.7-0.8c0.4-0.2,0.6-0.3,0.6-0.3s-0.2,0.1-0.6,0.4c-0.4,0.3-0.9,0.7-1.6,1.1c-0.4,0.2-0.8,0.5-1.2,0.7
			c-0.4,0.3-1,0.5-1.5,0.7c-1.1,0.4-2.5,0.7-4.1,0.4c-1.5-0.3-3-1.3-4.2-2.4c-0.6-0.6-1.2-1.2-1.8-1.8l-0.5-0.5L763,103
			c-0.3-0.3-0.6-0.4-0.9-0.6c-0.7-0.3-1.4-0.5-2.1-0.4s-1.5,0.4-2.2,0.8c-1.4,0.8-2.8,2.1-3.7,3.5l-0.2,0.3l-0.1,0.1v0.1
			c-0.1,0.1-0.1,0.3-0.1,0.4c-0.1,0.3-0.1,0.7,0,1.1c0.1,0.8,0.4,1.6,0.7,2.4c0.7,1.6,1.6,3.1,2.7,4.5c0.5,0.7,1,1.4,1.5,2
			c0.3,0.3,0.5,0.7,0.8,1s0.5,0.6,0.8,0.8c1.1,1.1,2.3,1.9,3.6,2.4c2.5,1.1,4.9,1.4,6.5,1.5C771.8,123,772.8,122.9,772.8,122.9z"/>
	</g>
</g>
<g>
	<g>
		<path d="M776.7,108.2c0,0-0.5,0.1-1.4,0.4c-0.4,0.2-0.9,0.4-1.4,0.7c-0.5,0.3-1,0.8-1.1,1.5c-0.1,0.6,0.4,1.4,1,2
			c0.5,0.7,1.2,1.3,1.9,2s1.5,1.3,2.2,1.9c0.8,0.6,1.6,1.2,2.5,1.7s1.8,1,2.7,1.4c0.5,0.2,0.9,0.4,1.4,0.6s0.9,0.3,1.4,0.4
			c0.9,0.2,1.8,0.4,2.7,0.4c0.9,0,1.7,0,2.5,0c1.6,0,2.9-0.1,3.8-0.2c0.5,0,0.8-0.1,1-0.1s0.4-0.1,0.4-0.1s-0.1,0.1-0.3,0.1
			c-0.2,0.1-0.6,0.2-1,0.3c-0.9,0.2-2.2,0.4-3.8,0.5c-0.8,0.1-1.6,0.1-2.5,0.2c-0.9,0-1.9,0-2.9-0.3c-0.5-0.1-1-0.2-1.5-0.4
			c-0.5-0.1-1-0.3-1.5-0.6c-1-0.4-1.9-0.9-2.8-1.5s-1.8-1.2-2.6-1.8c-0.8-0.7-1.6-1.3-2.3-2.1c-0.7-0.7-1.3-1.4-1.9-2.2
			c-0.3-0.4-0.5-0.7-0.7-1.2c-0.2-0.4-0.3-0.9-0.2-1.3c0.1-1,0.9-1.4,1.4-1.7c0.6-0.3,1.1-0.5,1.6-0.6
			C776.1,108.2,776.7,108.2,776.7,108.2z"/>
	</g>
</g>
<g>
	<path d="M792.6,127.3c-0.2,0-5.8-0.2-9.1-1c-3.6-0.9-12-8.7-14.1-11c-1-1.1-1.4-2-1.1-2.7c0.3-0.8,1.3-1,1.4-1l0.1,1l-0.1-0.5
		l0.1,0.5c-0.1,0-0.5,0.1-0.6,0.4c0,0.1-0.1,0.6,0.9,1.7c2.7,2.9,10.7,10,13.7,10.8c3.2,0.8,8.8,1,8.9,1L792.6,127.3z"/>
</g>
<g>
	<g>
		<path d="M789,129.6c0,0-0.4-0.1-1.1-0.2c-0.7-0.2-1.6-0.4-2.8-0.7c-1.1-0.3-2.4-0.7-3.8-1.3c-1.4-0.5-2.8-1.2-4.3-1.8
			c-1.4-0.7-2.8-1.5-4-2.3c-0.6-0.4-1.2-0.8-1.7-1.3s-1-1-1.3-1.5c-0.1-0.3-0.2-0.6-0.2-1c0.1-0.3,0.2-0.5,0.3-0.8
			c0.2-0.4,0.4-0.8,0.7-1.1c0.4-0.6,0.7-0.8,0.7-0.8s-0.3,0.3-0.6,0.9c-0.2,0.3-0.3,0.7-0.5,1.1c-0.1,0.2-0.1,0.5-0.1,0.7
			s0.1,0.4,0.2,0.6c0.3,0.4,0.7,0.9,1.3,1.2c0.5,0.4,1.1,0.7,1.7,1.1c1.2,0.7,2.6,1.4,4,2.1c1.4,0.7,2.8,1.3,4.1,1.9
			s2.6,1.1,3.7,1.6C787.6,129.1,789,129.6,789,129.6z"/>
	</g>
</g>
<g>
	<g>
		<path d="M790.3,92.2c0,0-0.1,0.5-0.3,1.4c-0.2,0.9-0.5,2.1-1.1,3.5c-0.5,1.4-1.2,3.1-2.2,4.8c-0.5,0.8-1.1,1.7-2,2.4
			c-0.8,0.7-2,1.2-3.2,0.9c-1-0.3-2-0.5-3-1c-0.2-0.1-0.5-0.3-0.8-0.6c-0.3-0.3-0.3-0.8-0.2-1.1c0.1-0.6,0.3-1,0.3-1.4v-0.2l0,0
			v-0.1l0,0v-0.1c0-0.1,0-0.2,0.1-0.4c0.1-0.1,0.1-0.3,0.2-0.4l0.3-0.3c0.4-0.4,0.8-0.7,1.2-0.9c0.8-0.4,1.7-0.6,2.6-0.5
			c0.4,0,0.8,0.1,1.2,0.3c0.3,0.2,0.6,0.5,0.8,0.8c0.2,0.3,0.2,0.6,0.3,0.8c0.1,0.3,0.1,0.5,0.2,0.7c0.1,0.4,0.1,0.8,0,1.1
			c-0.1,0.2-0.3,0.3-0.2,0.3c0,0,0.1,0,0.2-0.3c0.1-0.2,0-0.6-0.1-1c-0.1-0.2-0.1-0.4-0.2-0.7c-0.1-0.2-0.2-0.5-0.4-0.7
			c-0.3-0.5-0.9-0.7-1.6-0.7s-1.5,0.2-2.2,0.6c-0.4,0.2-0.7,0.5-0.9,0.8l-0.2,0.2c0,0.1-0.1,0.1-0.1,0.2s0,0.2-0.1,0.3v0.1l0,0
			c0-0.1,0,0,0,0l0,0v0.2c0,0.5-0.2,1.1-0.3,1.4c0,0.2,0,0.2,0.1,0.3c0.1,0.1,0.2,0.2,0.5,0.3c0.8,0.4,1.8,0.7,2.8,0.9
			c0.8,0.2,1.7-0.1,2.4-0.7c0.7-0.6,1.3-1.3,1.8-2.1c1-1.5,1.8-3.1,2.4-4.5s1.1-2.6,1.4-3.4C790.1,92.6,790.3,92.2,790.3,92.2z"/>
	</g>
</g>
<g>
	<path d="M786.4,83.5c-5.9-0.3-11.5,4.9-13.9,8.6c-2.4,3.8-1.3,14.5-1.3,14.5s4.2-0.6,5.2-2s0.7-4.4,1.5-7.4
		c0.9-3,3.7-12.2,8.5-11.2s3.9,2.4,3.9,2.4l1.5-3C791.8,85.4,791.8,83.8,786.4,83.5z"/>
</g>
<g>
	<path d="M806.7,93.6l-6.2,9c0,0,5.2-0.2,5.4,2.1c0.1,2.3-1.1,6.7-1.1,6.7l-3.1,1.6c0,0,0.1,5.4-3.1,6.4l-2.2,2.3
		c0,0,0.1,3.9-2.6,5.1c0,0-2.1,3.6-4.5,3.5c0,0,1.2,2.6,5.4,0c4.1-2.6,8.8-4.8,9.1-6c0.3-1.2,4.8-5.1,5.2-6.9s1.2-4.1,2.6-4.9
		s-0.2-3,0-5.3s3.9-6.4,1.5-8.8S806.7,93.6,806.7,93.6z"/>
</g>
<g>
	<g>
		<path d="M799.4,103.9c0,0-0.5,0.5-1.5,1.1s-2.5,1.6-4.6,2.2c-1,0.3-2.1,0.5-3.4,0.6c-1.2,0.1-2.5,0.1-3.8,0
			c-1.3,0-2.6-0.2-3.6,0.4c-0.5,0.3-0.9,0.8-1.2,1.3s-0.3,1,0,1.5c0.6,1,1.8,1.7,3,2.2s2.5,0.9,3.7,1.1c2.5,0.5,4.9,0.6,6.9,0.5
			c1-0.1,2-0.2,2.8-0.4c0.8-0.2,1.5-0.4,2.1-0.6s1-0.5,1.2-0.6c0.3-0.2,0.4-0.3,0.4-0.3s-0.1,0.1-0.4,0.3c-0.3,0.2-0.7,0.5-1.2,0.7
			c-1.1,0.5-2.8,1.1-4.8,1.3c-2.1,0.2-4.5,0.2-7.1-0.2c-1.3-0.2-2.6-0.5-3.9-1.1c-0.6-0.3-1.3-0.6-1.9-1c-0.6-0.4-1.2-0.9-1.6-1.6
			s-0.4-1.7,0-2.4c0.4-0.7,0.9-1.3,1.5-1.7c0.7-0.4,1.5-0.5,2.2-0.6c0.7,0,1.4,0,2,0.1c1.3,0.1,2.5,0.1,3.7,0.1s2.2-0.2,3.2-0.4
			c2-0.5,3.5-1.2,4.6-1.8C798.8,104.3,799.4,103.9,799.4,103.9z"/>
	</g>
</g>
<g>
	<g>
		<path d="M765,62.8l-6.6,4.5l-6.6,4.5c-2.2,1.5-4.4,3-6.5,4.6c-1.1,0.8-2.1,1.6-3.2,2.4s-2.1,1.6-3.1,2.4c-1,0.9-2,1.7-3,2.6
			s-1.9,1.8-2.9,2.7c-1.9,1.8-3.8,3.7-5.6,5.6c-3.7,3.8-7.4,7.6-10.9,11.5l0.4-0.7c-0.5,2.4-1,4.7-1.5,7.1c-0.3,1.2-0.6,2.3-0.9,3.5
			s-0.7,2.4-1.2,3.6l-0.2,0.5l-0.1,0.1l-0.1,0.1l-0.1,0.2c-0.2,0.4-0.4,0.7-0.9,1.2c-0.2,0.2-0.5,0.5-1.2,0.6
			c-0.3,0.1-0.7,0.1-1.1,0c-0.4-0.1-0.6-0.3-0.8-0.5c-0.7-0.7-0.8-1.1-0.9-1.5c-0.3-0.8-0.3-1.5-0.4-2.2c-0.1-0.7-0.1-1.3-0.1-2
			s0.1-1.3,0.1-2c0.1-0.6,0.2-1.2,0.3-1.9c0.1-0.6,0.2-1.2,0.4-1.9c0.1-0.3,0.2-0.6,0.3-1l0.2-0.5c0.1-0.2,0.1-0.3,0.3-0.6l2.6,2.4
			l-2.2,1.5l0.7-0.9c-0.1,0.4-0.3,1.1-0.4,1.6c-0.1,0.6-0.2,1.2-0.2,1.8c-0.1,0.6-0.1,1.2-0.1,1.8c0,0.6,0,1.2,0.1,1.8l0.1,0.9
			l0.2,0.9c0.1,0.6,0.3,1.1,0.5,1.7c0.2,0.5,0.4,1.1,0.7,1.6c0.3,0.5,0.5,1,0.8,1.5c0.3,0.5,0.6,1,1,1.4c0.4,0.5,0.7,0.9,1.2,1.4
			c0.9,1,1.8,1.9,2.7,2.7c0.9,0.9,1.8,1.8,2.8,2.5c0.5,0.4,0.9,0.8,1.4,1.1c0.2,0.2,0.5,0.3,0.7,0.5c0.1,0.1,0.2,0.1,0.3,0.2h0.1
			c0,0,0.1,0-0.2,0l-1,0.1c6-2.3,12-4.5,18.1-6.6c1.5-0.5,3.1-1,4.6-1.5l2.2-0.7l2.3-0.8c3-1.1,6-2.2,9-3.3l-0.8,3
			c-0.5-0.7-1-1.3-1.5-2s-0.9-1.3-1.4-2c-0.9-1.4-1.7-2.8-2.5-4.3c-0.4-0.8-0.7-1.5-1-2.3c-0.2-0.4-0.3-0.8-0.5-1.2
			c-0.1-0.4-0.3-0.8-0.4-1.3c-0.2-0.9-0.4-1.8-0.4-2.8v-0.8v-0.1v-0.2l0,0l0,0l0,0v-0.1l0.1-0.3c0.1-0.3,0.3-0.6,0.4-0.9
			c0.2-0.3,0.3-0.4,0.4-0.7c0.6-0.8,1.2-1.4,1.9-2s1.4-1.1,2.1-1.6c0.7-0.5,1.5-0.9,2.3-1.2c0.8-0.3,1.7-0.7,2.7-0.8
			c0.5-0.1,1-0.1,1.6-0.1c0.6,0.1,1.1,0.1,1.7,0.4l0.4,0.2l0.3,0.1l0.5,0.3l1.1,0.6c0.7,0.4,1.4,0.8,2.1,1.3c0.7,0.4,1.3,0.9,2,1.4
			l0.1,0.1l0.1,0.1l2.7,2.9l-2.7,1.2c0-1.4,0-2.7,0-4s0.1-2.7,0.2-4c0.1-1.3,0.3-2.7,0.5-4c0.1-0.3,0.1-0.7,0.2-1
			c0.1-0.3,0.2-0.7,0.3-1.1c0.2-0.7,0.8-1.6,1.2-2l0.8-0.8l0.7-0.7c0.5-0.5,1-0.9,1.5-1.3c1-0.9,2-1.7,3.1-2.5
			c2.1-1.6,4.2-3.2,6.3-4.7l-0.2,0.1c0.2-0.2,0.4-0.4,0.6-0.6c0.2-0.2,0.4-0.5,0.5-0.7c0.3-0.5,0.7-1,0.9-1.5c0.3-0.5,0.5-1,0.7-1.5
			c0-0.1,0.1-0.3,0.1-0.4s0.1-0.2,0.1-0.4c0-0.2,0-0.5,0-0.7l0.4,0.5c-2.1-1.6-4.2-3.2-6.4-4.7c-1.1-0.8-2.2-1.5-3.2-2.3l-1.6-1.1
			c-0.5-0.3-1.1-0.7-1.6-1c-0.4-0.2-1-0.1-1.6,0.1c-0.6,0.2-1.1,0.5-1.7,0.8c-1.1,0.7-2.2,1.5-3.4,2.1c-0.3,0.1-0.6,0.3-1,0.3
			c-0.4,0.1-0.8,0-1.1-0.3c-0.1-0.1-0.3-0.3-0.3-0.5c-0.1-0.2-0.2-0.3-0.2-0.5c-0.1-0.3-0.2-0.7-0.2-1
			C763.9,65.2,764.3,63.9,765,62.8z M765,62.8c-0.6,1.2-1,2.5-0.8,3.8c0,0.3,0.1,0.6,0.3,0.9c0.1,0.3,0.3,0.6,0.5,0.8
			c0.4,0.4,1.1,0.1,1.6-0.2c1.1-0.6,2.1-1.5,3.3-2.2c0.6-0.4,1.1-0.7,1.8-1c0.7-0.3,1.5-0.5,2.3-0.2c0.7,0.3,1.3,0.6,1.9,1l1.7,1
			c1.1,0.7,2.3,1.4,3.4,2.1c2.2,1.4,4.5,2.9,6.7,4.4l0.3,0.2l0.1,0.3c0.1,0.4,0.1,0.8,0.1,1.2c0,0.2,0,0.4-0.1,0.6
			c0,0.2-0.1,0.4-0.1,0.5c-0.2,0.7-0.4,1.3-0.7,1.9c-0.3,0.6-0.6,1.2-1,1.7c-0.2,0.3-0.4,0.5-0.6,0.8s-0.4,0.5-0.6,0.8l-0.1,0.1
			l-0.1,0.1c-2,1.6-4.1,3.2-6.1,4.9c-1,0.8-2,1.7-2.9,2.5c-0.5,0.4-0.9,0.9-1.4,1.3l-0.6,0.7l-0.5,0.6c-0.5,0.6-0.6,0.7-0.8,1.3
			c-0.1,0.2-0.2,0.5-0.2,0.8c-0.1,0.3-0.1,0.6-0.2,0.9c-0.2,1.2-0.3,2.4-0.4,3.7c-0.1,1.3-0.1,2.5-0.1,3.8s0,2.6,0.1,3.8l0.2,4.2
			l-2.9-3l-2.8-2.8l0.3,0.2c-0.6-0.4-1.3-0.8-1.9-1.2c-0.7-0.4-1.3-0.8-2-1.2l-1-0.6l-0.5-0.3l-0.3-0.1h-0.1
			c-0.3-0.2-0.8-0.2-1.4-0.1s-1.2,0.3-1.8,0.6c-0.6,0.3-1.2,0.6-1.8,1c-0.6,0.4-1.2,0.8-1.7,1.3s-1,1-1.3,1.4
			c-0.1,0.1-0.2,0.3-0.2,0.3c0,0.1,0,0-0.1,0.1l-0.1,0.3v0.1l0,0l0,0l0,0c0,0,0.1-0.4,0-0.2v0.1v0.4c0,0.5,0.1,1.2,0.3,1.8
			c0.1,0.3,0.2,0.7,0.3,1c0.1,0.3,0.2,0.7,0.4,1c0.3,0.7,0.6,1.3,0.9,2c0.4,0.7,0.7,1.3,1.1,2c0.4,0.6,0.8,1.3,1.2,1.9
			c0.4,0.6,0.9,1.3,1.3,1.9c0.4,0.6,0.9,1.2,1.4,1.8l1.6,2.1l-2.4,1c-3,1.2-6,2.3-9.1,3.4l-2.3,0.8l-2.3,0.8c-1.5,0.5-3,1-4.5,1.5
			c-6,2.1-12.1,4.3-18.1,6.5l-0.6,0.2l-0.5-0.1c-0.5-0.1-0.5-0.1-0.7-0.2l-0.3-0.2c-0.2-0.1-0.4-0.2-0.6-0.3
			c-0.3-0.2-0.7-0.4-0.9-0.6c-0.6-0.4-1.1-0.9-1.7-1.3c-1-0.9-2-1.8-3-2.8c-0.9-0.9-1.9-1.9-2.8-2.9c-0.4-0.4-0.9-1.1-1.4-1.6
			s-0.8-1.2-1.2-1.8c-0.4-0.6-0.7-1.3-1-1.9c-0.3-0.7-0.6-1.3-0.8-2c-0.2-0.7-0.4-1.4-0.5-2.1L706,117l-0.1-1.1
			c-0.1-0.7-0.1-1.4-0.1-2.1s0-1.4,0.1-2.1c0.1-0.7,0.2-1.4,0.3-2.1s0.3-1.4,0.5-2.2l0.2-0.6l0.5-0.3l2.3-1.5l2.6,2.4
			c0-0.1-0.1,0.1-0.1,0.2l-0.1,0.3c-0.1,0.2-0.2,0.5-0.2,0.8c-0.1,0.5-0.3,1.1-0.4,1.6c-0.1,0.6-0.2,1.1-0.3,1.7
			c-0.1,0.5-0.1,1.1-0.1,1.6s0,1.1,0,1.6s0.1,1,0.2,1.4c0,0.2,0.2,0.3-0.1,0c-0.1-0.1-0.2-0.2-0.4-0.2c-0.2-0.1-0.5-0.1-0.6,0
			c-0.3,0.1-0.4,0.2-0.4,0.2s0.1-0.2,0.2-0.3l0.1-0.2c0,0,0.1-0.1,0-0.1v-0.1l0.2-0.3c0.4-1,0.8-2.1,1.2-3.2c0.4-1.1,0.7-2.2,1-3.4
			c0.6-2.3,1.2-4.6,1.7-6.9l0.1-0.4l0.3-0.3c3.7-3.9,7.5-7.6,11.4-11.3c1.9-1.8,3.9-3.6,5.9-5.4c1-0.9,2-1.8,3-2.6
			c1-0.9,2.1-1.7,3.2-2.5s2.2-1.6,3.3-2.3c1.1-0.7,2.2-1.5,3.3-2.2c2.2-1.4,4.5-2.9,6.8-4.3s4.5-2.8,6.8-4.1L765,62.8z"/>
	</g>
</g>
<g>
	<path d="M712.7-101.5c0,0,8.5,18.2,18.2,27.5s19.2,20.8,24.3,20.8c5.2,0,22.8-2.6,29-1.1s17,3.3,28.5-4.2s14.5-7,14.5-7
		s-0.5,5.7,0,6.8c0,0-5.3,9.2-6.8,17.7s-11,34.8-11,34.8s-7.5-1.8-15.8,0s-12.2,3.5-12.2,3.5L778.2-5c0,0,15-2.7,22.2-5.2
		s10.5-4,10.3-6.7c0,0-8-1.7-14.5-0.7c0,0-7.2,6.7-10.5,6.5s-6.8-0.8-6.8-0.8s-10.8,6.3-12.5,8c0,0,3.8,3.7,6,1.2
		c0,0-0.6,4.7,2.1,5.3c0,0-5.6,3.3-7.7,6.8c0,0-0.3-7.7-0.3-10.5c0-2.8-3.3-0.5-3.3-0.5s-9,8.3-8.7,19l4-1c0,0,2.2,4,3.8,2.3
		c0,0-1.7,7.3-1,11.3l-6.2-11.2l-0.8,7.8c0,0-6.3-12.2-8.7-19.2c-2.3-7-5.8-35.5-8-38.5c-2.2-3-11.3,6.2-15.7,10.8
		c-4.3,4.7-16.5,30.5-16.5,30.5l-7-4.3c0,0,5-3.3,1.8-8.3c-3.2-5-15.8-16.8-15.8-16.8s-7.3,8.7-10.2,8.8l-4.2-1.7
		c0,0-0.8-6.7-5.3-9.3l4-1.3c0,0,6.5,3.3,7.2,6.7c0,0,1.2-3.2-2.8-8.3l2.8-0.2L664.7-29c0,0,7.2-15,10-20.5
		C677.5-55,712.7-101.5,712.7-101.5z"/>
</g>
<g>
	<path d="M723.8-166.6c0,0-3.4,1.8-5.6,0c0,0,0.4,3.8-0.9,4.6c0,0,4.9-1.6,6.5,0.9C723.8-161.1,722-164.6,723.8-166.6z"/>
</g>
<g>
	<path d="M707.3-153.8c0,0-2.6,3.2-4.6,2.9c0,0,1,1.9,0,3.1c0,0,3.2-1.8,4.6-0.9C707.3-148.7,706.5-152,707.3-153.8z"/>
</g>
<g>
	<path d="M722.2-140.1c0,0-3.1,2.4-8-1.8c0,0,3.4,6.2,2.4,8.8c0,0,5.4-0.9,6.4,1.4C722.9-131.7,721.9-138.5,722.2-140.1z"/>
</g>
<g>
	<path d="M730.8-131.7c0,0,0.4,4.6-1.4,6.6c0,0,3.8-0.5,3.1-5L730.8-131.7z"/>
</g>
<g>
	<path d="M729.4-154.7c0,0,1.1,7.2,0,8.4c0,0,1.4,1.8,1.6,2.4c0.2,0.6,0.5-5.4,0.5-5.4L729.4-154.7z"/>
</g>
<g>
	<path d="M825-51.6c0,0-2.6,5.9-3.4,10.1c-0.8,4.2-2.4,8.4-2.4,8.4s25.5,11.8,32.2,10.2c0,0,2-7.1,3.4-10.4s3.4-9.2,3.4-9.2
		s-10,8-17.4-4.9C840.9-47.4,826.7-41.6,825-51.6z"/>
</g>
<g>
	<path d="M868.9-86.2c0,0,0.8,4.4-2.6,5.5c0,0,2.8,0.8,2.7,2.9c0,0-0.8-3.9,2.1-5C871-82.8,869.8-83.8,868.9-86.2z"/>
</g>
<g>
	<path d="M850.7-80.6c0,0,0.1,5.1-4.5,6.5l9.5-2.6C855.7-76.7,851.3-79.4,850.7-80.6z"/>
</g>
<g>
	<path d="M847.3-66.1c0,0-1.5,3-6.2,2.6c0,0,4.4,3.5,3.9,5.5c0,0,4.8-3,7-2.6C851.9-60.6,847.3-63.5,847.3-66.1z"/>
</g>
<g>
	<path d="M866.3-64.4c0,0-2,4.1-4.8,4.5c0,0,3.2,2.6,2.4,4.6l2.4-5.8L866.3-64.4L866.3-64.4z"/>
</g>
<g>
	<polygon points="832.3,-67 832.3,-63.7 830.5,-63.7 829.7,-65.4 	"/>
</g>
<g>
	<g>
		<path d="M817.3-92.7c0,0-0.4,1.8-1,4.3c-0.3,1.3-0.7,2.8-1.2,4.4c-0.2,0.8-0.4,1.6-0.7,2.5c-0.2,0.8-0.5,1.7-0.7,2.5
			s-0.5,1.7-0.7,2.5s-0.4,1.7-0.6,2.5c-0.2,0.8-0.3,1.6-0.5,2.3c-0.1,0.7-0.2,1.4-0.3,2.1c-0.1,0.6-0.1,1.2-0.1,1.8c0,0.5,0,1,0,1.4
			s0.1,0.7,0.1,0.9s0.1,0.3,0.1,0.3s-0.1-0.1-0.2-0.3s-0.3-0.5-0.4-0.8c-0.2-0.4-0.3-0.8-0.4-1.4c-0.1-0.5-0.2-1.2-0.2-1.9
			s-0.1-1.4,0-2.2c0-0.8,0.1-1.6,0.2-2.4c0.1-0.8,0.2-1.7,0.4-2.6c0.2-0.9,0.4-1.7,0.6-2.6c0.2-0.9,0.5-1.7,0.8-2.6
			c0.3-0.8,0.6-1.7,0.8-2.4c0.6-1.6,1.2-3,1.8-4.2C816.3-91.2,817.3-92.7,817.3-92.7z"/>
	</g>
</g>
<g>
	<g>
		<path d="M812.1-93.1c0,0-0.5,1.8-1.4,4.3c-0.5,1.3-1,2.7-1.7,4.3c-0.3,0.8-0.7,1.6-1,2.4c-0.4,0.8-0.7,1.6-1.1,2.4
			c-0.4,0.8-0.8,1.6-1.2,2.4c-0.4,0.8-0.8,1.6-1.2,2.3c-0.8,1.5-1.6,2.9-2.3,4c-1.4,2.3-2.5,3.8-2.5,3.8s0.5-1.8,1.4-4.3
			c0.5-1.3,1-2.8,1.7-4.3c0.3-0.8,0.7-1.6,1-2.4c0.4-0.8,0.7-1.6,1.1-2.4c0.4-0.8,0.8-1.6,1.2-2.4c0.4-0.8,0.8-1.6,1.2-2.3
			c0.8-1.5,1.6-2.9,2.3-4C811.1-91.6,812.1-93.1,812.1-93.1z"/>
	</g>
</g>
<g>
	<path d="M861.5-130.5c0,0-4.6,2.1-5.1,2.6s-9.1,8.9-10.9,10.4c-1.8,1.5-8.1,8-8.8,9.2c-0.7,1.2-4.2,4.2-7.1,4.4h-1.8
		c0,0-5.5,28-0.6,36.2c0,0-1-4.2,2.4-3.8s6.1,0.6,6.1,0.6s-3.6-6,3.2-11.3c6.8-5.3,11.1-4.2,11.1-4.2s1.8-14.8,17.1-11.9
		c0,0-1.9-11.7,3.2-8.6C870.4-106.7,866.3-122.6,861.5-130.5z M830.7-94c-1,0-1.9-0.9-1.9-2.1s0.8-2.1,1.9-2.1s1.9,0.9,1.9,2.1
		S831.7-94,830.7-94z M835.6-86.2c-0.6,0-1.1-0.7-1.1-1.6s0.5-1.6,1.1-1.6c0.6,0,1.1,0.7,1.1,1.6S836.2-86.2,835.6-86.2z
		 M845.6-108.6c-0.9,0-1.7-0.9-1.7-2s0.8-2,1.7-2s1.7,0.9,1.7,2S846.5-108.6,845.6-108.6z M851.7-102.1c-1,0-1.8-0.8-1.8-1.8
		s0.8-1.8,1.8-1.8s1.8,0.8,1.8,1.8S852.6-102.1,851.7-102.1z M860.2-122.4c-1.1,0-2-0.6-2-1.4c0-0.8,0.9-1.4,2-1.4s2,0.6,2,1.4
		C862.2-123,861.3-122.4,860.2-122.4z M865-113.5c-0.7,0-1.3-0.8-1.3-1.7s0.6-1.7,1.3-1.7s1.3,0.8,1.3,1.7S865.7-113.5,865-113.5z"
		/>
</g>
<g>
	<ellipse cx="770.1" cy="-166" rx="2" ry="2.2"/>
</g>
<g>
	<ellipse cx="779.8" cy="-164.8" rx="2.3" ry="2"/>
</g>
<g>
	<ellipse cx="759.5" cy="-143.6" rx="1.4" ry="1.8"/>
</g>
<g>
	<path d="M734.9-180.2l1.4,1.2c0,0,3,4.8,0,6.8c0,0,9.2,2.9,7.6,14c-1.6,11.1-9.8,42.6-15.6,38.4l-1.4-0.9l3.6,8.1
		c0,0,5.6,0.2,9.1-2.9c3.5-3,15-25.6,15-25.6c4.9-6.8,10.6-41.4,10.6-41.4C763.3-191.6,734.9-180.2,734.9-180.2z M741.7-180
		c0-0.6,1.3-1.1,2.9-1.1c1.6,0,2.9,0.5,2.9,1.1c0,0.6-1.3,1.1-2.9,1.1C743-178.9,741.7-179.5,741.7-180z M746.5-140.4
		c-0.5,0-0.9-0.8-0.9-1.8s0.4-1.8,0.9-1.8s0.9,0.8,0.9,1.8S747-140.4,746.5-140.4z M748.6-162.8c-1,0-1.8-1-1.8-2.3s0.8-2.3,1.8-2.3
		s1.8,1,1.8,2.3S749.6-162.8,748.6-162.8z M756.7-163.8c-0.8,0-1.4-0.7-1.4-1.5s0.6-1.5,1.4-1.5s1.4,0.7,1.4,1.5
		S757.4-163.8,756.7-163.8z"/>
</g>
<g>
	<ellipse cx="767.1" cy="-178.7" rx="1.3" ry="1.4"/>
</g>
<g>
	<ellipse cx="734.9" cy="-110.2" rx="1.3" ry="1.6"/>
</g>
<g>
	<ellipse cx="740.4" cy="-115.5" rx="1.8" ry="2"/>
</g>
<g>
	<ellipse cx="746.7" cy="-122.4" rx="1.2" ry="1.6"/>
</g>
<g>
	<path d="M736.2-76c0,0,7.2,12.8,13.3,16.1s31.2,3.5,34.8,4.5c0,0-13.9-1.9-23.5-3.6s-16.2-10.8-20.4-13.9
		C736.2-76,736.2-76,736.2-76z"/>
</g>
<g>
	<g>
		<path d="M511.4,216.9c0.2-0.8,0.4-1.3,0.4-1.3S510.9,216.4,511.4,216.9z"/>
	</g>
	<g>
		<path d="M537.5,221.4c-4.4-2-12.5,11.8-12.5,11.8c0.1-4.5,9-12.9,9-12.9s0.8-0.6-2.5-3s-7.4,1.6-7.4,1.6
			c-1.5-2.4-6.6-1.5-10.5-1.5c-1.4,0-2-0.2-2.2-0.5c-0.4,1.6-1.1,4.5-1.4,7.4c0,0.2,0,0.3-0.1,0.5c0.5-2.5,2.9-6.8,5.5-6.9
			c2.6-0.1,4.1,1.2,4,3c-0.1,2.1-1.2,7-3.6,7c-2.4,0-6.2-0.4-5.9-2.8l0,0c-0.8,3.7-4.7,6-6.1,9.5c-1.5,3.8-8.4,17.6-9.2,23.2
			c-0.8,5.6,2.8,14.5,5.4,18.9s12.1,8.6,17.1,9.9s8.2-1.9,8.2-1.9c-4.1,1.1-16.9-5.4-17.8-6.5s1-3.9,1-3.9s17.4,7.8,20.8,7
			c3.4-0.8,3.9-16.9,4-21c0.1-4.1,6.2-21.6,9-27.2s3.4-6.2,3.4-6.2S541.9,223.4,537.5,221.4z M509.9,261c-4.3,0.4-7.8,8.6-7.8,8.6
			l-3.4-4.6c0,0,2.8-5.5,4.5-6.5C504.9,257.5,515.4,260.5,509.9,261z M515.9,234.9c-0.1,2.1-2.6,4.9-6,5s-3.7-1.5-3.2-4.5
			s6-5.9,8-4.1C515.9,232.4,516,232.8,515.9,234.9z"/>
	</g>
</g>
<g>
	<g>
		<path d="M525,196.9c0.2,1.2,0.6,2.4,1.1,3.5c0.1,0.3,0.3,0.5,0.4,0.8c0.2,0.3,0.3,0.5,0.6,0.6c0.5,0.3,1,0.6,1.6,0.9
			c2.2,1,4.5,1.9,6.8,2.8c2.3,0.9,4.6,1.7,6.9,2.5l3.5,1.2c0.6,0.2,1.2,0.4,1.7,0.6l0.9,0.2c0.3,0.1,0.6,0.1,0.8,0.1l-0.4,0.2
			l1.7-3.1l0.3,0.6c-2-0.5-4.1-1.1-6.1-1.8c-1-0.3-2-0.7-3-1.1s-1.9-0.8-2.9-1.3c1,0.4,2,0.7,3,1s2,0.6,3,0.8c2,0.5,4.1,1,6.1,1.5
			l0.5,0.1l-0.2,0.5l-1.6,3.1l-0.1,0.2h-0.2c-0.5,0-0.7-0.1-1-0.2l-0.9-0.2c-0.6-0.2-1.2-0.3-1.8-0.5c-1.2-0.4-2.3-0.7-3.5-1.2
			c-2.3-0.8-4.6-1.7-6.9-2.7c-1.1-0.5-2.3-0.9-3.4-1.5c-1.1-0.5-2.2-1-3.3-1.6c-0.5-0.3-1.1-0.6-1.6-1c-0.3-0.2-0.5-0.5-0.6-0.8
			c-0.1-0.3-0.3-0.6-0.4-0.9C525.4,199.3,525.1,198.1,525,196.9z"/>
	</g>
</g>
<g>
	<g>
		<path d="M520,207.5c0.1,0.6,0.6,1.1,1,1.5c0.5,0.4,1,0.7,1.5,1s1.1,0.5,1.7,0.8c0.6,0.2,1.2,0.4,1.7,0.6c0.6,0.2,1.2,0.3,1.8,0.5
			c0.6,0.2,1.2,0.3,1.8,0.5c1.2,0.4,2.4,0.9,3.6,1.4c0.6,0.2,1.2,0.5,1.7,0.8c0.6,0.3,1.1,0.6,1.7,0.9c0.5,0.3,1.1,0.6,1.6,1
			c0.5,0.3,1.1,0.7,1.6,1.1s1,0.8,1.5,1.2c0.5,0.4,1,0.9,1.4,1.4c0.2,0.2,0.4,0.5,0.7,0.8c0.2,0.3,0.4,0.6,0.6,0.9
			c0.4,0.6,0.7,1.3,0.8,2.2l-1.7-0.7c0.7-0.7,1.3-1.4,1.9-2.1c0.3-0.4,0.6-0.7,0.8-1.1c0.1-0.2,0.2-0.4,0.3-0.5c0-0.1,0-0.1,0.1-0.2
			c0-0.1,0,0,0-0.1l0.5,0.7c-1.8-1.1-3.6-2.2-5.4-3.4c-1.8-1.1-3.5-2.3-5.3-3.4l-1.3-0.9c-0.4-0.3-0.8-0.5-1.3-0.7
			c-0.9-0.4-1.9-0.9-2.8-1.3c-1-0.4-1.9-0.8-2.9-1.3c-0.5-0.2-0.9-0.5-1.4-0.8c-0.4-0.3-0.9-0.6-1.2-1c0.4,0.4,0.9,0.6,1.3,0.8
			c0.5,0.2,1,0.4,1.5,0.5c1,0.3,2,0.6,3,1c1,0.3,2,0.6,3,1c0.5,0.2,1,0.4,1.5,0.7l1.4,0.8c1.8,1,3.7,2,5.5,3.1s3.6,2.1,5.4,3.2
			l0.5,0.3v0.5c0,0.2,0,0.5-0.1,0.7c0,0.2-0.1,0.4-0.2,0.5c-0.1,0.3-0.3,0.5-0.4,0.8c-0.3,0.5-0.6,0.9-0.9,1.3
			c-0.7,0.8-1.3,1.6-2.1,2.3l-1.4,1.3l-0.3-2c-0.1-0.4-0.2-0.8-0.5-1.3c-0.1-0.2-0.3-0.5-0.5-0.7s-0.3-0.5-0.5-0.7
			c-0.4-0.4-0.8-0.8-1.2-1.2c-0.5-0.4-0.9-0.8-1.4-1.2c-0.5-0.4-1-0.7-1.5-1.1s-1-0.7-1.5-1c-1.1-0.6-2.1-1.3-3.2-1.8
			c-0.5-0.3-1.1-0.6-1.7-0.8c-0.6-0.3-1.1-0.5-1.7-0.7c-0.6-0.2-1.2-0.5-1.7-0.7c-0.6-0.2-1.2-0.4-1.8-0.7c-0.6-0.2-1.2-0.5-1.7-0.8
			c-0.6-0.3-1.1-0.6-1.6-1s-1-0.8-1.4-1.3C520.4,208.7,520,208.2,520,207.5z"/>
	</g>
</g>
<g>
	<polygon points="548.2,219.6 546.2,219.2 548.3,210 549.9,206.9 551.4,203.4 553.2,204.2 551.7,207.8 550.1,210.8 	"/>
</g>
<g>
	<path d="M643.7-0.5c0,0-0.6,1.2-0.6,4.6c0,3.4,0.3,4,0.3,4s0.3-3.6-5.1-1.2s-4.6,6.6-4.6,6.6l1.4,7.9c0,0-3.1-0.6-5.2,0.9
		s-2.5,3.8-2.5,3.8s-1.8-0.5-3.1,1.6c-1.3,2.1-1.1,3.1-1.1,3.1s-4.2-1.2-5.2,0s-0.8,2.8-0.8,2.8s-7.6-16.4-2.4-19.8
		c0,0,1.9-5.2,4.8-5.6c0,0,2.1-6.5,7-6c0,0,8.9-7.5,11.4-6S643.7-0.5,643.7-0.5z"/>
</g>
<g>
	<path d="M657.8,7l-1.2,3.6c0,0,4.5,2,4.5,7c0,0,1.9-4.2,0-6.6S657.8,7,657.8,7z"/>
</g>
<g>
	<g>
		<path d="M660.5,0.6l-2.3,5.5l0,0c0.8,0.7,1.6,1.5,2.3,2.3c0.7,0.8,1.4,1.7,1.9,2.7s0.9,2,0.9,3.2c0,1.1-0.3,2.2-0.7,3.2
			c-0.8,2-1.8,4-3,5.8s-2.5,3.6-3.9,5.3c-0.7,0.8-1.5,1.6-2.4,2.3c-0.9,0.7-1.8,1.3-2.7,1.9c-1.8,1.2-3.6,2.4-5.5,3.6
			c-3.7,2.3-7.4,4.5-11.2,6.7l0.2-0.4c0.1,1.1,0.2,2.2,0.2,3.3c0,1.1-0.1,2.2-0.3,3.3c0,0.3-0.1,0.5-0.2,0.8s-0.1,0.5-0.2,0.8
			l-0.3,0.8l-0.4,0.8c-0.1,0.3-0.3,0.5-0.4,0.7s-0.3,0.5-0.5,0.7s-0.4,0.5-0.6,0.6l-0.7,0.6l0.2-0.2c-0.8,1.8-1.7,3.4-2.8,5
			s-2.3,3.1-3.9,4.4c-0.4,0.3-0.8,0.6-1.2,0.9c-0.4,0.2-0.7,0.5-1,0.8c-0.6,0.6-1.2,1.4-1.7,2.1c-1,1.6-1.6,3.3-2.3,5.1
			c-0.7,1.8-1.4,3.5-2.1,5.3c-0.7,1.8-1.5,3.5-2.4,5.2c-0.4,0.9-0.9,1.7-1.4,2.5l-0.8,1.2l-0.8,1.2c-0.6,0.8-1.2,1.5-1.9,2.2
			c-0.3,0.4-0.8,0.7-1.1,1c-0.4,0.3-0.9,0.6-1.3,0.8l-1.3,0.8l0.3-1.5c0.2-1.2,0.5-2.5,0.8-3.7c0.2-0.6,0.4-1.2,0.6-1.8
			c0.1-0.3,0.2-0.6,0.3-0.9s0.3-0.6,0.4-0.8c0.1-0.3,0.2-0.5,0.2-0.8c0.1-0.3,0.1-0.5,0.1-0.8c0.1-0.6,0.1-1.2,0-1.7
			c0-0.6-0.1-1.2-0.2-1.8c-0.1-0.6-0.2-1.2-0.3-1.8l1.4,0.2c-1.3,2.5-2.7,4.9-4.3,7.2c-0.4,0.6-0.9,1.1-1.4,1.7l-1.4,1.5l-2.8,3
			c-3.7,4.1-7.4,8.1-11.1,12.2s-7.3,8.2-10.8,12.4c-1.8,2.1-3.5,4.2-5.3,6.3c-1.7,2.1-3.4,4.3-4.9,6.5c-0.2,0.3-0.4,0.6-0.6,0.8
			l-0.5,0.9c-0.4,0.6-0.7,1.2-1.1,1.8c-0.7,1.2-1.4,2.3-2,3.6c-1.3,2.4-2.6,4.8-3.9,7.3c-2.5,4.9-5,9.8-7.4,14.7
			c-4.9,9.8-9.7,19.7-14.4,29.7l-0.5-1.3c2.1,1,4.3,1.9,6.4,2.7c2.2,0.8,4.3,1.6,6.6,2.3c2.2,0.6,4.5,1.2,6.6,1.3
			c0.5,0,1-0.1,1.5-0.2l0.3-0.1l0.4-0.2l0.8-0.4l0.4-0.2l0.2-0.1h0.2c0.1,0,0.1-0.1,0.4,0c0.3,0,0.5,0.1,0.7,0.3
			c0.2,0.2,0.3,0.5,0.2,0.8c0,0.1-0.1,0.3-0.1,0.3l0,0c-0.1,0.1-0.2,0.3-0.2,0.3c-0.1,0.1-0.1,0.1-0.2,0.1l-0.2,0.2l-0.4,0.3
			c-0.5,0.3-1,0.6-1.6,0.9l-4.7,2.6l3.5-4.1c11.9-14,23.8-27.9,35.5-42.1c2.9-3.5,5.9-7.1,8.6-10.7c2.6-3.7,5.3-7.5,8.1-11.2
			c5.5-7.4,11-14.7,16.7-21.9c2.9-3.6,5.7-7.2,8.8-10.7l2.3-2.6c0.8-0.9,1.5-1.7,2.2-2.6c1.4-1.7,2.9-3.6,4.2-5.4
			c2.8-3.6,5.5-7.3,8.2-11c2.7-3.7,5.4-7.4,8-11.2c2.6-3.8,5.2-7.5,7.8-11.3c2.5-3.8,5.2-7.6,7.4-11.5c2.2-4.1,4.7-7.9,7.2-11.8
			c2.5-3.8,5.1-7.7,7.7-11.5l0.1,0.3c-4.8-3.1-9.7-6.1-14.5-9.1c-1.2-0.7-2.4-1.5-3.7-2.2c-1.2-0.7-2.5-1.3-3.8-2L660.5,0.6z
			 M660.5,0.6l7.7,3.8c1.3,0.6,2.6,1.2,3.8,2c1.2,0.7,2.5,1.4,3.7,2.1c4.9,2.9,9.8,5.9,14.7,8.9l0.2,0.1l-0.1,0.2
			c-2.5,3.8-5,7.7-7.5,11.5c-2.4,3.9-4.9,7.8-7,11.8c-2.3,4.1-4.8,7.9-7.4,11.7c-2.5,3.8-5.1,7.6-7.7,11.4s-5.2,7.5-7.9,11.3
			c-2.7,3.7-5.4,7.5-8.1,11.1c-1.4,1.8-2.8,3.7-4.2,5.5c-0.7,0.9-1.5,1.8-2.2,2.6l-2.3,2.6c-3,3.5-5.8,7.1-8.6,10.7
			c-5.6,7.2-11.1,14.6-16.6,21.9c-2.7,3.7-5.4,7.4-8,11.2c-2.8,3.7-5.7,7.2-8.6,10.8C582.7,166,570.8,180,559,194l-1.2-1.5
			c0.5-0.3,1-0.6,1.5-0.9l0.3-0.2l0.1-0.1l0,0c0,0-0.1,0.1-0.1,0.2l0,0c0,0-0.1,0.2-0.1,0.3c-0.1,0.3,0.1,0.6,0.2,0.8
			c0.2,0.2,0.4,0.3,0.6,0.3c0.3,0,0.2,0,0.2,0l0,0l-0.2,0.1l-0.4,0.2l-0.8,0.3l-0.4,0.2l-0.5,0.2c-0.7,0.2-1.4,0.3-2,0.3
			c-1.3,0-2.5-0.2-3.7-0.4c-1.2-0.2-2.3-0.5-3.5-0.9c-2.3-0.7-4.5-1.5-6.7-2.3c-2.2-0.9-4.4-1.8-6.5-2.8l-0.9-0.4l0.4-0.9
			c4.8-9.9,9.6-19.8,14.5-29.7c2.5-4.9,4.9-9.8,7.5-14.7c1.3-2.4,2.6-4.9,3.9-7.3c0.6-1.2,1.4-2.4,2-3.6c0.3-0.6,0.7-1.2,1.1-1.8
			l0.5-0.9c0.2-0.3,0.4-0.6,0.6-0.9c1.6-2.3,3.3-4.5,5-6.6s3.5-4.3,5.3-6.3c3.6-4.2,7.2-8.3,10.9-12.4s7.4-8.2,11.1-12.2l2.8-3
			l1.4-1.5c0.4-0.4,0.9-1,1.3-1.5c1.6-2.2,3-4.5,4.3-6.9l1-1.8l0.4,2c0.1,0.6,0.2,1.3,0.3,1.9s0.1,1.3,0.1,1.9s0,1.3-0.1,2
			c0,0.3-0.1,0.7-0.2,1s-0.2,0.7-0.3,1l-0.4,0.8c-0.1,0.3-0.2,0.5-0.3,0.8c-0.2,0.6-0.4,1.1-0.5,1.7c-0.3,1.2-0.6,2.4-0.8,3.5
			l-1-0.7c0.4-0.2,0.7-0.4,1.1-0.7c0.3-0.3,0.7-0.5,1-0.9c0.6-0.6,1.2-1.3,1.8-2.1l0.8-1.1l0.7-1.2c0.5-0.8,0.9-1.6,1.4-2.4
			c0.9-1.7,1.7-3.4,2.4-5.1s1.4-3.5,2.1-5.2c0.3-0.9,0.7-1.8,1-2.7c0.4-0.9,0.8-1.8,1.4-2.6c0.5-0.8,1.1-1.6,1.8-2.3
			c0.4-0.3,0.8-0.7,1.2-0.9c0.4-0.2,0.8-0.5,1.1-0.8c1.4-1.1,2.6-2.6,3.7-4.1c1-1.5,2-3.2,2.8-4.8l0.1-0.1l0.1-0.1l0.6-0.5
			c0.2-0.1,0.3-0.4,0.5-0.5c0.2-0.2,0.3-0.4,0.4-0.6c0.1-0.2,0.3-0.4,0.4-0.6l0.3-0.7l0.3-0.7c0.1-0.2,0.1-0.5,0.2-0.7
			s0.1-0.5,0.2-0.8c0.2-1,0.3-2.1,0.3-3.1s0-2.1-0.1-3.1v-0.3l0.2-0.1c3.8-2.1,7.5-4.3,11.2-6.5c1.9-1.1,3.7-2.3,5.5-3.5
			c0.9-0.6,1.8-1.2,2.6-1.9c0.9-0.6,1.6-1.4,2.3-2.2c1.4-1.6,2.7-3.4,3.9-5.2c1.2-1.8,2.3-3.7,3.1-5.7c0.4-1,0.7-2,0.7-3.1
			s-0.3-2.1-0.8-3.1c-1-1.9-2.4-3.6-4.1-5l0,0l0,0L660.5,0.6z"/>
	</g>
</g>
<g>
	<path d="M659.4,126.8c0,0,22-12.9,25,2.9s-3.9,63.7-20.5,101.1c-10.5,23.7-62,123.7-99,151.2s-39.9-4-39.9-4s-5.6,37.5,17.6,27.5
		c23.2-10,53.1-33,89.8-88.5c43-65.2,67.5-131.5,63.5-171.5S661.9,121.6,659.4,126.8z"/>
</g>
<g>
	<path d="M817.6,198.6c-7-0.2-8,3.8-11.2,4c-3.2,0.2-8.8-4-8.8-4s0.5,2-3,19.3s-11.5,60.3-11.5,60.3s16,1.5,21.8,5.8
		c5.8,4.3,14.5,9.5,14.5,9.5s-1.2-11,3.5-12c4.7-1,6.5-2,6.5-2L817.6,198.6z"/>
</g>
<g>
	<path d="M778.4,280.4c0,0-24.5,10-25.5,15.5s0,5.5,9.5,7s59.2,5,63.5,5c4.3,0,28.3-9.8,29.8-10.8s3.8-5.8,0-6.5s-26.5,11.2-39,10.8
		s-29.2-4.8-41-5.5s-18.7,0.2-19.2-1.8S778.4,280.4,778.4,280.4z"/>
</g>
<g>
	<g>
		<path d="M798.8,196.9c0,0,0.1-0.4,0.5-0.7c0.5-0.3,1.2-0.6,2.1-0.8c0.5-0.1,1-0.1,1.5-0.2c0.3,0,0.5,0,0.8,0c0.3,0,0.5,0,0.8,0
			c0.6,0,1.2,0.1,1.9,0.3c0.3,0.1,0.7,0.2,0.9,0.3c0.3,0.1,0.4,0.1,0.6,0.2c0.4,0.1,1,0,1.5,0c0.6,0,1.1,0,1.7-0.1
			c1.2,0,2.2,0,3.1,0.2c0.9,0.1,1.6,0.4,2.1,0.5c0.5,0.2,0.8,0.4,0.8,0.4s-0.3,0-0.8,0s-1.3,0.1-2.1,0.2c-0.4,0.1-0.9,0.1-1.4,0.2
			s-1,0.2-1.5,0.2c-0.5,0.1-1.1,0.2-1.7,0.3c-0.6,0.1-1.2,0.1-2,0c-0.4-0.1-0.8-0.2-1.1-0.3c-0.3-0.1-0.5-0.2-0.8-0.3
			c-0.5-0.1-1-0.3-1.5-0.4s-1-0.2-1.5-0.3c-0.5-0.1-0.9-0.1-1.4-0.2c-0.8-0.1-1.6-0.1-2,0c-0.2,0-0.4,0.1-0.5,0.2
			C798.8,196.8,798.8,196.9,798.8,196.9z"/>
	</g>
</g>
<g>
	<g>
		<path d="M831.8,280.4c0,0,1.7,0.1,4.1,0.6c1.2,0.2,2.6,0.6,4.1,1c0.7,0.2,1.5,0.4,2.3,0.7s1.5,0.5,2.3,0.8s1.5,0.6,2.3,0.9
			c0.8,0.3,1.5,0.7,2.2,1c1.4,0.7,2.7,1.4,3.7,2.1c1,0.7,1.8,1.4,2.3,2c0.2,0.3,0.4,0.6,0.4,0.8c0.1,0.2,0.1,0.3,0.1,0.3
			s-0.1-0.1-0.2-0.2c-0.1-0.1-0.3-0.3-0.6-0.5c-0.6-0.4-1.5-0.8-2.6-1.3s-2.4-1-3.8-1.5c-1.4-0.5-2.9-1.1-4.5-1.6
			c-0.8-0.3-1.5-0.6-2.3-0.9c-0.8-0.3-1.5-0.6-2.2-0.8c-1.4-0.6-2.8-1.1-3.9-1.6C833.3,281.2,831.8,280.4,831.8,280.4z"/>
	</g>
</g>
<g>
	<path d="M900.3,268.6c-7-0.2-8,3.8-11.2,4s-8.8-4-8.8-4s0.5,2-3,19.3s-11.5,60.2-11.5,60.2s16,1.5,21.8,5.8s14.5,9.5,14.5,9.5
		s-1.2-11,3.5-12s6.5-2,6.5-2L900.3,268.6z"/>
</g>
<g>
	<path d="M861,350.3c0,0-24.5,10-25.5,15.5s0,5.5,9.5,7s59.2,5,63.5,5s28.2-9.8,29.8-10.8s3.8-5.8,0-6.5s-26.5,11.2-39,10.8
		s-29.2-4.8-41-5.5s-18.7,0.2-19.2-1.8S861,350.3,861,350.3z"/>
</g>
<g>
	<g>
		<path d="M881.4,266.8c0,0,0.1-0.4,0.5-0.7c0.5-0.3,1.2-0.6,2.1-0.8c0.5-0.1,1-0.1,1.5-0.2c0.3,0,0.5,0,0.8,0s0.5,0,0.8,0
			c0.6,0,1.2,0.1,1.9,0.3c0.3,0.1,0.7,0.2,0.9,0.3c0.3,0.1,0.4,0.1,0.6,0.2c0.4,0.1,1,0,1.5,0c0.6,0,1.1,0,1.7-0.1
			c1.2,0,2.2,0,3.1,0.2c0.9,0.1,1.6,0.4,2.1,0.5c0.5,0.2,0.8,0.4,0.8,0.4s-0.3,0-0.8,0s-1.3,0.1-2.1,0.2c-0.4,0.1-0.9,0.1-1.4,0.2
			c-0.5,0.1-1,0.2-1.5,0.2c-0.5,0.1-1.1,0.2-1.7,0.3c-0.6,0.1-1.2,0.1-2,0c-0.4-0.1-0.8-0.2-1.1-0.3s-0.5-0.2-0.8-0.3
			c-0.5-0.1-1-0.3-1.5-0.4c-0.5-0.1-1-0.2-1.5-0.3s-0.9-0.1-1.4-0.2c-0.8-0.1-1.6-0.1-2,0c-0.2,0-0.4,0.1-0.5,0.2
			C881.5,266.8,881.4,266.8,881.4,266.8z"/>
	</g>
</g>
<g>
	<g>
		<path d="M914.4,350.3c0,0,1.7,0.1,4.1,0.6c1.2,0.2,2.6,0.6,4.1,1c0.7,0.2,1.5,0.4,2.3,0.7s1.5,0.5,2.3,0.8s1.5,0.6,2.3,0.9
			c0.8,0.3,1.5,0.7,2.2,1c1.4,0.7,2.7,1.4,3.7,2.1c1,0.7,1.8,1.4,2.3,2c0.2,0.3,0.4,0.6,0.4,0.8c0.1,0.2,0.1,0.3,0.1,0.3
			s-0.1-0.1-0.2-0.2c-0.1-0.1-0.3-0.3-0.6-0.5c-0.6-0.4-1.5-0.8-2.6-1.3s-2.4-1-3.8-1.5c-1.4-0.5-2.9-1.1-4.5-1.6
			c-0.8-0.3-1.5-0.6-2.3-0.9c-0.8-0.3-1.5-0.6-2.2-0.8c-1.4-0.6-2.8-1.1-3.9-1.6C915.9,351.1,914.4,350.3,914.4,350.3z"/>
	</g>
</g>
<g>
	<path d="M1019.6,185.8c-7-0.2-8,3.8-11.2,4s-8.8-4-8.8-4s0.5,2-3,19.3s-11.5,60.2-11.5,60.2s16,1.5,21.8,5.8s14.5,9.5,14.5,9.5
		s-1.2-11,3.5-12c4.7-1,6.5-2,6.5-2L1019.6,185.8z"/>
</g>
<g>
	<path d="M980.4,267.5c0,0-24.5,10-25.5,15.5s0,5.5,9.5,7s59.2,5,63.5,5c4.3,0,28.2-9.8,29.8-10.8c1.6-1,3.8-5.8,0-6.5
		c-3.8-0.7-26.5,11.2-39,10.8c-12.5-0.4-29.2-4.8-41-5.5s-18.7,0.2-19.2-1.8C957.8,279.4,980.4,267.5,980.4,267.5z"/>
</g>
<g>
	<g>
		<path d="M1000.8,184c0,0,0.1-0.4,0.5-0.7c0.5-0.3,1.2-0.6,2.1-0.8c0.5-0.1,1-0.1,1.5-0.2c0.3,0,0.5,0,0.8,0s0.5,0,0.8,0
			c0.6,0,1.2,0.1,1.9,0.3c0.3,0.1,0.7,0.2,0.9,0.3c0.3,0.1,0.4,0.1,0.6,0.2c0.4,0.1,1,0,1.5,0c0.6,0,1.1,0,1.7-0.1
			c1.2,0,2.2,0,3.1,0.2c0.9,0.1,1.6,0.4,2.1,0.5c0.5,0.2,0.8,0.4,0.8,0.4s-0.3,0-0.8,0s-1.3,0.1-2.1,0.2c-0.4,0.1-0.9,0.1-1.4,0.2
			s-1,0.2-1.5,0.2c-0.5,0.1-1.1,0.2-1.7,0.3c-0.6,0.1-1.2,0.1-2,0c-0.4-0.1-0.8-0.2-1.1-0.3c-0.3-0.1-0.5-0.2-0.8-0.3
			c-0.5-0.1-1-0.3-1.5-0.4s-1-0.2-1.5-0.3c-0.5-0.1-0.9-0.1-1.4-0.2c-0.8-0.1-1.6-0.1-2,0c-0.2,0-0.4,0.1-0.5,0.2
			C1000.8,184,1000.8,184,1000.8,184z"/>
	</g>
</g>
<g>
	<g>
		<path d="M1033.8,267.5c0,0,1.7,0.1,4.1,0.6c1.2,0.2,2.6,0.6,4.1,1c0.7,0.2,1.5,0.4,2.3,0.7s1.5,0.5,2.3,0.8
			c0.8,0.3,1.5,0.6,2.3,0.9c0.8,0.3,1.5,0.7,2.2,1c1.4,0.7,2.7,1.4,3.7,2.1c1,0.7,1.8,1.4,2.3,2c0.2,0.3,0.4,0.6,0.4,0.8
			c0.1,0.2,0.1,0.3,0.1,0.3s-0.1-0.1-0.2-0.2c-0.1-0.1-0.3-0.3-0.6-0.5c-0.6-0.4-1.5-0.8-2.6-1.3s-2.4-1-3.8-1.5
			c-1.4-0.5-2.9-1.1-4.5-1.6c-0.8-0.3-1.5-0.6-2.3-0.9c-0.8-0.3-1.5-0.6-2.2-0.8c-1.4-0.6-2.8-1.1-3.9-1.6
			C1035.3,268.3,1033.8,267.5,1033.8,267.5z"/>
	</g>
</g>
<g>
	<g>
		<path d="M617,33.5c0.6,0.1,1.3,0.2,1.9,0.4c0.6,0.2,1.3,0.4,1.9,0.6s1.2,0.5,1.8,0.8s1.2,0.6,1.8,0.9c0.3,0.2,0.6,0.4,0.8,0.5
			c0.3,0.2,0.5,0.4,0.8,0.5c0.5,0.3,1,0.6,1.6,0.8c0.5,0.2,1.1,0.4,1.7,0.5c0.3,0.1,0.6,0.1,0.8,0.2c0.3,0,0.6,0.1,0.8,0.1l-0.6,1.7
			c-0.8-0.7-1.5-1.4-2.2-2.1s-1.4-1.5-2-2.3c-0.3-0.4-0.6-0.8-0.9-1.2c-0.3-0.4-0.6-0.8-0.8-1.3c-0.3-0.4-0.5-0.9-0.7-1.3
			c-0.2-0.4-0.4-0.9-0.6-1.4c0.7,0.8,1.3,1.5,2,2.2l1,1.1l1.1,1c0.7,0.7,1.4,1.3,2.2,2c0.4,0.3,0.7,0.7,1.1,1s0.7,0.7,1.1,0.9l2,1.7
			l-2.6,0.1c-0.5,0-0.8,0-1.1-0.1c-0.4,0-0.7-0.1-1-0.2c-0.7-0.2-1.3-0.4-2-0.7c-0.6-0.3-1.2-0.6-1.8-1c-0.3-0.2-0.5-0.4-0.8-0.6
			l-0.7-0.6c-0.5-0.4-1-0.7-1.5-1.1c-0.5-0.3-1-0.7-1.6-1C619.3,34.8,618.2,34.2,617,33.5z"/>
	</g>
</g>
<g>
	<g>
		<path d="M635,21.4c0,0,0.2,0.5,0.6,1.5c0.4,1,1,2.3,1.8,3.9c0.4,0.8,0.9,1.6,1.5,2.4c0.6,0.8,1.5,1.2,2.5,1.4c1,0.2,2.1-0.1,2.3-1
			c0.1-0.5,0.1-1,0.1-1.5c-0.1-0.6-0.1-1.2-0.2-1.8c-0.1-2.4-0.2-4.8-0.2-7s0-4.3-0.1-6.1c0-1.8,0-3.3-0.1-4.3
			c-0.1-0.5-0.1-0.9-0.1-1.2c0-0.3-0.1-0.4-0.1-0.4s0,0.1,0.1,0.4c0.1,0.3,0.2,0.7,0.3,1.2c0.2,1,0.4,2.5,0.5,4.3
			c0.1,1.8,0.3,3.9,0.4,6.1s0.2,4.6,0.3,7c0,0.6,0.1,1.2,0.1,1.8c0.1,0.6,0.1,1.3-0.1,2s-0.8,1.3-1.5,1.5s-1.3,0.2-1.9,0.1
			c-1.2-0.2-2.3-0.8-2.9-1.8c-0.6-0.9-1-1.8-1.4-2.6c-0.7-1.6-1.2-3.1-1.5-4.1C635.2,22,635,21.4,635,21.4z"/>
	</g>
</g>
<g>
	<g>
		<path d="M656.7,10c0,0-1.1,2.3-2.9,5.6c-0.4,0.8-0.9,1.7-1.4,2.7s-1,1.9-1.6,3c-0.6,1.1-1.2,2.1-1.5,3.1c-0.1,0.5-0.2,1-0.2,1.5
			c0,0.3,0.1,0.5,0.1,0.8l0.1,0.4l0.1,0.3c0.2,0.4,0.3,0.5,0.7,0.6c0.4,0.1,1.1,0.1,1.8,0.2c0.2,0,0.4,0.1,0.5,0.1h0.1
			c-0.3,0-0.1,0-0.1,0l0,0l0,0h0.1c0.1,0,0.2,0,0.2,0c-0.1,0,0.2,0,0.4-0.2c0.4-0.2,0.8-0.6,1.1-1c0.4-0.4,0.7-0.8,0.9-1.3
			c0.3-0.4,0.5-0.9,0.5-1.2l0,0l0,0c0.1,0.2,0,0,0,0.1l0,0l0,0v-0.1c-0.1,0,0,0-0.1-0.1c-0.1-0.1-0.3-0.2-0.5-0.3
			c-0.4-0.2-0.8-0.3-1.2-0.3c-0.8-0.1-1.6,0-2.1,0.4c-0.2,0.2-0.5,0.5-0.8,0.7c-0.2,0.2-0.5,0.4-0.6,0.6c-0.2,0.4-0.1,0.9-0.1,1.1
			c0,0.3,0.1,0.5,0.1,0.5s-0.1-0.1-0.2-0.4c-0.1-0.1-0.1-0.3-0.2-0.5c-0.1-0.2-0.1-0.5,0-0.8c0.1-0.3,0.3-0.5,0.5-0.8
			c0.2-0.3,0.4-0.5,0.7-0.9c0.7-0.7,1.7-0.9,2.7-0.9c0.5,0,1.1,0.1,1.6,0.2c0.3,0.1,0.6,0.2,0.9,0.4c0.1,0.1,0.4,0.3,0.5,0.5
			l0.1,0.1l0,0l0,0c0,0,0-0.1,0.1,0.1l0,0c0,0.1,0.1,0.3,0.1,0.4c0,0.9-0.3,1.4-0.6,2c-0.3,0.6-0.6,1.1-1,1.6
			c-0.4,0.5-0.9,1-1.5,1.4c-0.2,0.1-0.3,0.2-0.5,0.3c-0.2,0.1-0.5,0.2-0.8,0.2c-0.2,0-0.2,0-0.3,0h-0.1l0,0l0,0h-0.2l0,0
			c-0.1,0-0.2,0-0.4-0.1c-0.5-0.1-1.2,0-2-0.2c-0.4-0.1-0.9-0.3-1.3-0.6c-0.4-0.3-0.6-0.7-0.8-1.1c-0.1-0.2-0.2-0.4-0.2-0.6
			l-0.1-0.5c-0.1-0.4-0.1-0.7-0.2-1.1c0-0.7,0.1-1.5,0.3-2.2c0.4-1.4,1.2-2.4,1.8-3.4c0.6-1,1.2-2,1.8-2.9s1.2-1.8,1.7-2.5
			C655.1,12,656.7,10,656.7,10z"/>
	</g>
</g>
<g>
	<g>
		<path d="M642.2,31.1c0,0,0.3,0.3,0.6,1c0.2,0.3,0.4,0.7,0.6,1.3c0.2,0.5,0.4,1.1,0.2,1.9c-0.1,0.4-0.2,0.9-0.6,1.2
			c-0.5,0.3-0.8,0.4-1.1,0.6c-0.6,0.3-1.2,0.7-2,1.1c-0.8,0.3-1.7,0.7-2.8,0.6c-1,0-2.1-0.5-2.8-1.1c-0.4-0.3-0.7-0.7-1-1
			s-0.6-0.6-0.8-0.9c-0.6-0.6-1.1-1.3-1.6-1.9c-1-1.3-1.8-2.5-2.5-3.7c-0.6-1.1-1-2.2-1.1-3c-0.1-0.4-0.1-0.7,0-0.9
			c0-0.2,0-0.3,0-0.3s0,0.1,0.1,0.3c0,0.2,0.2,0.5,0.3,0.8c0.2,0.3,0.4,0.7,0.7,1.1c0.3,0.4,0.6,0.9,1,1.3c0.8,1,1.8,2,2.8,3.2
			c0.5,0.6,1.1,1.2,1.7,1.7c0.3,0.3,0.6,0.6,0.9,0.9s0.5,0.5,0.8,0.7c0.5,0.4,1.1,0.7,1.7,0.7s1.3-0.1,2-0.3
			c0.7-0.3,1.4-0.6,2.1-0.8c0.3-0.1,0.6-0.2,0.8-0.3c0.1-0.1,0.3-0.2,0.3-0.4c0.2-0.4,0.2-1,0.1-1.5c0-0.5-0.1-0.9-0.2-1.3
			C642.3,31.5,642.2,31.1,642.2,31.1z"/>
	</g>
</g>
<g>
	<path d="M632.2,41.3c-1.2,0-2.3-0.3-3-0.7l0.9-1.8l-0.4,0.9l0.4-0.9c0.4,0.2,3.6,1.6,5.4-1.4l1.7,1
		C635.8,40.6,633.9,41.3,632.2,41.3z"/>
</g>
<g>
	<g>
		<path d="M643,4.2c2.5,0.7,4.9,1.6,7.2,2.7c1.1,0.6,2.3,1.2,3.3,2.1c0.5,0.4,1,0.9,1.4,1.4c0.2,0.3,0.4,0.6,0.5,0.9
			c0.1,0.3,0.2,0.7,0.2,1l-0.6-0.1l2-4.1v0.3c-0.5-1.4-1.1-2.7-1.9-3.9c-0.8-1.2-1.7-2.4-2.7-3.3c-1.1-0.9-2.3-1.6-3.7-1.9
			c-0.3-0.1-0.7-0.1-1-0.1c-0.3,0-0.7,0-1,0c-0.3,0-0.7,0.1-1,0.1c-0.3,0.1-0.7,0.2-1,0.3l-1.1,0.3l0.3-1l1.8-5.6l0.1-0.4l0.4-0.1
			c0.8-0.1,1.5-0.1,2.3-0.2c0.8,0,1.5,0,2.3,0c1.5,0.1,3.1,0.3,4.6,0.8s3,1.2,4.2,2.3c0.3,0.3,0.6,0.6,0.8,0.9
			c0.3,0.3,0.5,0.7,0.7,1c0.2,0.4,0.4,0.7,0.5,1.1c0.2,0.4,0.3,0.8,0.4,1.2l-1.4-0.4l0.6-0.5l-0.3,0.6c0-0.3,0-0.7,0-1
			s-0.1-0.7-0.1-1c-0.1-0.7-0.2-1.3-0.4-2c-0.4-1.3-0.9-2.6-1.6-3.7c-0.7-1.1-1.7-2.1-2.8-2.7c-1.1-0.7-2.4-1.1-3.7-1.3l-2.1-0.3
			l1.7-1.3l2.3-1.8l0.3-0.2h0.3c0.6,0,1,0.1,1.4,0.2c0.4,0.1,0.9,0.3,1.3,0.4c0.8,0.4,1.6,0.8,2.3,1.4c1.4,1.2,2.4,2.7,3.1,4.3
			c0.2,0.4,0.3,0.8,0.4,1.2c0.1,0.4,0.2,0.8,0.3,1.3c0.2,0.8,0.3,1.7,0.4,2.5c0.1,1.7,0.1,3.4,0,5.1l-1.9-0.5
			c0.1-0.2,0.2-0.5,0.3-0.8s0.2-0.6,0.3-0.9c0.2-0.6,0.3-1.2,0.4-1.8c0.2-1.2,0.4-2.4,0.4-3.6c0.1-2.4-0.3-4.8-1.2-7l-0.9-2l2.1,0.7
			l3.5,1.1l0.5,0.2l0.1,0.5c0.1,0.7,0.3,1.3,0.4,1.9c0.1,0.6,0.2,1.3,0.3,1.9c0.2,1.3,0.3,2.6,0.3,3.9c0,1.3,0,2.7-0.3,4
			c-0.3,1.3-0.6,2.8-1.7,4l-0.3-1.4l2.9,1.4L668,2.7c1-2.2,2-4.4,2.8-6.7c0.4-1.1,0.7-2.3,1-3.4c0.1-0.6,0.2-1.2,0.3-1.7
			c0-0.6,0.1-1.1-0.1-1.5l-0.5-1.9l1.7,0.9l5.7,3.2l0.6,0.4l-0.3,0.6l-6.5,12.8l-0.3-0.8l4.1,1.9l-0.6,0.1c1.7-1.7,3.5-3.4,5.1-5.1
			c0.8-0.9,1.6-1.8,2.4-2.7c0.4-0.5,0.7-0.9,1-1.4c0.2-0.2,0.3-0.5,0.4-0.7c0.1-0.2,0.2-0.5,0.2-0.7v-0.6l0.5,0.3
			c0.7,0.4,1.3,0.8,1.9,1.3c0.3,0.2,0.6,0.5,0.9,0.7c0.1,0.1,0.3,0.3,0.4,0.4c0.1,0.1,0.1,0.2,0.2,0.3s0.1,0.2,0.1,0.4v0.1V-1
			c-1.3,2.2-2.7,4.3-4.3,6.3c-0.8,1-1.6,2-2.5,2.9c-0.4,0.5-0.9,0.9-1.4,1.3c-0.3,0.2-0.5,0.4-0.8,0.5s-0.6,0.2-0.9,0.1
			c0.3,0.1,0.6,0,0.9-0.1s0.5-0.3,0.8-0.5c0.5-0.4,0.9-0.9,1.3-1.3c0.8-1,1.6-2,2.3-3c1.4-2.1,2.8-4.2,4-6.4v0.1
			c0,0-0.1-0.2-0.2-0.3s-0.2-0.2-0.4-0.4c-0.3-0.2-0.6-0.4-0.9-0.7c-0.6-0.4-1.3-0.8-1.9-1.2l0.5-0.3c0,0.4-0.1,0.7-0.3,1
			c-0.1,0.3-0.3,0.6-0.4,0.8c-0.3,0.5-0.7,1-1,1.5c-0.7,1-1.5,1.9-2.3,2.8c-1.6,1.8-3.3,3.6-5,5.3l-0.3,0.3l-0.4-0.2l-4.1-1.8
			l-0.6-0.3l0.3-0.6l6.2-12.9l0.3,1l-5.8-3.1l1.2-0.9c0.2,0.8,0.2,1.5,0.1,2.1c-0.1,0.7-0.2,1.3-0.3,1.9c-0.3,1.3-0.6,2.5-1,3.6
			c-0.8,2.4-1.7,4.7-2.8,6.9l-0.4,0.8l-0.8-0.4l-2.9-1.4l-1.1-0.5l0.8-0.9c0.2-0.2,0.3-0.4,0.4-0.6c0.1-0.2,0.2-0.5,0.3-0.7
			c0.2-0.5,0.3-1.1,0.4-1.7c0.2-1.2,0.2-2.4,0.2-3.7c0-1.2-0.2-2.5-0.3-3.7c-0.1-0.6-0.2-1.2-0.3-1.9c-0.1-0.6-0.2-1.2-0.4-1.8
			l0.6,0.7l-3.5-1.1l1.2-1.3c1.1,2.5,1.5,5.2,1.5,7.9c0,1.3-0.2,2.6-0.5,3.9c-0.1,0.6-0.3,1.3-0.5,1.9c-0.1,0.3-0.2,0.6-0.3,1
			c-0.1,0.3-0.2,0.6-0.3,1l-2.5,6.3l0.6-6.7c0.3-3.1,0.2-6.4-0.9-9.2c-0.6-1.4-1.4-2.7-2.5-3.6c-0.6-0.5-1.2-0.9-1.9-1.1
			c-0.3-0.1-0.7-0.3-1-0.4c-0.3-0.1-0.7-0.2-1-0.2l0.6-0.2l-2.3,1.7l-0.4-1.6c1.5,0.2,3,0.7,4.4,1.6c1.3,0.8,2.5,2,3.3,3.3
			c0.8,1.3,1.4,2.7,1.8,4.2c0.2,0.7,0.3,1.5,0.4,2.2c0.1,0.4,0.1,0.7,0.1,1.1c0,0.4,0,0.7,0,1.2v0.4l-0.3,0.2l-0.6,0.5l-1,0.8
			l-0.4-1.3c-0.1-0.3-0.2-0.7-0.3-1s-0.3-0.6-0.4-0.9c-0.2-0.3-0.3-0.6-0.6-0.8c-0.2-0.3-0.4-0.5-0.7-0.7c-1-0.9-2.2-1.6-3.6-2.1
			c-1.3-0.5-2.8-0.7-4.2-0.8c-0.7-0.1-1.5-0.1-2.2-0.1s-1.5,0-2.2,0.1l0.5-0.5l-1.9,5.6l-0.8-0.8c0.4-0.1,0.8-0.2,1.1-0.3
			c0.4-0.1,0.8-0.1,1.2-0.1c0.4,0,0.8,0,1.2,0s0.8,0.1,1.2,0.2c1.6,0.3,3,1.2,4.1,2.2c1.2,1,2.1,2.3,2.8,3.6
			c0.7,1.3,1.4,2.7,1.8,4.2V8l-0.1,0.1l-2.1,4.1l-0.5,1v-1.1c-0.1-1.2-0.9-2.2-1.8-3c-0.9-0.8-2-1.5-3.1-2.1
			C647.8,5.9,645.5,5,643,4.2z"/>
	</g>
</g>
<g>
	<path d="M720.7,19.2c-2.9,2.8-8.1,13.6-6,16.1s7,0.8,8.8,2.9s3,7.2,7.6,5.6c4.6-1.6,12.1-13.9,9.5-17.8c-2.6-3.9-7.6-1.4-9.8-2.1
		C728.6,23.2,727.8,12.3,720.7,19.2z"/>
</g>
<g>
	<path d="M722.2,40.3c-2-2-5.1-1.5-6.8-3.1s-3.1-6-3.1-6l-5.5-3.4l-2,4.1l-2.8,0.9c0,0-2,8.5-4.6,10.6s-4.6,2.9-4.6,2.9L686,60.4
		c0,0-22.8,37.8-21.9,41.6c0,0,5.2-0.6,7.9,1.2s13.9,8,13.8,9.2c0,0,7.6-16.1,11.9-26.4c4.3-10.3,14.8-29.9,14.8-29.9
		s-1.9-5.5-0.5-7.1c1.4-1.6,3.1-3.7,4.9-5.1S722.2,40.3,722.2,40.3z"/>
</g>
<g>
	<ellipse cx="675.8" cy="113" rx="3.4" ry="3.6"/>
</g>
<g>
	<path d="M537.4,383.4c0,0-11.5-12.5-2.8-43.3c8.7-30.8,16.3-54.7,32.2-83c15.8-28.3,44.8-77.3,47.3-79.5c0,0-17.8,29.8-34.3,61
		c-16.5,31.2-37.5,82.4-44,111.2C528.9,379.7,537.4,383.4,537.4,383.4z"/>
</g>
<g>
	<path d="M531.3,326.1c0,0,17.7-53.3,26.9-71.3s49.7-80.2,54.9-86.2c5.2-6,13.1-12.7,13.1-12.7l-3.2,5c0,0-22.6,25.9-46.2,65.3
		C553.2,265.6,531.3,326.1,531.3,326.1z"/>
</g>
<g>
	<path d="M583.1,245.4c0,0,1.2,7-2.3,8.2c0,0,2.3,1.3,6.7,4c4.3,2.7,14.3,6.7,19.8,10.3s17.2,11.5,20.3,10.3
		c3.2-1.2,6.2-5.3,2.2-8.7c-4-3.3-11.2-4.5-19.4-8.3C602.2,257.4,587.2,245.2,583.1,245.4z"/>
</g>
<g>
	<path d="M649.4,137.7c0,0,16.7-11,23.3-3.8c6.7,7.2,10.2,18.3,4.2,43.7c0,0,7.4-42-12.2-39c-19.6,3-17.1,3.5-17.1,3.5L649.4,137.7z
		"/>
</g>
<g>
	<g>
		<g>
			<line class="st0" x1="585.6" y1="265.4" x2="589.1" y2="353.1"/>
		</g>
		<g>
			<path d="M585.6,265.4c0,0,0.1,1.4,0.3,3.8c0.2,2.4,0.5,5.8,0.8,9.9c0.3,4.1,0.6,8.9,0.9,14c0.1,2.6,0.3,5.2,0.4,7.9
				s0.2,5.4,0.4,8.2c0.1,2.7,0.2,5.5,0.3,8.2c0.1,2.7,0.2,5.4,0.2,7.9c0.1,5.1,0.2,9.9,0.3,14.1c0.1,4.1,0,7.5,0,9.9s0,3.8,0,3.8
				s-0.1-1.4-0.3-3.8c-0.2-2.4-0.5-5.8-0.8-9.9c-0.3-4.1-0.6-8.9-0.9-14c-0.1-2.6-0.3-5.2-0.4-7.9c-0.1-2.7-0.2-5.4-0.4-8.2
				c-0.1-2.7-0.2-5.5-0.3-8.2c-0.1-2.7-0.2-5.4-0.2-7.9c-0.1-5.1-0.2-9.9-0.3-14.1c-0.1-4.1,0-7.5,0-9.9
				C585.5,266.8,585.6,265.4,585.6,265.4z"/>
		</g>
	</g>
	<g>
		<g>
			<line class="st0" x1="603.9" y1="264.2" x2="617.7" y2="312.7"/>
		</g>
		<g>
			<path d="M603.9,264.2c0,0,1.2,2.9,2.7,7.4c0.8,2.2,1.6,4.9,2.5,7.7c0.4,1.4,0.9,2.9,1.3,4.4c0.4,1.5,0.9,3,1.3,4.5
				c0.4,1.5,0.8,3,1.3,4.5c0.4,1.5,0.8,3,1.2,4.4c0.7,2.9,1.4,5.5,1.9,7.9c1.1,4.6,1.6,7.7,1.6,7.7s-1.2-2.9-2.7-7.4
				c-0.8-2.2-1.6-4.9-2.5-7.7c-0.4-1.4-0.9-2.9-1.3-4.4c-0.4-1.5-0.9-3-1.3-4.5c-0.4-1.5-0.8-3-1.3-4.5c-0.4-1.5-0.8-3-1.2-4.4
				c-0.7-2.9-1.4-5.5-1.9-7.9C604.5,267.4,603.9,264.2,603.9,264.2z"/>
		</g>
	</g>
	<g>
		<g>
			<line class="st0" x1="583.2" y1="261.9" x2="538.9" y2="337.7"/>
		</g>
		<g>
			<path d="M583.2,261.9c0,0-0.6,1.2-1.7,3.4c-1.1,2.1-2.7,5.2-4.7,8.8s-4.3,7.8-6.8,12.3c-1.3,2.2-2.6,4.5-3.9,6.9
				c-1.4,2.3-2.7,4.7-4.1,7.1c-1.4,2.4-2.8,4.7-4.2,7.1c-1.4,2.3-2.8,4.6-4.1,6.8c-2.7,4.4-5.2,8.5-7.3,12c-2.2,3.5-4.1,6.4-5.3,8.4
				c-1.3,2-2.1,3.2-2.1,3.2s0.6-1.2,1.7-3.4c1.1-2.1,2.7-5.2,4.7-8.8s4.3-7.8,6.8-12.3c1.3-2.2,2.6-4.6,3.9-6.9
				c1.4-2.3,2.7-4.7,4.1-7.1c1.4-2.4,2.8-4.7,4.2-7.1c1.4-2.3,2.7-4.6,4.1-6.8c2.7-4.4,5.2-8.5,7.3-12c2.2-3.5,4.1-6.4,5.3-8.4
				C582.4,263,583.2,261.9,583.2,261.9z"/>
		</g>
	</g>
	<g>
		<g>
			<line class="st0" x1="543.7" y1="386.4" x2="587.3" y2="260.4"/>
		</g>
		<g>
			<path d="M543.7,386.4c0,0,0.6-2,1.7-5.5c1.1-3.5,2.6-8.5,4.6-14.4c1.9-5.9,4.2-12.9,6.7-20.3c1.3-3.7,2.5-7.5,3.9-11.4
				c1.3-3.9,2.7-7.8,4-11.8c1.4-3.9,2.8-7.9,4.1-11.7c1.4-3.9,2.7-7.7,4-11.4c2.6-7.4,5.1-14.2,7.3-20.1c2.2-5.9,4-10.7,5.3-14.1
				c1.3-3.4,2.1-5.4,2.1-5.4s-0.6,2-1.7,5.5c-1.1,3.5-2.6,8.5-4.6,14.4c-1.9,5.9-4.2,12.9-6.7,20.3c-1.3,3.7-2.5,7.5-3.9,11.4
				c-1.3,3.9-2.7,7.8-4,11.8c-1.4,3.9-2.8,7.9-4.1,11.7c-1.4,3.9-2.7,7.7-4,11.4c-2.6,7.4-5.1,14.2-7.3,20.1
				c-2.2,5.9-4,10.7-5.3,14.1C544.4,384.5,543.7,386.4,543.7,386.4z"/>
		</g>
	</g>
	<g>
		<g>
			<line class="st0" x1="532.4" y1="362.2" x2="612.7" y2="269.6"/>
		</g>
		<g>
			<path d="M532.4,362.2c0,0,1.2-1.5,3.3-4.1c2.1-2.6,5.1-6.3,8.8-10.7s8-9.5,12.6-15c2.3-2.7,4.7-5.5,7.2-8.4s5-5.8,7.5-8.6
				c2.5-2.9,5-5.8,7.5-8.6s4.9-5.6,7.3-8.3c4.8-5.4,9.2-10.4,13.1-14.6c3.8-4.3,7.1-7.8,9.4-10.2c2.3-2.4,3.6-3.8,3.6-3.8
				s-1.2,1.5-3.3,4.1s-5.1,6.3-8.8,10.7s-8,9.5-12.6,15c-2.3,2.7-4.7,5.5-7.2,8.4s-5,5.8-7.5,8.6c-2.5,2.9-5,5.8-7.5,8.6
				s-4.9,5.6-7.3,8.3c-4.8,5.4-9.2,10.4-13.1,14.6c-3.8,4.3-7.1,7.8-9.4,10.2C533.7,360.8,532.4,362.2,532.4,362.2z"/>
		</g>
	</g>
	<g>
		<g>
			<path d="M536.3,382.5l10.3-13.2l10.3-13.2l20.8-26.2l20.9-26.1l10.5-13l10.6-13l5.3-6.5l-3.7,7.5l-10.9,22.3l-5.5,11.1l-5.5,11.1
				c-3.7,7.4-7.4,14.8-11.1,22.2s-7.5,14.8-11.3,22.1c3.5-7.5,7-15,10.5-22.5s7.1-15,10.6-22.4l5.3-11.2l5.4-11.2l10.8-22.4l1.6,1
				L610.7,292l-10.6,13L579,331l-21.3,25.8L547,369.7L536.3,382.5z"/>
		</g>
	</g>
	<g>
		<g>
			<path d="M627.7,256.6c0,0-1,0.4-2.9,1.1c-1.8,0.7-4.4,1.7-7.6,2.8c-3.1,1.1-6.8,2.4-10.8,3.8c-2,0.7-4,1.4-6.1,2
				c-2.1,0.7-4.2,1.4-6.3,2.1c-2.1,0.7-4.3,1.3-6.4,2c-2.1,0.7-4.2,1.3-6.2,1.9c-4,1.2-7.8,2.3-11,3.2c-3.2,0.9-5.9,1.6-7.8,2.1
				c-1.9,0.5-3,0.7-3,0.7s1-0.4,2.9-1.1c1.8-0.7,4.4-1.7,7.6-2.8c3.1-1.1,6.8-2.4,10.8-3.8c2-0.7,4-1.4,6.1-2
				c2.1-0.7,4.2-1.4,6.3-2.1c2.1-0.7,4.3-1.3,6.4-2c2.1-0.7,4.2-1.3,6.2-1.9c4-1.2,7.8-2.3,11-3.2c3.2-0.9,5.9-1.6,7.8-2.1
				C626.6,256.9,627.7,256.6,627.7,256.6z"/>
		</g>
	</g>
	<g>
		<g>
			<path d="M593.7,256.6c0,0-0.4,1.9-1.1,5.3c-0.7,3.4-1.7,8.2-3,14.1c-1.3,5.8-2.8,12.6-4.5,19.8c-0.8,3.6-1.7,7.4-2.6,11.2
				s-1.8,7.6-2.7,11.5c-0.9,3.8-1.9,7.7-2.8,11.5s-1.9,7.5-2.8,11.1c-1.8,7.2-3.5,13.9-5.1,19.7c-1.5,5.8-2.8,10.5-3.7,13.9
				c-0.9,3.3-1.5,5.3-1.5,5.3s0.4-1.9,1.1-5.3c0.7-3.4,1.7-8.2,3-14.1c1.3-5.8,2.8-12.6,4.5-19.8c0.8-3.6,1.7-7.4,2.6-11.2
				c0.9-3.8,1.8-7.6,2.7-11.5c0.9-3.8,1.9-7.7,2.8-11.5c0.9-3.8,1.9-7.5,2.8-11.1c1.8-7.2,3.5-13.9,5.1-19.7
				c1.5-5.8,2.8-10.5,3.7-13.9C593.1,258.6,593.7,256.6,593.7,256.6z"/>
		</g>
	</g>
	<g>
		<g>
			<path d="M606.2,330.4c0.7-5.3,1.4-10.5,2.2-15.7l1.1-7.9l1.1-7.9l2.3-15.7c0.8-5.2,1.5-10.5,2.4-15.7l1.6,0.6l-15.6,29L585.5,326
				l-4,7.2l-4,7.2l-8,14.4c-2.7,4.8-5.4,9.6-8.1,14.4c-2.7,4.8-5.4,9.6-8.2,14.3c2.5-4.9,5-9.8,7.6-14.6c2.5-4.9,5.1-9.7,7.7-14.6
				l7.7-14.6l3.9-7.3l3.9-7.2l15.7-29l15.9-28.9l2.4-4.4l-0.8,5c-0.8,5.2-1.7,10.5-2.6,15.7l-2.7,15.7l-1.3,7.8l-1.4,7.8
				C608.1,320,607.2,325.2,606.2,330.4z"/>
		</g>
	</g>
	<g>
		<g>
			<path d="M533.3,373.9c0,0,0.8-1.9,2.3-5.3c1.5-3.3,3.5-8.1,6.1-13.9c2.5-5.7,5.6-12.4,8.8-19.5c1.6-3.6,3.3-7.2,5.1-11
				c1.7-3.7,3.5-7.5,5.3-11.3s3.6-7.6,5.3-11.3c1.8-3.7,3.5-7.4,5.2-10.9c3.4-7.1,6.6-13.6,9.4-19.2c2.8-5.6,5.2-10.3,6.8-13.5
				c1.7-3.3,2.6-5.1,2.6-5.1s-0.8,1.9-2.3,5.3c-1.5,3.3-3.5,8.1-6.1,13.9c-2.5,5.7-5.6,12.4-8.8,19.5c-1.6,3.6-3.3,7.2-5.1,11
				c-1.7,3.7-3.5,7.5-5.3,11.3c-1.8,3.8-3.6,7.6-5.3,11.3c-1.8,3.7-3.5,7.4-5.2,10.9c-3.4,7.1-6.6,13.6-9.4,19.2
				c-2.8,5.6-5.2,10.3-6.8,13.5C534.3,372,533.3,373.9,533.3,373.9z"/>
		</g>
	</g>
	<g>
		<g>
			<path d="M610.8,201.6c0,0-0.3,3.2-1,7.9c-0.4,2.4-0.8,5.1-1.3,8.1c-0.3,1.5-0.5,3-0.8,4.5s-0.6,3.1-0.9,4.7
				c-0.3,1.6-0.7,3.1-1,4.7c-0.3,1.5-0.7,3-1,4.5c-0.7,2.9-1.3,5.6-1.9,8c-1.2,4.6-2.2,7.7-2.2,7.7s0.3-3.2,1-7.9
				c0.3-2.4,0.8-5.1,1.3-8.1c0.3-1.5,0.5-3,0.8-4.5s0.6-3.1,0.9-4.7c0.3-1.6,0.7-3.1,1-4.7c0.3-1.5,0.7-3,1-4.5
				c0.7-2.9,1.3-5.6,1.9-8C609.9,204.7,610.8,201.6,610.8,201.6z"/>
		</g>
	</g>
	<g>
		<g>
			<path d="M593.7,243.9c0,0,2.9-1.4,7.4-3.2c2.2-0.9,4.8-2,7.7-3c1.4-0.5,2.9-1.1,4.4-1.6s3-1.1,4.5-1.6s3-1.1,4.5-1.6s3-1,4.4-1.5
				c2.9-0.9,5.6-1.8,7.9-2.5c4.6-1.4,7.8-2.1,7.8-2.1s-2.9,1.4-7.4,3.2c-2.2,0.9-4.8,2-7.7,3c-1.4,0.5-2.9,1.1-4.4,1.6
				s-3,1.1-4.5,1.6s-3,1.1-4.5,1.6s-3,1-4.4,1.5c-2.9,0.9-5.6,1.8-7.9,2.5C596.8,243.1,593.7,243.9,593.7,243.9z"/>
		</g>
	</g>
	<g>
		<g>
			<path d="M626.2,265.4c0,0,0.4-2,1.2-5.5c0.8-3.5,1.9-8.4,3.3-14.4c1.4-5.9,3.1-12.8,4.9-20.2c0.9-3.7,1.9-7.5,2.9-11.4
				s2-7.8,3-11.8c1-3.9,2.1-7.9,3.1-11.7c1-3.9,2-7.7,3-11.4c2-7.4,3.9-14.2,5.5-20.1c1.6-5.9,3.1-10.7,4.1-14.2
				c1-3.4,1.6-5.4,1.6-5.4s-0.4,2-1.2,5.5c-0.8,3.5-1.9,8.4-3.3,14.4c-1.4,5.9-3.1,12.8-4.9,20.2c-0.9,3.7-1.9,7.5-2.9,11.4
				s-2,7.8-3,11.8c-1,3.9-2.1,7.9-3.1,11.7c-1,3.9-2,7.7-3,11.4c-2,7.4-3.9,14.2-5.5,20.1s-3.1,10.7-4.1,14.2
				C626.8,263.5,626.2,265.4,626.2,265.4z"/>
		</g>
	</g>
	<g>
		<g>
			<path d="M600.7,235.3c0,0,1.2-1.4,3.3-3.7c2.1-2.3,5.1-5.7,8.7-9.7s7.9-8.7,12.5-13.6c2.3-2.5,4.7-5,7.1-7.6
				c2.4-2.6,4.9-5.2,7.4-7.8c2.5-2.6,5-5.2,7.4-7.8c2.5-2.6,4.9-5.1,7.2-7.5c4.7-4.9,9.1-9.4,12.9-13.2c3.8-3.8,7-7,9.2-9.2
				c2.3-2.2,3.5-3.5,3.5-3.5s-1.2,1.4-3.3,3.7c-2.1,2.3-5.1,5.7-8.7,9.7s-7.9,8.7-12.5,13.6c-2.3,2.5-4.7,5-7.1,7.6
				c-2.4,2.6-4.9,5.2-7.4,7.8c-2.5,2.6-5,5.2-7.4,7.8c-2.5,2.6-4.9,5.1-7.2,7.5c-4.7,4.9-9.1,9.4-12.9,13.2c-3.8,3.8-7,7-9.2,9.2
				C601.9,234,600.7,235.3,600.7,235.3z"/>
		</g>
	</g>
	<g>
		<g>
			<path d="M669.2,137.2c0,0-0.6,1.2-1.8,3.2c-1.2,2-2.8,4.9-4.8,8.3s-4.4,7.4-7,11.6c-1.3,2.1-2.6,4.3-4,6.5s-2.8,4.4-4.2,6.7
				c-1.4,2.2-2.8,4.5-4.2,6.7c-1.4,2.2-2.8,4.3-4.2,6.4c-2.7,4.2-5.3,8-7.5,11.3s-4.1,6-5.4,7.9c-1.3,1.9-2.1,3-2.1,3
				s0.6-1.2,1.8-3.2s2.8-4.9,4.8-8.3s4.4-7.4,7-11.6c1.3-2.1,2.6-4.3,4-6.5s2.8-4.4,4.2-6.7c1.4-2.2,2.8-4.5,4.2-6.6
				c1.4-2.2,2.8-4.3,4.2-6.4c2.7-4.2,5.3-8,7.5-11.3s4.1-6,5.4-7.9C668.4,138.2,669.2,137.2,669.2,137.2z"/>
		</g>
	</g>
	<g>
		<g>
			<path d="M670.4,201.6c-4.2,5.6-8.5,11.2-12.8,16.7c-4.3,5.6-8.6,11.1-12.9,16.6s-8.6,11.1-13,16.6L618.6,268l-1.5-1.1l7.6-12.4
				l7.6-12.3l15.3-24.6l15.5-24.5c2.6-4.1,5.2-8.1,7.8-12.2s5.2-8.1,7.9-12.2c-2.4,4.2-4.9,8.3-7.3,12.5c-2.5,4.2-4.9,8.3-7.4,12.5
				L649,218.6l-15.1,24.7l-7.6,12.4l-7.6,12.3l-1.5-1.1l13.2-16.4c4.4-5.5,8.8-10.9,13.3-16.3c4.4-5.4,8.8-10.9,13.3-16.3
				C661.4,212.4,665.9,207,670.4,201.6z"/>
		</g>
	</g>
	<g>
		<g>
			<path d="M676.4,183.2c0,0-0.8,0.9-2.2,2.3c-1.4,1.4-3.4,3.5-5.8,6c-2.4,2.5-5.3,5.3-8.4,8.3c-1.6,1.5-3.1,3.1-4.8,4.6
				c-1.6,1.6-3.3,3.1-5,4.7s-3.4,3.1-5,4.7c-1.7,1.6-3.3,3-4.9,4.5c-3.2,2.9-6.2,5.6-8.8,7.9s-4.8,4.1-6.3,5.4s-2.4,2-2.4,2
				s0.8-0.9,2.2-2.3c1.4-1.4,3.4-3.5,5.8-6s5.3-5.3,8.4-8.3c1.6-1.5,3.1-3.1,4.8-4.6c1.6-1.6,3.3-3.1,5-4.7c1.7-1.6,3.4-3.1,5-4.7
				c1.7-1.5,3.3-3,4.9-4.5c3.2-2.9,6.2-5.6,8.8-7.9c2.6-2.3,4.8-4.1,6.3-5.4S676.4,183.2,676.4,183.2z"/>
		</g>
	</g>
	<g>
		<g>
			<path d="M614.1,203.8c0.6,2.8,1.2,5.6,1.8,8.4s1.2,5.6,1.8,8.4c1.2,5.6,2.3,11.3,3.3,16.9c1.1,5.6,2.1,11.3,3.1,16.9l1.5,8.5
				l1.5,8.5l-1.5-0.5l7.1-6.2l7.1-6.1c2.4-2,4.8-4.1,7.2-6c2.4-2,4.8-4,7.2-6c-2.2,2.2-4.5,4.4-6.7,6.5c-2.2,2.2-4.5,4.3-6.8,6.5
				l-6.9,6.4l-6.9,6.3l-1.2,1.1l-0.3-1.6l-1.6-8.5l-1.5-8.5c-1-5.7-2-11.3-2.9-17c-1-5.7-1.9-11.3-2.7-17c-0.4-2.8-0.9-5.7-1.3-8.5
				C614.9,209.5,614.4,206.6,614.1,203.8z"/>
		</g>
	</g>
</g>
<g>
	<g>
		<path d="M533.4,183.2c0.6,1.2,1,2.2,1.5,3.3c0.2,0.5,0.5,1,0.7,1.4c0.1,0.2,0.3,0.4,0.4,0.6s0.3,0.4,0.4,0.6
			c0.1,0.1,0.2,0.2,0.2,0.3l0.4,0.2l0.8,0.4c0.5,0.2,1.1,0.5,1.6,0.7c1.1,0.5,2.2,0.9,3.3,1.3c2.2,0.8,4.5,1.6,6.7,2.4
			c1.1,0.4,2.3,0.7,3.4,1c0.6,0.1,1.1,0.3,1.7,0.4c0.3,0.1,0.6,0.1,0.8,0.1c0.3,0,0.6,0,0.6,0l1.5-0.7l-0.8,1.4l-4.1,7.5l-0.2,0.3
			l-0.3-0.1c-2.2-0.4-4.4-1-6.5-1.6c-2.1-0.7-4.2-1.5-6.2-2.6c-2-1-3.9-2.2-5.7-3.5c-0.9-0.6-1.8-1.3-2.7-2
			c-0.4-0.4-0.8-0.7-1.2-1.1c-0.2-0.2-0.4-0.4-0.5-0.6c-0.2-0.2-0.4-0.5-0.4-0.7c0,0.3,0.2,0.5,0.4,0.7c0.2,0.2,0.4,0.4,0.6,0.6
			c0.4,0.4,0.8,0.7,1.3,1.1c0.9,0.7,1.8,1.3,2.7,1.9c1.9,1.2,3.8,2.3,5.8,3.2c2,0.9,4.1,1.7,6.2,2.3c2.1,0.6,4.3,1.1,6.4,1.4
			l-0.5,0.2l3.9-7.5l0.7,0.8c-0.5,0.2-0.8,0.1-1.1,0.1c-0.3,0-0.6-0.1-0.9-0.1c-0.6-0.1-1.2-0.2-1.8-0.4c-1.2-0.3-2.3-0.6-3.5-1
			c-2.3-0.7-4.6-1.5-6.9-2.3c-1.1-0.4-2.3-0.8-3.4-1.3c-0.6-0.2-1.1-0.5-1.7-0.7c-0.6-0.2-1.1-0.5-1.8-0.8c-0.6-0.4-1.2-0.9-1.5-1.5
			c-0.4-0.6-0.6-1.2-0.8-1.9c-0.1-0.6-0.2-1.3-0.2-1.9C533,184.4,533.1,183.8,533.4,183.2z"/>
	</g>
</g>
<g>
	<g>
		<path d="M617.9,39c0,0-1.1,2.4-3.1,6.5s-5,10.1-8.7,17c-0.9,1.7-1.9,3.5-3.1,5.4c-0.5,0.9-1.1,1.8-1.7,2.8
			c-0.6,0.9-1.2,1.9-2.1,2.7c-1.7,1.5-3.5,3-5.3,4.6s-3.6,3.2-5.4,4.9c-3.6,3.4-7,7.1-10.3,11.1c-3.3,4-6.3,8.3-8.8,12.8l-0.9,1.7
			l-0.9,1.8c-0.6,1.2-1.2,2.3-1.8,3.5c-1.2,2.3-2.3,4.7-3.4,7.1c-2.2,4.7-4.4,9.3-6.5,13.8c-2.1,4.5-4.1,8.8-6,12.9
			c-1.9,4.1-3.7,8-5.4,11.6c-1.7,3.6-3.2,6.9-4.5,9.8c-1.4,2.9-2.6,5.4-3.6,7.5s-1.8,3.7-2.3,4.8c-0.5,1.1-0.8,1.7-0.8,1.7
			s0.2-0.6,0.7-1.8c0.4-1.2,1.1-2.8,2-5c0.9-2.1,1.9-4.7,3.1-7.7s2.7-6.3,4.2-10c1.6-3.6,3.2-7.6,5-11.7c1.9-4.1,3.8-8.5,5.8-13
			c2.1-4.5,4.1-9.2,6.4-13.8c1.1-2.3,2.3-4.7,3.5-7.1c0.6-1.2,1.2-2.4,1.8-3.5l0.9-1.8l1-1.8c5.2-9.3,12.3-17.4,19.6-24.1
			c1.8-1.7,3.7-3.3,5.5-4.8s3.6-3,5.3-4.5c0.7-0.7,1.4-1.6,2-2.5s1.2-1.8,1.8-2.7c1.1-1.8,2.2-3.6,3.2-5.3c4-6.8,7.1-12.7,9.2-16.7
			C616.7,41.4,617.9,39,617.9,39z"/>
	</g>
</g>
<g>
	<g>
		<path d="M809.6-6.1c0,0-0.1,1-0.3,2.8c-0.2,1.8-0.5,4.3-1,7.4c-0.5,3-1.1,6.6-1.8,10.4c-0.4,1.9-0.8,3.8-1.2,5.8
			c-0.5,2-0.9,4-1.4,6c-0.3,1-0.5,2-0.9,3l-0.5,1.5c-0.2,0.5-0.3,1-0.5,1.4c-0.7,1.9-1.5,3.8-2.3,5.5c-1.6,3.5-3.3,6.7-4.5,9.5
			c-0.6,1.4-1.2,2.7-1.6,3.8c-0.2,0.6-0.4,1.1-0.5,1.6s-0.2,1-0.3,1.4c-0.1,0.9-0.2,1.6-0.2,2.1s0,0.7,0,0.7s0-0.3-0.1-0.7
			c-0.1-0.5-0.1-1.2,0-2.1c0.1-0.5,0.1-1,0.2-1.5c0.1-0.5,0.2-1.1,0.3-1.7c0.3-1.2,0.7-2.6,1.2-4.1c1-2.9,2.5-6.2,4-9.7
			c0.7-1.8,1.4-3.6,2.1-5.5c0.2-0.5,0.3-1,0.5-1.4l0.4-1.4c0.3-1,0.5-2,0.8-2.9c0.5-2,1-3.9,1.5-5.9s0.9-3.9,1.4-5.7
			c0.9-3.7,1.7-7.2,2.4-10.2c0.7-3,1.3-5.5,1.8-7.2C809.3-5.1,809.6-6.1,809.6-6.1z"/>
	</g>
</g>
<g>
	<g>
		<path d="M851.5-22.8L841,2.6l-1.3,3.2c-0.2,0.5-0.5,1.1-0.6,1.6c-0.2,0.5-0.4,1.1-0.5,1.6c-0.5,2.2-0.6,4.5-0.8,6.8
			c-0.3,4.6-0.6,9.2-1.4,13.7c-0.4,2.3-0.9,4.5-1.6,6.8c-0.3,1.1-0.7,2.2-1.1,3.3c-0.5,1.1-0.9,2.2-1.4,3.2s-1,2.1-1.6,3.1
			c-0.5,1-1.1,2-1.7,3c-1.1,2-2.3,4-3.5,5.9c-1.2,2-2.5,3.9-3.7,5.8c-1.3,1.9-2.5,3.8-3.8,5.7c-2.6,3.8-5.2,7.6-8,11.2l-0.5,0.7
			l-0.3-0.8c-0.7-1.7-1.4-3.3-2.2-4.9c-0.8-1.6-1.6-3.2-2.6-4.7c-0.5-0.7-1-1.4-1.7-1.9c-0.2-0.2-0.4-0.4-0.5-0.8
			c-0.1-0.4,0-0.7,0.1-1c0.3-0.5,0.6-0.8,1-1.1c0.7-0.6,1.4-1.2,1.9-1.8c0.5-0.7,0.9-1.4,0.9-2.2c0-0.8-0.2-1.6-0.6-2.4
			c-0.2-0.4-0.4-0.8-0.7-1.1c-0.2-0.4-0.5-0.7-0.8-1.1c-1.1-1.4-2.3-2.7-3.5-4.1c-1.2-1.4-2.4-2.8-3.1-4.6c-0.3-0.9-0.6-1.9-0.5-2.8
			c0.1-1,0.5-1.8,0.4-2.6c-0.2-1.7-1.2-3.2-2.3-4.6c-1.1-1.3-2.5-2.6-3.9-3.6c-1.4-1.1-3-2-4.6-2.7c-1.6-0.7-3.3-1.3-5.1-1.3
			c-1.8-0.1-3.3,0.9-4.6,2.1c-1.3,1.2-2.3,2.7-3.3,4.2c-1.9,3.1-3.4,6.3-4.7,9.7l-0.1,0.1l-0.1-0.1c-1.3-1.1-2.5-2.3-3.7-3.6
			c-0.6-0.6-1.2-1.3-1.7-2c-0.3-0.3-0.5-0.7-0.8-1.1c-0.2-0.4-0.4-0.7-0.6-1.1c0.2,0.4,0.4,0.8,0.6,1.1c0.2,0.4,0.5,0.7,0.8,1
			c0.5,0.7,1.1,1.3,1.7,1.9c1.2,1.2,2.5,2.4,3.8,3.5h-0.2c1.2-3.4,2.7-6.7,4.6-9.9c0.9-1.6,2-3.1,3.3-4.4c0.7-0.6,1.4-1.2,2.2-1.7
			c0.4-0.2,0.9-0.4,1.3-0.5c0.2,0,0.4-0.1,0.7-0.1c0.2,0,0.5,0,0.7,0c1.9,0,3.7,0.6,5.3,1.3c1.7,0.7,3.3,1.7,4.7,2.7
			c1.5,1.1,2.9,2.3,4.1,3.7c1.2,1.4,2.3,3,2.5,5c0,0.5,0,1.1-0.1,1.5c-0.1,0.3-0.1,0.4-0.1,0.7c0,0.2-0.1,0.4-0.1,0.6
			c-0.1,0.8,0.1,1.7,0.4,2.5c0.7,1.6,1.8,3,3,4.3c1.2,1.4,2.4,2.7,3.5,4.2c0.3,0.4,0.6,0.7,0.8,1.1c0.3,0.4,0.5,0.8,0.7,1.2
			c0.5,0.8,0.8,1.8,0.8,2.8s-0.5,2-1.1,2.7c-0.6,0.8-1.3,1.4-2,1.9c-0.3,0.3-0.6,0.6-0.8,0.9c-0.1,0.1-0.1,0.2-0.1,0.3
			c0,0.1,0.1,0.2,0.2,0.3c0.3,0.3,0.8,0.6,1,1c0.3,0.4,0.6,0.7,0.9,1.1c1,1.5,1.9,3.1,2.7,4.8c0.8,1.6,1.5,3.3,2.2,5l-0.8-0.1
			c2.7-3.7,5.4-7.4,8-11.2c1.3-1.9,2.6-3.8,3.8-5.7c1.3-1.9,2.5-3.8,3.7-5.8c1.2-1.9,2.4-3.9,3.5-5.9c0.6-1,1.1-2,1.7-3
			s1.1-2,1.6-3.1c0.5-1,0.9-2.1,1.4-3.1c0.4-1.1,0.8-2.1,1.1-3.2c0.7-2.2,1.2-4.4,1.6-6.6c0.8-4.5,1.2-9.1,1.5-13.6
			c0.2-2.3,0.4-4.6,0.9-6.9c0.1-0.6,0.3-1.1,0.5-1.7c0.2-0.6,0.5-1.1,0.7-1.6l1.4-3.2L851.5-22.8z"/>
	</g>
</g>
<g>
	<g>
		<path d="M721.4,133.9c0,0-0.3,0.4-1.1,1c-0.7,0.6-1.8,1.3-3.3,2c-0.7,0.3-1.5,0.6-2.4,0.9c-0.5,0.1-0.9,0.2-1.4,0.3
			c-0.2,0-0.5,0-0.7,0.1c-0.3,0-0.6,0-0.9,0c-1.1-0.1-2.2-0.5-3.2-1.2c-0.9-0.6-1.7-1.4-2.5-2.1c-1.4-1.6-2.7-3.1-4-4.5
			c-0.6-0.7-1.3-1.3-1.9-2c-0.6-0.6-1.2-1.2-1.8-1.7c-1.1-1-2.1-1.9-2.8-2.4c-0.7-0.6-1.1-0.9-1.1-0.9s0.5,0.1,1.3,0.5
			c0.8,0.4,2,1,3.3,1.9c0.6,0.4,1.3,0.9,2,1.5c0.7,0.5,1.4,1.1,2.2,1.8c0.7,0.7,1.5,1.4,2.1,2.2c0.7,0.8,1.4,1.5,2.1,2.2
			c1.3,1.5,2.8,2.7,4.4,2.9c0.2,0,0.4,0.1,0.6,0.1c0.2,0,0.5,0,0.7,0c0.3,0,0.8-0.1,1.2-0.1c0.8-0.1,1.6-0.3,2.4-0.5
			c1.4-0.4,2.6-0.9,3.5-1.2C721,134.2,721.4,133.9,721.4,133.9z"/>
	</g>
</g>
<g>
	<g>
		<path d="M692.1,125.4c0,0,1.3,1.4,3,3.7c0.9,1.1,1.9,2.4,2.9,3.8c0.5,0.7,1.1,1.4,1.6,2.1s1.1,1.5,1.7,2.2
			c0.6,0.7,1.1,1.4,1.7,2.1c0.6,0.6,1.2,1.3,1.8,1.8c0.1,0.1,0.3,0.2,0.4,0.2s0.1,0,0.1,0.1l0,0l0,0l0,0c0.1,0-0.1,0-0.1,0l0,0h0.2
			c0.2,0,0.5,0,0.6,0c0.1,0,0.3,0,0.4-0.1c0.6-0.2,1.3-0.6,1.8-1c1.1-0.8,1.9-1.6,2.5-2.2s0.9-1,0.9-1s-0.2,0.4-0.6,1.2
			c-0.4,0.7-1,1.8-2,2.9c-0.5,0.5-1.2,1.1-2,1.5c-0.4,0.2-1.1,0.4-1.4,0.4h-0.2l0,0h-0.1l0,0h-0.1h-0.1c-0.2,0-0.4-0.1-0.5-0.1
			c-0.3-0.1-0.5-0.2-0.7-0.4c-0.9-0.6-1.6-1.2-2.2-1.9c-0.7-0.7-1.3-1.4-1.9-2.2c-0.6-0.8-1.2-1.5-1.7-2.3c-0.6-0.8-1-1.5-1.5-2.3
			c-1-1.5-1.8-2.9-2.5-4.2C692.8,127.2,692.1,125.4,692.1,125.4z"/>
	</g>
</g>
<g>
	<path d="M696.3,140.4c0,0,4.4,24.5,0,39.3c0,0,6.2-8.2,5.6-10.9c-0.6-2.8-1.5-7.1-1.5-7.1s1.5,0.5,3-1.7s3.3-10.7,1-11.2
		c-2.3-0.5-1.2-3.5-1.2-3.5L696.3,140.4z"/>
</g>
<g>
	<path d="M669.2,139.5c0,0,3.9,1.2,3.6,2.7l-15.7,51.2l-16.8,41.8L669.2,139.5z"/>
</g>
<g>
	<path d="M588.7,228.6c0,0-3.5,15.3-3.2,20s7.2-8.8,12.7-15s31.3-53.9,31.3-53.9l18-37.7c0,0-28.3,50.1-32.5,56.1
		s-16.7,34.3-22.4,35.4C587.1,234.7,588.7,228.6,588.7,228.6z"/>
</g>
<g>
	<polygon points="563,187.7 576.4,224.2 581.8,218.2 567.1,184.6 	"/>
</g>
<g>
	<path d="M629.7,149.7l-8.3,8l26.1-52.2c0,0-1.9-0.8-9.9,7S590.9,160,590.9,160l25.7-33.7l37.8-42v-9.7l13.1-21.1c0,0,0.4,0.9,3.1,0
		s16.5-27.6,16.5-27.6l3.2-8.4l9.6,4.9c0,0-16.7,34.2-17.3,36.7c-0.7,2.5,1.8,0.2,1.8,0.2l-9.8,17.9c0,0-11.3,19.1-11.7,26
		c0,0-10.3,8.3-18.5,21.2C636.2,137.3,629.7,149.7,629.7,149.7z"/>
</g>
<g>
	<g>
		<path d="M792.4-161.2c0.8,1.3,1.5,2.6,2.2,3.9l0.1,0.2l-0.1,0.3c-0.9,2.3-1.9,4.5-3.1,6.6c-0.3,0.5-0.6,1.1-0.9,1.6
			c-0.2,0.3-0.3,0.5-0.5,0.8l-0.5,0.7c-0.2,0.3-0.2,0.4-0.3,0.6c-0.1,0.2-0.1,0.4-0.2,0.6c-0.1,0.4,0,0.9,0.1,1.5
			c0.3,1.1,0.6,2.4,0.6,3.8v0.4v0.1l0,0c0,0,0-0.1-0.1-0.2c-0.1-0.1-0.2-0.2-0.3-0.2s-0.2,0-0.3,0c-0.1,0-0.1,0.1-0.1,0
			c0,0,0.1-0.1,0.2-0.2c0.4-0.3,0.7-0.8,1.1-1.3c0.7-0.9,1.4-1.9,2.1-2.9c0.7-1,1.4-2,2.1-3c-0.4,1.2-0.8,2.3-1.3,3.4
			c-0.5,1.1-1,2.2-1.6,3.3c-0.3,0.5-0.6,1.1-1.1,1.6c-0.1,0.1-0.2,0.3-0.5,0.4c-0.1,0.1-0.3,0.2-0.5,0.2s-0.3,0-0.5,0
			s-0.4-0.1-0.5-0.3c-0.2-0.2-0.3-0.5-0.3-0.6c0-0.1,0-0.2-0.1-0.2v-0.1v-0.5c-0.1-1.1-0.4-2.1-0.7-3.4c-0.1-0.6-0.3-1.3-0.2-2.1
			c0-0.4,0.1-0.8,0.3-1.1c0.1-0.4,0.4-0.8,0.5-1l0.5-0.7c0.2-0.2,0.3-0.5,0.5-0.7l1-1.5l3.8-6.2v0.4
			C793.2-158.3,792.8-159.8,792.4-161.2z"/>
	</g>
</g>
<g>
	<g>
		<path d="M686.7-118.6c0,0-1,1.7-2.6,4.6c-1.7,2.9-4.1,7.1-7.1,12c-1.5,2.5-3.2,5.1-5,7.9c-1.8,2.8-3.7,5.7-5.9,8.6
			c-0.6,0.7-1.1,1.5-1.7,2.1l-0.9,1l-0.9,1.1c-0.6,0.7-1,1.5-1.6,2.2c-0.5,0.8-0.9,1.6-1.4,2.4c-1.8,3.3-3.4,6.8-5,10.3
			c-1.5,3.5-2.9,7.1-4.2,10.6c-1.3,3.5-2.5,7.1-3.4,10.5c-0.5,1.7-0.9,3.4-1.2,5.1c-0.2,0.8-0.2,1.7-0.3,2.5c0,0.8-0.1,1.7-0.1,2.5
			c-0.1,3.3,0,6.4,0.1,9.3c0.1,5.8,0.3,10.5,0.5,13.9c0.1,3.4,0.2,5.3,0.2,5.3s-0.2-1.9-0.4-5.3c-0.2-3.4-0.6-8.1-0.8-13.9
			c-0.1-2.9-0.2-6-0.2-9.3c0-0.8,0-1.7,0.1-2.5c0.1-0.9,0.1-1.7,0.3-2.6c0.3-1.7,0.7-3.5,1.2-5.2c0.9-3.5,2.1-7,3.3-10.6
			c1.3-3.6,2.7-7.2,4.2-10.7s3.2-7,5.1-10.3c0.5-0.8,1-1.6,1.5-2.4c0.6-0.8,1-1.6,1.6-2.3l0.9-1.1l0.9-1c0.6-0.7,1.1-1.4,1.7-2.1
			c4.3-5.7,8-11.4,11.1-16.2c3.1-4.8,5.7-8.9,7.4-11.8C685.7-117,686.7-118.6,686.7-118.6z"/>
	</g>
</g>
<g>
	<g>
		<path d="M627.3,2.7c0,0,0.4-2.1,1.1-5.8c0.8-3.7,1.8-8.9,3.1-15.2c0.7-3.1,1.4-6.6,2.2-10.2c0.7-3.6,1.7-7.4,2.7-11.3
			c2.1-7.8,4.5-16,7.4-24.2c1.5-4.1,2.9-8.1,4.9-12l0.4-0.7l0.4-0.7c0.3-0.5,0.6-1,0.9-1.4c0.6-0.9,1.2-1.7,1.8-2.6
			c1.2-1.7,2.4-3.4,3.5-5c4.6-6.6,9-12.7,12.8-17.9c3.8-5.2,7-9.5,9.2-12.6c2.2-3,3.5-4.7,3.5-4.7s-1.2,1.8-3.2,5
			c-2.1,3.1-5,7.6-8.6,13s-7.8,11.6-12.3,18.2c-1.1,1.7-2.3,3.4-3.5,5.1c-0.6,0.9-1.2,1.7-1.8,2.6c-0.3,0.4-0.6,0.9-0.8,1.3
			l-0.4,0.6l-0.3,0.7c-1.8,3.7-3.3,7.7-4.7,11.7c-1.4,4-2.8,8.1-4,12.1c-1.2,4-2.5,8-3.6,11.9s-2.1,7.6-3,11.2
			c-0.9,3.6-1.7,7-2.5,10.1c-1.6,6.2-2.9,11.4-3.9,15.1C627.8,0.7,627.3,2.7,627.3,2.7z"/>
	</g>
</g>
<g>
	<path d="M688.9-1.3l30.2,18.9c0,0-6.7,8-6.2,12.8c0,0-26.1-13.7-32.7-19.1C680.2,11.4,687.8,3.4,688.9-1.3z"/>
</g>
<g>
	<path d="M741.7,30.5c0,0-4,10.2-7.1,12l34.6,17.6c0,0,5.5-5.1,5-12.2l-24.2-13L741.7,30.5z"/>
</g>
<g>
	<path d="M710.4,9.6c0,0,3.4,0,4.8-2.4c1.4-2.4,2.8-3.6,7-1c4.2,2.6,24.2,14.4,25.8,16.1s2.2,5.8-1.8,5.4s-5.6-1.8-5.6-1.8
		s0.5-2.5-3.1-2.9c-3.6-0.4-5.8-0.1-5.8-0.1s-2.5-3.4-4-5.4s-4.2-1.5-6.3-0.8L710.4,9.6z"/>
</g>
<g>
	<path d="M487.5-200.2c-5.3-0.2-6.1,2.9-8.6,3c-2.5,0.2-6.7-3.1-6.7-3.1s0.4,1.5-2.3,14.7s-8.8,45.9-8.8,45.9s12.2,1.1,16.6,4.4
		c4.4,3.2,11,7.2,11,7.2s-1-8.4,2.7-9.1s5-1.5,5-1.5L487.5-200.2z"/>
</g>
<g>
	<path d="M457.6-137.9c0,0-18.7,7.6-19.4,11.8c-0.7,4.2,0,4.2,7.2,5.3s45.1,3.8,48.4,3.8c3.2,0,21.5-7.4,22.7-8.2
		c1.1-0.8,2.9-4.4,0-5c-2.9-0.6-20.2,8.6-29.7,8.2c-9.5-0.4-22.3-3.6-31.2-4.2c-9-0.6-14.3,0.1-14.7-1.3S457.6-137.9,457.6-137.9z"
		/>
</g>
<g>
	<g>
		<path d="M473.1-201.6c0,0,0-0.3,0.4-0.5c0.4-0.3,0.9-0.5,1.6-0.6c0.3-0.1,0.7-0.1,1.1-0.1c0.4,0,0.8,0,1.3,0s0.9,0.1,1.4,0.2
			c0.2,0.1,0.5,0.1,0.7,0.2c0.2,0.1,0.3,0.1,0.5,0.1c0.3,0,0.8,0,1.2,0c0.4,0,0.9,0,1.3-0.1c0.9,0,1.7,0,2.4,0.1
			c0.7,0.1,1.3,0.3,1.6,0.4c0.4,0.1,0.6,0.3,0.6,0.3s-0.2,0-0.6,0s-1,0.1-1.6,0.2c-0.7,0.1-1.4,0.2-2.2,0.3
			c-0.4,0.1-0.8,0.1-1.3,0.2c-0.5,0.1-0.9,0.1-1.5,0c-0.3,0-0.6-0.1-0.8-0.2c-0.2-0.1-0.4-0.2-0.6-0.2c-0.4-0.1-0.8-0.2-1.1-0.3
			c-0.4-0.1-0.8-0.1-1.2-0.2c-0.4,0-0.7-0.1-1-0.1c-0.6-0.1-1.2-0.1-1.6,0C473.3-201.7,473.1-201.6,473.1-201.6z"/>
	</g>
</g>
<g>
	<g>
		<path d="M498.3-137.9c0,0,1.3,0.1,3.1,0.5c0.9,0.2,2,0.4,3.1,0.8c1.1,0.3,2.3,0.7,3.5,1.1c0.6,0.2,1.2,0.5,1.7,0.7
			c0.6,0.2,1.1,0.5,1.7,0.8c1.1,0.5,2,1.1,2.8,1.6s1.4,1.1,1.7,1.6c0.2,0.2,0.3,0.4,0.3,0.6c0.1,0.1,0.1,0.2,0.1,0.2
			s-0.1-0.1-0.1-0.2c-0.1-0.1-0.3-0.2-0.5-0.4c-0.4-0.3-1.1-0.6-2-1c-1.7-0.7-4-1.6-6.3-2.4c-1.2-0.4-2.3-0.9-3.4-1.3
			c-1.1-0.4-2.1-0.8-3-1.2C499.4-137.3,498.3-137.9,498.3-137.9z"/>
	</g>
</g>
<g>
	<path d="M423.5,222.5c-9.5-0.3-10.9,5.1-15.3,5.4c-4.4,0.3-11.9-5.5-11.9-5.5s0.7,2.7-4.1,26.2c-4.8,23.5-15.6,81.9-15.6,81.9
		s21.8,2,29.6,7.8c7.8,5.8,19.7,12.9,19.7,12.9s-1.7-15,4.8-16.3c6.5-1.4,8.8-2.7,8.8-2.7L423.5,222.5z"/>
</g>
<g>
	<path d="M370.1,333.7c0,0-33.3,13.6-34.7,21.1s0,7.5,12.9,9.5c12.9,2,80.6,6.8,86.3,6.8c5.8,0,38.4-13.3,40.5-14.6
		c2-1.4,5.1-7.8,0-8.8s-36,15.3-53,14.6s-39.8-6.5-55.8-7.5s-25.5,0.2-26.2-2.4C339.5,349.8,370.1,333.7,370.1,333.7z"/>
</g>
<g>
	<g>
		<path d="M397.9,220.2c0,0,0-0.1,0.1-0.3c0.1-0.2,0.3-0.4,0.6-0.6c0.6-0.5,1.7-0.8,2.9-1.1c0.6-0.1,1.3-0.2,2-0.2
			c0.4,0,0.7,0,1.1,0s0.7,0,1.1,0c0.8,0,1.6,0.1,2.5,0.4c0.4,0.1,0.9,0.3,1.2,0.4c0.3,0.1,0.6,0.2,0.9,0.2c0.6,0.1,1.4,0.1,2.1,0
			c0.7,0,1.5-0.1,2.3-0.1c1.6,0,3,0.1,4.2,0.3c1.2,0.2,2.2,0.5,2.9,0.7c0.7,0.3,1,0.5,1,0.5s-0.4,0-1.1,0.1c-0.7,0-1.7,0.2-2.9,0.3
			c-0.6,0.1-1.2,0.2-1.9,0.2c-0.7,0.1-1.4,0.2-2.1,0.3c-0.4,0.1-0.7,0.1-1.1,0.2c-0.4,0.1-0.8,0.1-1.2,0.2c-0.8,0.1-1.7,0.1-2.7,0
			c-0.5-0.1-1-0.2-1.4-0.4c-0.4-0.2-0.7-0.3-1-0.4c-0.6-0.2-1.4-0.4-2-0.5c-0.7-0.1-1.4-0.2-2.1-0.4c-0.7-0.1-1.3-0.2-1.9-0.2
			c-1.1-0.1-2.1-0.1-2.8,0c-0.3,0.1-0.6,0.1-0.7,0.2C397.9,220.1,397.9,220.2,397.9,220.2z"/>
	</g>
</g>
<g>
	<g>
		<path d="M442.7,333.7c0,0,0.6,0,1.5,0.2c1,0.1,2.4,0.3,4,0.7c0.8,0.2,1.7,0.4,2.7,0.6c0.9,0.2,1.9,0.5,2.9,0.8
			c2,0.6,4.2,1.2,6.3,2c1.1,0.4,2.1,0.8,3.1,1.2s2,0.9,3,1.4c1,0.4,1.9,0.9,2.7,1.4c0.9,0.5,1.6,1,2.3,1.5c1.4,1,2.5,2,3.1,2.8
			c0.2,0.2,0.3,0.4,0.4,0.6c0.1,0.2,0.2,0.3,0.2,0.5c0.1,0.3,0.1,0.4,0.1,0.4s-0.1-0.1-0.3-0.3c-0.2-0.2-0.5-0.4-0.8-0.7
			c-0.8-0.5-2-1.2-3.5-1.8c-0.8-0.3-1.6-0.7-2.5-1s-1.8-0.7-2.8-1.1c-1.9-0.7-4-1.5-6.1-2.2c-1-0.4-2.1-0.8-3.1-1.2s-2-0.8-3-1.2
			s-1.9-0.8-2.8-1.1c-0.9-0.3-1.7-0.7-2.5-1c-1.5-0.6-2.8-1.2-3.7-1.7C443.2,334,442.7,333.7,442.7,333.7z"/>
	</g>
</g>
<g>
	<path d="M551.4-97.4c-5.3-0.2-6.1,2.9-8.6,3c-2.5,0.2-6.7-3.1-6.7-3.1s0.4,1.5-2.3,14.7S525-36.9,525-36.9s12.2,1.1,16.6,4.4
		s11,7.2,11,7.2s-1-8.4,2.7-9.1s5-1.5,5-1.5L551.4-97.4z"/>
</g>
<g>
	<path d="M521.5-35.1c0,0-18.7,7.6-19.4,11.8c-0.8,4.2,0,4.2,7.2,5.3c7.2,1.1,45.1,3.8,48.4,3.8c3.2,0,21.5-7.4,22.7-8.2
		c1.1-0.8,2.9-4.4,0-5c-2.9-0.6-20.2,8.6-29.7,8.2c-9.5-0.4-22.3-3.6-31.2-4.2c-8.9-0.6-14.3,0.1-14.7-1.3S521.5-35.1,521.5-35.1z"
		/>
</g>
<g>
	<g>
		<path d="M537.1-98.7c0,0,0-0.3,0.4-0.5c0.4-0.3,0.9-0.5,1.6-0.6c0.3-0.1,0.7-0.1,1.1-0.1c0.4,0,0.8,0,1.3,0s0.9,0.1,1.4,0.2
			c0.2,0.1,0.5,0.1,0.7,0.2c0.2,0.1,0.3,0.1,0.5,0.1c0.3,0,0.8,0,1.2,0c0.4,0,0.9,0,1.3-0.1c0.9,0,1.7,0,2.4,0.1s1.3,0.3,1.6,0.4
			c0.4,0.1,0.6,0.3,0.6,0.3s-0.2,0-0.6,0c-0.4,0-1,0.1-1.6,0.2c-0.7,0.1-1.4,0.2-2.2,0.3c-0.4,0.1-0.8,0.1-1.3,0.2
			c-0.5,0.1-0.9,0.1-1.5,0c-0.3,0-0.6-0.1-0.8-0.2c-0.2-0.1-0.4-0.2-0.6-0.2c-0.4-0.1-0.8-0.2-1.1-0.3c-0.4-0.1-0.8-0.1-1.2-0.2
			c-0.4,0-0.7-0.1-1-0.1c-0.6-0.1-1.2-0.1-1.6,0C537.2-98.9,537.1-98.7,537.1-98.7z"/>
	</g>
</g>
<g>
	<g>
		<path d="M562.2-35.1c0,0,1.3,0.1,3.1,0.5c0.9,0.2,2,0.4,3.1,0.8c1.1,0.3,2.3,0.7,3.5,1.1c0.6,0.2,1.2,0.5,1.7,0.7
			c0.6,0.2,1.1,0.5,1.7,0.8c1.1,0.5,2,1.1,2.8,1.6c0.8,0.5,1.4,1.1,1.7,1.6c0.2,0.2,0.3,0.4,0.3,0.6c0.1,0.1,0.1,0.2,0.1,0.2
			s-0.1-0.1-0.1-0.2c-0.1-0.1-0.3-0.2-0.5-0.4c-0.4-0.3-1.1-0.6-2-1c-1.7-0.7-4-1.6-6.3-2.4c-1.2-0.4-2.3-0.9-3.4-1.3
			c-1.1-0.4-2.1-0.8-3-1.2C563.4-34.5,562.2-35.1,562.2-35.1z"/>
	</g>
</g>
<g>
	<g>
		<path d="M856-130.5c0,0,0.1,0.2,0.2,0.6c0.1,0.4,0.2,1,0.2,1.7c0,0.4-0.1,0.8-0.3,1.2c-0.2,0.4-0.4,0.8-0.8,1.1
			c-0.2,0.2-0.4,0.3-0.6,0.5c-0.2,0.1-0.4,0.2-0.7,0.4c-0.2,0.1-0.4,0.2-0.6,0.2c-0.2,0.1-0.5,0.1-0.7,0.2c-0.5,0.1-1,0.1-1.4,0.1
			c-0.5,0-0.9-0.1-1.4-0.1c-0.9-0.1-1.7-0.4-2.3-0.6c-1.3-0.5-2.1-1-2.1-1s0.9,0.2,2.2,0.4c0.7,0.1,1.4,0.2,2.3,0.3
			c0.4,0,0.8,0,1.3,0c0.4,0,0.9,0,1.3-0.1c0.2,0,0.4-0.1,0.6-0.1c0.2-0.1,0.4-0.1,0.6-0.2c0.2-0.1,0.3-0.2,0.5-0.3s0.3-0.2,0.5-0.3
			c0.3-0.2,0.5-0.5,0.7-0.8s0.3-0.6,0.4-0.9c0.2-0.6,0.2-1.2,0.2-1.6C856-130.2,856-130.5,856-130.5z"/>
	</g>
</g>
<g>
	<path d="M857.8-128.6c-0.3,0-0.6,0-0.9-0.1c-0.3-0.1-0.4-0.4-0.3-0.6s0.4-0.4,0.6-0.3c4.4,1.4,14.5-13.2,18-18.9
		c0.1-0.2,0.5-0.3,0.7-0.2s0.3,0.5,0.2,0.7C874.8-146,863.9-128.6,857.8-128.6z"/>
</g>
<g>
	<g>
		<path d="M823.2-148.3c3.3-0.7,6.7-1.4,10-2.2c1.7-0.4,3.3-0.8,4.9-1.4c0.8-0.3,1.6-0.5,2.4-0.8c0.4-0.2,0.8-0.3,1.1-0.5
			c0.3-0.2,0.7-0.5,0.7-0.6c0.1-0.2,0.3-0.4,0.5-0.3l0,0l0,0l2.3,0.6c0.3,0.1,0.4,0.3,0.4,0.6c0,0.1-0.1,0.2-0.2,0.3l0,0
			c-3.2,2.2-6.5,4.2-10,5.9c-0.9,0.4-1.8,0.8-2.7,1.2c-0.4,0.2-0.9,0.4-1.4,0.5c-0.5,0.2-0.9,0.4-1.4,0.5c-0.5,0.1-0.9,0.3-1.4,0.4
			l-1.5,0.3l-1.5,0.2c-0.5,0-1.1,0-1.6-0.1l0.7-1.3l2.4,2.4l-0.7-0.2c1.9-0.4,3.9-0.9,5.8-1.5c1.9-0.5,3.8-1.2,5.7-1.8
			c0.9-0.3,1.9-0.7,2.8-1.1c0.9-0.4,1.8-0.8,2.7-1.2s1.8-0.8,2.7-1.3c0.4-0.2,0.9-0.5,1.3-0.7l1.3-0.8l0,0c0.1-0.1,0.2-0.1,0.3-0.1
			l3-0.5c0.5-0.1,1,0.3,1.1,0.8c0.1,0.4-0.1,0.7-0.4,0.9l0,0l-9.6,6.8c-3.2,2.3-6.4,4.5-9.6,6.7l-1-1.7l22.8-10.9
			c0.4-0.2,0.9,0,1.1,0.4c0.1,0.3,0.1,0.6,0,0.8c-1.6,2.6-3.2,5.1-4.8,7.6l-4.8,7.6l-1.1-0.8l7.2-7.6c2.4-2.5,4.8-5,7.2-7.5l0,0
			c0.1-0.1,0.3-0.1,0.5,0l0.1,0.1c0.2,0.6,0.4,1.3,0.6,1.9c0.2,0.6,0.3,1.3,0.4,1.9c0.1,0.7,0.2,1.3,0.2,2s0.1,1.3,0,2
			c0,0.3,0,0.7,0,1s0,0.7-0.1,1c-0.1,0.7-0.2,1.3-0.3,1.9c-0.1,0.3-0.1,0.6-0.2,1l-0.3,0.9c-0.2,0.6-0.4,1.2-0.7,1.8
			c0.2-0.6,0.4-1.2,0.6-1.9l0.2-1c0.1-0.3,0.1-0.6,0.2-1c0.1-0.6,0.2-1.3,0.2-1.9c0-0.3,0-0.6,0-1c0-0.3,0-0.6,0-1
			c0-0.6-0.1-1.3-0.1-1.9c-0.1-0.6-0.2-1.3-0.3-1.9c-0.1-0.6-0.3-1.3-0.5-1.9c-0.2-0.6-0.4-1.2-0.6-1.8l0.6,0.1
			c-2.3,2.6-4.6,5.2-6.9,7.8l-7,7.7c-0.2,0.3-0.7,0.3-0.9,0c-0.2-0.2-0.3-0.6-0.1-0.8l0,0l4.6-7.7c1.5-2.6,3.1-5.1,4.6-7.7l1.1,1.2
			l-22.7,11.1c-0.5,0.2-1.1,0-1.3-0.4c-0.2-0.4-0.1-0.9,0.3-1.2l0,0c3.2-2.3,6.4-4.5,9.6-6.8l9.7-6.7l0.7,1.7l-3,0.5l0.3-0.1
			l-1.3,0.8c-0.4,0.3-0.9,0.5-1.4,0.7c-0.9,0.5-1.8,0.9-2.8,1.3c-0.9,0.4-1.9,0.8-2.8,1.2c-0.9,0.4-1.9,0.7-2.9,1.1
			c-1.9,0.7-3.9,1.3-5.8,1.8c-2,0.5-3.9,1-5.9,1.4l0,0c-0.3,0.1-0.5,0-0.7-0.2l-2.4-2.4c-0.3-0.3-0.3-0.8,0-1.1
			c0.2-0.2,0.4-0.2,0.6-0.2h0.1c0.4,0,0.9,0.1,1.3,0.1l1.3-0.1l1.4-0.3c0.5-0.1,0.9-0.2,1.3-0.4c0.5-0.1,0.9-0.3,1.3-0.4
			c0.4-0.2,0.9-0.3,1.3-0.5c0.9-0.3,1.8-0.7,2.6-1.1c3.4-1.6,6.8-3.5,10-5.6l0.1,0.9l-2.2-0.7l0.6-0.3c-0.1,0.4-0.4,0.6-0.6,0.7
			c-0.2,0.2-0.4,0.3-0.6,0.4c-0.4,0.2-0.8,0.4-1.2,0.5c-0.8,0.3-1.6,0.5-2.5,0.8c-1.7,0.4-3.3,0.8-5,1.2
			C829.9-149.4,826.5-148.8,823.2-148.3z"/>
	</g>
</g>
</svg>
