<svg width="886" height="auto" viewBox="0 0 886 675" fill="none" xmlns="http://www.w3.org/2000/svg" preserveAspectRatio="none">
<path d="M824.624 65.7936C824.624 65.7936 821.595 117.888 807.041 138.857C792.487 159.827 754.951 220.033 749.748 233.732C744.546 247.432 723.209 277.595 712.343 318.032C701.477 358.47 662.426 396.504 660.977 405.517C659.528 414.53 674.213 420.178 650.308 432.135C626.469 444.092 575.828 498.829 570.954 518.297C570.954 518.297 574.642 449.98 589.854 428.89C605.067 407.8 610.928 399.748 619.489 396.624C628.05 393.5 627.062 337.8 634.964 317.732C642.867 297.663 654.457 269.483 654.457 269.483" fill="none" stroke="#000"/>
</svg>
