<?xml version="1.0" encoding="utf-8"?>
<!-- Generator: Adobe Illustrator 19.0.0, SVG Export Plug-In . SVG Version: 6.00 Build 0)  -->
<svg version="1.1" id="Layer_1" xmlns="http://www.w3.org/2000/svg" xmlns:xlink="http://www.w3.org/1999/xlink" x="0px" y="0px"
	 viewBox="0 0 440.7 440.7" style="enable-background:new 0 0 440.7 440.7;" xml:space="preserve">
<style type="text/css">
	.st0{fill:#353535;}
</style>
<g>
	<path class="st0" d="M220.3,0C98.6,0,0,98.6,0,220.3s98.6,220.3,220.3,220.3S440.7,342,440.7,220.3S342,0,220.3,0z M390.7,321
		c-3.7-2.4-8.7-5.7-14.6-9.3c-3.3-2.1-7-4.4-10.8-6.7c-3.9-2.4-7.9-4.9-12.1-7.4c-4.2-2.5-8.6-5.2-13.1-7.7c-0.5-0.3-1-0.6-1.5-0.9
		c-3.3-3.6-6.6-7.4-10.1-11.1c-4.6-5-9.3-10.2-14-15.3c-4.7-5.1-9.5-10.2-14.2-15.2c-3.1-3.3-6.1-6.5-9.1-9.7
		c0.6,0.1,1.2,0.2,1.8,0.3c4.5,0.7,9.1,1.5,14,2.2c4.9,0.7,9.9,1.6,15,2.3c5.1,0.7,10.3,1.5,15.5,2.2c4.8,0.6,9.6,1.2,14.3,1.9
		c1,0.4,2,0.9,3,1.3c5.9,2.7,11.7,5.2,17.2,7.7c5.5,2.4,10.7,4.7,15.4,6.8c9.6,4.2,17.6,7.5,23.2,9.8c0.3,0.1,0.5,0.2,0.8,0.3
		C406.6,289.8,399.6,306,390.7,321z M380.4,336.6c-3.8-4.5-8.8-10.3-14.7-17.1c-3.4-3.9-7.2-8.2-11.1-12.7c-1.9-2.2-3.9-4.4-5.9-6.7
		c0.8,0.4,1.6,0.9,2.3,1.3c4.3,2.4,8.5,4.6,12.5,6.8c4,2.2,7.8,4.1,11.2,6c6.1,3.2,11.4,5.9,15.4,7.9
		C387,327,383.8,331.9,380.4,336.6z M331.5,384c-2-5-4.4-11.2-7.3-18.2c-2-4.8-4.1-10.1-6.4-15.6c-1.1-2.7-2.3-5.4-3.5-8.3
		c0.6,0.7,1.2,1.3,1.8,2c3.3,3.7,6.5,7.1,9.6,10.5c3.1,3.3,6,6.4,8.7,9.3c3.9,4.1,7.3,7.7,10.2,10.6
		C340.4,377.6,336,380.9,331.5,384z M290.5,405.5c0-0.1-0.1-0.2-0.1-0.4c-1.5-4.4-3.6-10.6-6.3-18c-1.3-3.7-2.8-7.7-4.4-11.9
		c-1.6-4.2-3.2-8.7-5-13.3c-1.8-4.6-3.6-9.3-5.5-14.1c-0.2-0.5-0.4-1.1-0.6-1.6c-0.3-4.9-0.7-9.9-1.1-15c-0.5-6.8-1.1-13.8-1.7-20.7
		c-0.6-6.9-1.2-13.9-1.8-20.7c-0.2-2.4-0.4-4.8-0.7-7.2c1,1.3,2.1,2.6,3.2,3.9c2.9,3.5,5.9,7.2,9.1,10.9c3.2,3.7,6.4,7.7,9.8,11.6
		c3.4,3.9,6.8,7.9,10.3,11.8c3.2,3.6,6.4,7.2,9.5,10.8c0.5,1,0.9,2,1.4,3c2.7,5.9,5.4,11.6,7.9,17.1c2.5,5.4,5,10.5,7.2,15.2
		c3.3,6.9,6.3,13,8.7,17.9C317.9,393.1,304.6,400.1,290.5,405.5z M272.2,411.5c-0.2-6.1-0.6-14.5-1.2-24.6c-0.3-5.2-0.6-10.9-1-16.8
		c-0.2-2.9-0.4-5.9-0.6-8.9c0.3,0.8,0.7,1.6,1,2.4c1.9,4.5,3.9,8.9,5.7,13c1.8,4.1,3.6,8,5.2,11.6c3.2,7.2,6.1,13.1,8,17.3
		c0.1,0.1,0.1,0.2,0.2,0.3C283.9,408,278.1,409.9,272.2,411.5z M222.1,402.3c-0.1-3.9-0.1-8.2-0.3-12.7c-0.1-4.5-0.2-9.3-0.5-14.2
		c-0.2-4.9-0.4-10-0.6-15.2c0-0.6-0.1-1.1-0.1-1.7c1.3-4.7,2.6-9.6,3.8-14.5c1.7-6.6,3.4-13.4,5.1-20.1c1.7-6.8,3.3-13.5,5-20.2
		c1.6-6.4,3.1-12.8,4.5-19c1,2.7,2,5.5,3.1,8.4c1.6,4.2,3.2,8.7,5,13.3c1.8,4.6,3.6,9.3,5.5,14.1c1.9,4.8,3.9,9.7,5.8,14.5
		c1.8,4.5,3.7,8.9,5.5,13.3c0.1,1.1,0.2,2.2,0.3,3.2c0.6,6.5,1.3,12.8,1.9,18.7c0.6,5.9,1.3,11.6,1.9,16.8c1.1,10.1,2.2,18.6,3,24.6
		c-15.6,4.2-32,6.6-49,6.9C222.2,414.3,222.2,408.7,222.1,402.3z M151.9,407.1c1.5-3.3,3.2-7.2,5-11.6c1.5-3.6,3.2-7.6,4.9-11.7
		c1.7-4.2,3.5-8.6,5.3-13.2c1.8-4.6,3.7-9.3,5.6-14.1c0.2-0.5,0.4-1.1,0.6-1.6c3.1-3.8,6.2-7.7,9.4-11.7c4.2-5.4,8.6-10.8,12.9-16.3
		c4.3-5.5,8.5-11,12.7-16.4c1.6-2.1,3.2-4.1,4.8-6.2c0.1,3.1,0.2,6.4,0.3,9.7c0.2,4.9,0.4,10,0.6,15.2c0.3,5.2,0.5,10.4,0.8,15.6
		c0.3,4.8,0.6,9.6,0.9,14.4c-0.3,1.1-0.5,2.1-0.8,3.2c-1.5,6.3-2.9,12.5-4.3,18.3c-1.4,5.8-2.6,11.3-3.7,16.4
		c-1.8,8.2-3.3,15.3-4.4,20.8C185,416.6,168,412.8,151.9,407.1z M135.8,400.5c3.4-3.9,7.3-8.7,11.8-14c3.3-4,7-8.4,10.7-13
		c1.8-2.3,3.7-4.6,5.7-6.9c-0.3,0.8-0.6,1.7-0.9,2.5c-1.7,4.6-3.2,9.1-4.7,13.4c-1.5,4.3-2.9,8.3-4.1,12c-1.5,4.5-2.8,8.5-3.9,12
		C145.4,404.7,140.5,402.7,135.8,400.5z M92.8,373.7c2.5-2.7,5.3-5.8,8.4-9.3c2.6-2.9,5.5-6.1,8.5-9.5c3-3.4,6.1-7,9.3-10.7
		c3.2-3.7,6.5-7.6,9.9-11.5c0.4-0.4,0.7-0.9,1.1-1.3c4.2-2.6,8.4-5.3,12.7-8c5.8-3.7,11.6-7.5,17.5-11.2c5.8-3.8,11.6-7.6,17.4-11.4
		c5.6-3.6,11-7.3,16.2-10.8c-1.1,2.6-2.3,5.4-3.4,8.3c-1.7,4.2-3.5,8.6-5.3,13.2c-1.8,4.6-3.7,9.3-5.6,14.1
		c-1.9,4.8-3.7,9.7-5.6,14.6c-1.7,4.5-3.4,9-5,13.5c-0.7,0.9-1.3,1.7-2,2.6c-4,5.2-7.7,10.2-11.3,15c-3.6,4.8-7,9.3-10.1,13.5
		c-4.2,5.8-8,10.9-11,15.1C119.4,392.9,105.5,384.1,92.8,373.7z M79.9,362.2c4.4-2.6,9.6-5.7,15.5-9.3c4.5-2.7,9.3-5.6,14.4-8.8
		c2.5-1.5,5-3.1,7.6-4.7c-0.6,0.7-1.1,1.4-1.7,2.1c-3.1,3.8-6,7.6-8.8,11.1c-2.8,3.5-5.4,6.9-7.8,10.1c-2.9,3.7-5.4,7.1-7.6,10
		C87.5,369.3,83.6,365.8,79.9,362.2z M40.8,309c0.2,0,0.4-0.1,0.6-0.1c6-1.2,14.5-2.9,24.7-5.2c5.1-1.1,10.6-2.3,16.5-3.6
		c2.8-0.6,5.7-1.3,8.7-2c-0.7,0.5-1.5,1-2.2,1.4c-4.2,2.6-8.2,5.2-12,7.7c-3.8,2.4-7.4,4.8-10.6,7c-6.6,4.3-12,8.1-15.8,10.7
		c-0.2,0.2-0.4,0.3-0.6,0.4C46.6,320,43.6,314.6,40.8,309z M99.8,291.6c-6.3,1.6-12.4,3.3-18.2,4.9c-5.8,1.5-11.2,3.1-16.2,4.5
		c-10.1,2.8-18.4,5.2-24.2,7c-0.3,0.1-0.5,0.1-0.8,0.2c-7.4-14.8-13-30.5-16.5-47.1c0.2,0,0.3,0,0.5-0.1c4.5-0.7,11-1.8,18.8-3.2
		c3.9-0.7,8.1-1.4,12.5-2.3c4.4-0.8,9.1-1.7,13.9-2.7c4.8-1,9.8-1.9,14.9-3c0.6-0.1,1.1-0.2,1.7-0.4c4.9,0.5,9.9,1,14.9,1.5
		c6.8,0.6,13.7,1.3,20.7,1.9c6.9,0.6,13.9,1.2,20.7,1.7c6.6,0.6,13.1,1,19.4,1.5c-2.5,1.4-5.1,2.9-7.8,4.4
		c-3.9,2.2-8.1,4.6-12.3,7.1c-4.2,2.5-8.7,5-13.1,7.7c-4.4,2.7-8.9,5.4-13.4,8.1c-4.1,2.5-8.2,5-12.3,7.5
		C101.9,291.1,100.8,291.4,99.8,291.6z M43,124.7c3.5,2.1,7.9,4.8,12.9,7.7c3.4,2,7.1,4.1,11,6.4c3.9,2.2,8.1,4.6,12.4,7
		c4.3,2.4,8.7,4.9,13.3,7.3c0.5,0.3,1,0.5,1.5,0.8c3.4,3.5,6.9,7.2,10.4,10.8c4.8,4.9,9.7,9.9,14.5,14.8c4.9,4.9,9.8,9.9,14.6,14.7
		c4.7,4.7,9.3,9.3,13.8,13.7c-2.8-0.6-5.7-1.1-8.8-1.7c-4.4-0.8-9.1-1.7-14-2.6c-4.9-0.8-9.8-1.8-15-2.6c-5.1-0.8-10.3-1.7-15.5-2.6
		c-4.8-0.7-9.5-1.5-14.2-2.2c-1-0.5-2-0.9-2.9-1.4c-5.9-2.9-11.6-5.5-17-8.1c-5.4-2.6-10.5-4.9-15.3-7.1c-7.7-3.6-14.4-6.6-19.7-8.9
		C29.3,154.5,35.3,139,43,124.7z M52.2,109.2c3.7,4.1,8.4,9.2,13.8,15c3.6,3.8,7.4,8,11.5,12.3c2,2.1,4.1,4.3,6.2,6.5
		c-0.8-0.4-1.6-0.8-2.4-1.2c-4.4-2.3-8.6-4.4-12.7-6.4c-4-2-7.9-3.9-11.4-5.6c-5.2-2.5-9.8-4.7-13.6-6.4
		C46.3,118.5,49.2,113.8,52.2,109.2z M104.3,55.6c0.1,0.3,0.2,0.5,0.3,0.8c2.1,5.7,5.1,13.9,8.9,23.6c1.9,4.9,3.9,10.2,6.1,15.7
		c1.1,2.7,2.2,5.5,3.3,8.3c-0.6-0.7-1.2-1.3-1.7-2c-3.2-3.7-6.4-7.3-9.4-10.6c-3-3.4-5.9-6.5-8.5-9.5c-5.3-5.8-9.8-10.6-13-14
		c-0.3-0.3-0.5-0.6-0.8-0.8C94.2,63,99.2,59.2,104.3,55.6z M149.2,31.9c0,0.1,0.1,0.2,0.1,0.3c1.4,4.4,3.4,10.6,6,18.1
		c1.3,3.7,2.7,7.8,4.2,12c1.5,4.3,3.1,8.7,4.8,13.4c1.7,4.6,3.4,9.4,5.3,14.2c0.2,0.5,0.4,1.1,0.6,1.6c0.3,4.9,0.5,9.9,0.8,15
		c0.4,6.8,0.9,13.8,1.3,20.7c0.5,6.9,1,13.9,1.5,20.7c0.4,6.6,1,13.1,1.5,19.4c-1.8-2.3-3.6-4.6-5.5-7c-2.8-3.5-5.8-7.3-8.9-11.1
		c-3.1-3.8-6.3-7.8-9.6-11.8c-3.3-4-6.7-8-10-12c-3.1-3.7-6.2-7.3-9.3-11c-0.4-1-0.9-2-1.3-3c-2.6-6-5.2-11.7-7.6-17.2
		c-2.4-5.5-4.7-10.6-6.9-15.4c-4.3-9.5-8-17.4-10.6-22.9c-0.1-0.3-0.3-0.6-0.4-0.9C118.6,45.6,133.5,37.8,149.2,31.9z M167.6,26
		c0.1,6.1,0.3,14.6,0.7,24.7c0.2,5.2,0.4,10.9,0.7,16.8c0.1,2.9,0.3,5.9,0.4,8.9c-0.3-0.8-0.7-1.6-1-2.5c-1.8-4.6-3.7-9-5.4-13.1
		c-1.7-4.2-3.4-8.1-5-11.7c-3.1-7.2-5.8-13.2-7.7-17.4c0-0.1-0.1-0.2-0.1-0.3C155.8,29.4,161.6,27.6,167.6,26z M213.4,57.2
		c0,4.5,0.1,9.3,0.2,14.2c0.1,4.9,0.2,10,0.3,15.2c0,0.6,0,1.1,0.1,1.7c-1.4,4.7-2.8,9.5-4.1,14.4c-1.8,6.6-3.7,13.3-5.5,20
		c-1.8,6.7-3.6,13.4-5.4,20.1c-0.6,2.3-1.2,4.7-1.9,7c-0.5-1.5-1.1-3.1-1.7-4.7c-1.5-4.3-3.1-8.7-4.8-13.4
		c-1.7-4.6-3.4-9.4-5.3-14.2c-1.8-4.8-3.7-9.7-5.6-14.6c-1.8-4.5-3.5-9-5.3-13.4c-0.1-1.1-0.2-2.2-0.3-3.3
		c-0.5-6.5-1.1-12.8-1.6-18.7c-0.5-6-1-11.6-1.5-16.8c-1-10.2-1.9-18.8-2.6-24.8c14.5-3.8,29.6-6,45.2-6.4c0,0.2,0,0.4,0,0.7
		c0,1.2-0.1,3-0.2,5.3c-0.1,4.6-0.2,11.2-0.2,19.1C213.4,48.4,213.3,52.7,213.4,57.2z M284.4,30.3c-0.4,0.9-0.8,2-1.2,3.3
		c-1.6,4.3-3.8,10.5-6.4,17.9c-1.3,3.7-2.7,7.8-4.1,12c-1.4,4.3-3,8.8-4.4,13.5c-1.5,4.7-3.1,9.5-4.6,14.5c-0.2,0.5-0.3,1.1-0.5,1.6
		c-2.8,4-5.7,8.1-8.6,12.3c-3.9,5.6-7.8,11.4-11.7,17.1c-3.9,5.8-7.8,11.5-11.6,17.2c-3.7,5.5-7.3,11-10.8,16.2c0-2.9,0-5.8,0-9
		c0-4.5-0.1-9.3-0.2-14.2c-0.1-4.9-0.2-10-0.3-15.2c-0.2-5.2-0.3-10.4-0.5-15.7c-0.2-4.8-0.4-9.6-0.6-14.4c0.3-1.1,0.5-2.1,0.8-3.2
		c1.7-6.3,3.2-12.4,4.6-18.2c1.5-5.8,2.8-11.3,4-16.4c2.5-10.1,4.4-18.6,5.7-24.6c0.5-2.1,0.9-3.9,1.2-5.3
		C252.3,21.4,268.8,24.9,284.4,30.3z M302.9,37.8c-0.4,0.5-0.8,1.1-1.3,1.7c-3.7,4.9-8.8,11.9-14.9,20.3c-3.1,4.2-6.4,8.8-9.8,13.7
		c-1.7,2.4-3.4,4.8-5.2,7.3c0.2-0.9,0.5-1.7,0.7-2.6c1.4-4.7,2.6-9.3,3.8-13.7c1.2-4.3,2.3-8.5,3.3-12.3c2-7.6,3.6-14,4.6-18.5
		c0.3-1.3,0.6-2.4,0.8-3.4C291,32.6,297.1,35.1,302.9,37.8z M348.3,66.9c-3.2,3.3-7.6,7.8-12.7,13.4c-2.7,2.9-5.6,6-8.6,9.3
		c-3,3.3-6.3,6.8-9.5,10.5c-3.3,3.7-6.7,7.4-10.1,11.3c-0.4,0.4-0.7,0.9-1.1,1.3c-4.2,2.5-8.5,5.1-12.8,7.8
		c-5.8,3.6-11.8,7.2-17.7,10.9c-5.9,3.7-11.8,7.4-17.6,11c-2.2,1.4-4.4,2.8-6.6,4.2c1-3,2-6.1,3-9.2c1.5-4.7,3.1-9.5,4.6-14.5
		c1.5-4.9,3.1-10,4.6-15c1.4-4.6,2.7-9.2,4.1-13.8c0.6-0.9,1.2-1.8,1.8-2.7c3.6-5.4,7-10.7,10.3-15.7c3.3-5,6.3-9.8,9.1-14.2
		c5.6-8.8,10.2-16.2,13.4-21.4c0.4-0.7,0.8-1.3,1.2-2C319.9,45.7,334.9,55.4,348.3,66.9z M401.2,137.2c-5.8,1.1-13.4,2.5-22.4,4.3
		c-5.1,1-10.7,2.1-16.5,3.3c-2.8,0.6-5.8,1.2-8.8,1.8c0.8-0.5,1.5-0.9,2.3-1.4c4.2-2.5,8.3-5.1,12.1-7.4c3.8-2.4,7.4-4.7,10.8-6.8
		c5.9-3.7,10.9-7,14.6-9.5C396.1,126.6,398.8,131.8,401.2,137.2z M344.9,152.9c6.3-1.5,12.5-3.1,18.3-4.5c5.8-1.4,11.3-2.9,16.3-4.2
		c8.9-2.3,16.5-4.4,22.2-5.9c6.1,13.7,10.6,28.2,13.5,43.4c-1.1,0.1-2.5,0.3-4.1,0.5c-4.6,0.6-11.1,1.5-18.9,2.8
		c-3.9,0.6-8.1,1.3-12.6,2c-4.5,0.8-9.1,1.5-14,2.4c-4.8,0.9-9.9,1.7-14.9,2.7c-0.6,0.1-1.1,0.2-1.7,0.3c-4.9-0.6-9.9-1.2-14.9-1.8
		c-6.8-0.8-13.7-1.5-20.6-2.3c-6.9-0.7-13.8-1.4-20.7-2.1c-2.4-0.3-4.8-0.5-7.2-0.7c1.4-0.8,2.9-1.6,4.4-2.4c4-2.2,8.1-4.4,12.4-6.9
		c4.3-2.4,8.8-4.9,13.2-7.5c4.5-2.6,9-5.2,13.6-7.8c4.2-2.5,8.3-4.9,12.4-7.3C342.8,153.5,343.8,153.2,344.9,152.9z M268.9,232
		c-1.9-1.2-4.9-3.5-6.7-6.3c-0.4-0.9-0.8-1.7-1.2-2.5c-0.8-2.7-0.3-5.8,3-9c2.1,2.4,4.4,5,6.7,7.6c3.2,3.6,6.6,7.4,10,11.3
		C276.3,232.6,272.4,232.3,268.9,232z M256.3,251.5c0.4,6,0.8,12.3,1.3,18.8c0,0.5,0.1,1.1,0.1,1.6c-4.2-4.4-7.8-8-10.4-10.7
		c-0.1-0.1-0.1-0.1-0.2-0.2c0-0.5,0-1.1,0-1.7c3.5-4.8,6.5-8.9,8.9-12.3c0.1,0,0.1,0,0.2,0C256.1,248.4,256.2,249.9,256.3,251.5z
		 M219.8,342.7c-0.3-4.6-0.6-9.2-0.8-13.7c-0.3-5.2-0.7-10.2-1.1-15.1c-0.3-4.9-0.8-9.7-1.1-14.2c0,0,0,0,0,0
		c1.3-1.7,2.6-3.4,3.9-5.1c4-5.2,7.7-10.2,11.3-15c1.2-1.6,2.4-3.2,3.6-4.8c0.3,0.9,0.6,1.8,1,2.7c-0.5,1.9-1,3.7-1.5,5.6
		c-1.6,6.3-3.4,12.8-5.1,19.5c-1.7,6.6-3.4,13.4-5.1,20.1C223.1,329.4,221.4,336.1,219.8,342.7z M197.9,287.5c0-0.1,0.1-0.3,0.1-0.4
		c4.1-2.7,8-5.4,11.8-8c0.9-0.6,1.9-1.3,2.8-1.9c0,3,0.1,6.3,0.1,9.9c0.1,3.1,0.1,6.5,0.2,9.9c-2.8,3.4-5.6,6.9-8.4,10.5
		c-4.2,5.4-8.6,10.8-12.9,16.3c-4.2,5.4-8.5,10.9-12.6,16.2c1.6-4.3,3.2-8.6,4.8-12.9c1.8-4.8,3.5-9.6,5.2-14.3
		c1.7-4.6,3.2-9.1,4.7-13.4C195.3,295.3,196.6,291.2,197.9,287.5z M162.8,251.7c-6.5-0.6-13.2-1.4-20-2c-6.8-0.6-13.7-1.3-20.7-1.9
		c-6.9-0.6-13.7-1.1-20.5-1.7c4.5-1,9-2,13.4-3c5-1.1,10-2.3,14.8-3.5c4.8-1.1,9.4-2.3,13.8-3.4c1.6-0.4,3.2-0.8,4.8-1.2
		c0,0,0,0,0,0c5.9,2.8,11.6,5.5,17,8.1c1.8,0.9,3.6,1.7,5.3,2.5l1.7,4.5c-1.2,0.7-2.5,1.4-3.8,2.1
		C166.7,252.1,164.7,251.9,162.8,251.7z M81.4,244.6c-6.5-0.5-12.8-0.9-18.8-1.3c-6-0.4-11.6-0.7-16.8-1c-10.4-0.6-19.1-1-25.2-1.3
		c0,0,0,0,0,0c-0.8-7.2-1.2-14.6-1.2-22c0-9.9,0.7-19.6,2.1-29.1c4.1,0.9,9.3,2,15.2,3.2c3.9,0.8,8,1.6,12.5,2.4
		c4.4,0.8,9.1,1.7,14,2.6c4.8,0.8,9.9,1.8,15,2.6c0.6,0.1,1.1,0.2,1.7,0.3c4.4,2.2,8.8,4.5,13.4,6.8c6.1,3.1,12.3,6.2,18.6,9.3
		c6.2,3.1,12.5,6.1,18.6,9.2c4.3,2.2,8.6,4.2,12.9,6.2c-0.1,0-0.3,0-0.4,0.1c-4.4,0.8-9.1,1.7-13.9,2.7c-4.8,1-9.8,1.9-14.9,3
		c-5.1,1.1-10.2,2.2-15.3,3.3c-4.7,1.1-9.4,2.1-14,3.2C83.5,244.8,82.4,244.7,81.4,244.6z M214.5,104.1c0.2,4.6,0.4,9.2,0.6,13.7
		c0.2,5.2,0.5,10.2,0.8,15.2c0.2,4.9,0.6,9.7,0.8,14.2c0.3,4.5,0.6,8.8,0.9,12.7c0,0.2,0,0.3,0,0.4c-2.7,4.1-5.3,8.1-7.8,11.9
		c-0.1,0.2-0.2,0.3-0.3,0.4c-1.2-1.7-2.3-3.8-3.5-6.4l-2.8,1.4c-1-3-2.1-6.4-3.4-10.2c1.3-4.4,2.6-8.9,3.8-13.5
		c1.8-6.6,3.7-13.3,5.5-20C210.9,117.4,212.7,110.7,214.5,104.1z M246.5,149.8C246.5,149.8,246.5,149.8,246.5,149.8
		c-1.8,1.2-3.6,2.3-5.4,3.4c-5.5,3.5-10.8,6.9-15.8,10.2c-1.7,1.1-3.3,2.2-5,3.2c0-0.9,0-1.9,0-2.9c1.1-1.6,2.2-3.2,3.3-4.8
		c3.7-5.4,7.6-10.9,11.5-16.5c3.9-5.6,7.8-11.4,11.7-17.1c3.8-5.7,7.7-11.4,11.5-17.1c-1.3,4.4-2.6,8.8-3.9,13.2
		c-1.5,4.9-2.8,9.9-4.2,14.6C248.9,140.8,247.7,145.4,246.5,149.8z M213.6,268c0-0.3-0.1-0.6-0.1-0.9c0.4-0.1,0.7-0.2,1.1-0.3
		c4-1.1,7.8-2.2,11.2-3.2c0.3,0.2,0.6,0.5,0.9,0.7c-1.5,0.9-2.9,1.8-4.5,2.7c-2.6,1.6-5.3,3.2-8.1,4.9
		C213.9,270.6,213.7,269.2,213.6,268z M244.9,227l-2.8,7.8c-12.1-4.7-8.6,9.3-8.6,9.3l-7.8,2.4c-5.7-11.8-13,0-13,0l-6.8-3
		c3-13.9-9.8-7.8-9.8-7.8l-3.5-9.5c14.3-4.8,0-11.2,0-11.2l3.5-8.6c12.9,4.2,9-8.8,9-8.8l7.7-3.7c6.7,14.5,12.5,0,12.5,0l8.3,3.7
		c-4.9,14.7,9.3,8.6,9.3,8.6l2.8,8.8C233,220.9,244.9,227,244.9,227z M222.8,262.2c-2.8,0.6-5.8,1.2-9,1.9c-0.1,0-0.1,0-0.2,0
		C216.4,262.3,219.5,261.1,222.8,262.2z M245.9,185.3c0.1,0,0.3,0,0.4,0.1c-0.1,0.2-0.2,0.3-0.3,0.5
		C245.9,185.7,245.9,185.5,245.9,185.3z M216.7,179c-1.5-0.4-3.1-1.4-4.8-3.2c0.1-0.1,0.1-0.2,0.2-0.3c0.2-0.1,0.4-0.3,0.7-0.4
		c1.8-1.1,3.8-2.2,5.7-3.3c0.2,2.5,0.4,4.7,0.6,6.6C218.3,178.6,217.5,178.8,216.7,179z M216.6,169.1c0.5-0.7,1-1.4,1.5-2
		c0,0.3,0.1,0.7,0.1,1C217.7,168.4,217.2,168.7,216.6,169.1z M177,224.6c-0.6-1.5-1.2-3-1.8-4.6c-0.8-2-1.6-4.1-2.4-6.2
		c0.2,0,0.4,0,0.7,0.1C177,216.8,179.8,220.7,177,224.6z M169.9,229.7c-1.3,0.6-2.8,1.2-4.5,1.7l3.5,9.4c-0.6-0.3-1.2-0.6-1.8-0.9
		c-3.9-2.1-8-4.2-12.2-6.4c0.4-0.1,0.7-0.2,1.1-0.3c5.3-1.4,10-2.6,13.8-3.7C169.8,229.5,169.8,229.6,169.9,229.7z M185.1,248
		c0.3,0.7,0.7,1.4,0.9,1.9c-1.2-0.6-2.4-1.3-3.7-2C183.2,247.9,184.2,247.9,185.1,248z M186.4,250.1c-0.2-0.6-0.5-1.3-0.7-2.1
		c2.8,0.5,5.3,1.9,6.6,5.2C190.4,252.3,188.5,251.2,186.4,250.1z M247.3,255.2c0.2-1,0.5-2,0.8-2.9c0.7-0.5,1.4-1,1.9-1.4
		c1.3-1,2-1.5,2-1.5s-0.8,0.4-2.2,1.2c-0.4,0.2-0.9,0.5-1.4,0.8c1.1-2.1,2.8-3.7,5.5-4.2C252.1,249.5,249.9,252.2,247.3,255.2z
		 M266.7,191.2c0,0-19,8.1-20.7-4.7c0.3-0.3,0.6-0.6,1-1c2.2,0.3,4.5,0.6,6.8,0.9c5.9,0.8,12.2,1.6,18.7,2.3
		c0.5,0.1,1.1,0.1,1.6,0.2c-2.4,1.5-4.6,3-6.6,4.3L266.7,191.2z M246,182c0.2-2,0.7-4.4,1.6-7.1c2.6-0.5,5.3-1.1,8-1.7
		c-2.8,3.5-5.1,6.5-6.9,8.9C247.8,182.1,246.9,182,246,182z M231.1,166.3c0,0-2.9,7.2-7.4,10.8c-1.2,0.3-2.4,0.6-3.5,0.9
		c0.1-2.1,0.1-4.6,0.1-7.4c2.3-1.3,4.6-2.7,7-4.1c5.1-3,10.6-6.2,16.2-9.6c0.4-0.3,0.9-0.5,1.3-0.8c-0.5,2-1.1,4-1.5,5.9
		c-0.8,3.1-1.6,6-2.2,8.7L231.1,166.3z M201.5,168.5l-5.7,2.8c0.8-2.6,1.5-5.2,2.3-7.9c0.1-0.5,0.3-1,0.4-1.6
		C199.6,164.2,200.6,166.5,201.5,168.5z M193.9,162.2c-1,3.9-2,7.7-2.9,11.5l-0.4,0.2c0,0,0.1,0.2,0.2,0.7c-0.5,2-1,4-1.5,5.9
		c-0.3,1.3-0.7,2.6-1,3.9c-2.2-2.9-5-6.6-8.3-10.9c-0.1-1.9-0.2-3.9-0.3-5.8c-0.4-6.5-0.7-13.2-1.1-20.1c-0.4-6.8-0.9-13.8-1.3-20.7
		c-0.5-6.9-1-13.7-1.4-20.5c1.7,4.3,3.4,8.6,5,12.8c1.9,4.8,3.8,9.5,5.7,14.1c1.8,4.6,3.7,9,5.4,13.1c1.3,3.1,2.5,6,3.7,8.8
		C195.1,157.5,194.5,159.9,193.9,162.2z M187.9,185.7c-0.3,1.1-0.5,2.2-0.8,3.3c-1,0.7-1.9,1.3-2.6,1.8c-1.3,0.9-2.1,1.4-2.1,1.4
		s0.8-0.4,2.2-1.2c0.6-0.3,1.4-0.8,2.3-1.2c-0.2,0.8-0.4,1.6-0.6,2.5c-1.4,0.6-3.2,1-5.4,0.9c-0.1-2.2-0.2-4.4-0.3-6.7
		c-0.1-2.9-0.3-5.9-0.4-9C183.2,180.7,185.8,183.5,187.9,185.7z M168.2,202c-1.6-4.1-3.3-8.4-5.1-12.8c3.2,1.5,6.2,2.9,8.7,4.1
		L168.2,202z M172.6,213.2C172.6,213.2,172.6,213.2,172.6,213.2C172.6,213.2,172.6,213.2,172.6,213.2
		C172.6,213.2,172.6,213.2,172.6,213.2z M172.6,221.1c0.9,1.9,1.7,3.7,2.5,5.5c-0.2,0.2-0.5,0.4-0.7,0.6c-0.1,0-0.2,0-0.2,0
		c-0.6,0.1-1.2,0.2-1.9,0.3c-2.6-2.8-5.3-5.7-8.2-8.7c-2-2.1-4.1-4.3-6.2-6.5c4.4,0.5,8.2,0.9,11.2,1.2
		C170.3,216.1,171.5,218.7,172.6,221.1z M150.7,211.4c0.2,0,0.3,0,0.4,0.1c3.5,3.4,6.9,6.8,10.2,9.9c2.4,2.3,4.7,4.6,6.9,6.7
		c-3.7,0.6-8.1,1.3-13,2.2c-1.6,0.3-3.2,0.6-4.8,0.9c0,0-0.1,0-0.1-0.1c-5.8-3-11.8-6.1-17.9-9.1c-6.1-3.1-12.3-6.2-18.6-9.3
		c-6.2-3-12.4-6.1-18.4-9.1c4.6,0.7,9.1,1.4,13.6,2.1c5.1,0.8,10.1,1.5,15,2.2c4.9,0.7,9.6,1.3,14.1,1.9
		C142.6,210.5,146.8,211,150.7,211.4z M177.9,249c0.9,0.4,1.9,0.9,2.8,1.3c3.3,1.5,6.4,3,9.3,4.3c-2.8-0.3-5.6-0.6-8.5-0.9
		c-2.9-0.3-5.9-0.6-9-1C174.5,251.4,176.3,250.2,177.9,249z M193.1,258.1c0.1,2.2-0.2,4.9-0.9,8.2l3.9,1.7c-5.5,1.2-11.2,2.5-17,3.9
		c-0.5,0.1-1,0.2-1.6,0.4c3.7-4.8,6.7-8.9,8.9-12c0.7-0.9,1.3-1.8,1.8-2.5C189.9,257.9,191.5,258,193.1,258.1z M206,272.3
		c0,0,1.1-1.8,3-3.9c1.2-0.3,2.5-0.7,3.6-1c0,0.2,0,0.4,0,0.7c0,1.4,0,3.1,0,4.9c-1.6,1-3.2,2-4.8,3c-2.5,1.5-5,3.1-7.7,4.7
		c1.2-3.7,2.2-6.9,3.1-9.6L206,272.3z M215.6,287c-0.4-4.1-0.8-7.8-1.1-11.1c3.2-2.2,6.3-4.3,9.2-6.4c1.6-1.1,3.2-2.2,4.7-3.3
		c1.3,1.5,2.5,3.5,3.7,6l1.2-0.4c-1.4,1.7-2.9,3.5-4.3,5.3c-3.8,4.6-7.8,9.5-11.9,14.6c-0.3,0.4-0.6,0.8-1,1.2
		C216,291,215.8,288.9,215.6,287z M237,272.7c0.4-0.5,0.7-1,1.1-1.5c-0.2,0.8-0.4,1.6-0.7,2.4C237.3,273.3,237.2,273,237,272.7z
		 M242.7,269.1l5.2-1.6c0,0-0.5-2.1-0.8-4.9c2.7,3.5,6.4,8.2,10.8,13.7c0.3,4.6,0.6,9.3,1,14c0.6,6.8,1.1,13.8,1.7,20.7
		c0.6,6.9,1.2,13.7,1.8,20.5c-1.8-4.3-3.5-8.5-5.3-12.7c-2-4.8-4-9.4-5.9-14c-1.9-4.5-3.8-8.9-5.7-13c-1.8-4.1-3.6-8-5.2-11.6
		c-0.1-0.1-0.1-0.3-0.2-0.4C241.1,276.1,241.9,272.6,242.7,269.1z M266.8,244.3c0.9,2.1,1.8,4.3,2.7,6.5c-1.5-0.8-2.9-1.5-4.3-2.2
		L266.8,244.3z M286.4,232.8c-4.5-4.7-8.9-9.3-13-13.6c-2.4-2.5-4.7-4.8-6.9-7.1c0,0,0.1,0,0.1-0.1c2.6-0.4,5.6-0.8,8.8-1.3
		c1.7,0.8,3.5,1.7,5.2,2.5c5.9,2.8,11.9,5.8,18.1,8.7c6.2,2.9,12.5,5.9,18.8,8.9c6.3,2.9,12.5,5.8,18.7,8.6
		c-4.6-0.6-9.1-1.2-13.6-1.8c-5.1-0.7-10.2-1.2-15.1-1.8c-4.9-0.6-9.6-1.1-14.1-1.6c-2.1-0.2-4.2-0.5-6.2-0.7
		C287,233.4,286.7,233.1,286.4,232.8z M278.8,207.4c-0.1,0-0.3,0.1-0.4,0.1c-2.6-1.2-5.1-2.3-7.5-3.4l-3-9.2
		c3.1-1.6,6.6-3.4,10.5-5.5c4.6,0.6,9.2,1.1,14,1.6c6.8,0.8,13.7,1.5,20.6,2.3c6.9,0.7,13.7,1.4,20.5,2.1c-4.5,0.9-9,1.8-13.5,2.7
		c-5.1,1-10,2.1-14.8,3.2c-4.8,1-9.5,2.1-13.9,3.1C286.8,205.5,282.7,206.4,278.8,207.4z M313.3,164.7c-4.5,2.6-8.8,5.3-13,7.8
		c-4.2,2.5-8.3,5.1-12.1,7.4c-2.8,1.8-5.6,3.5-8.1,5.1c-2.4-0.2-4.8-0.5-7.2-0.7c-6.5-0.6-12.8-1.2-18.7-1.7
		c-1.4-0.1-2.7-0.2-4.1-0.4c2.5-2.6,5.8-5.9,9.5-9.9c1.9-0.4,3.8-0.8,5.7-1.2c6.4-1.4,13-2.8,19.6-4.3c6.7-1.5,13.5-3,20.3-4.6
		c6.7-1.6,13.4-3.1,20-4.7C321.1,160,317.2,162.4,313.3,164.7z M260.1,167.6c-0.1,0.1-0.2,0.2-0.3,0.3c-4.8,1.2-9.4,2.3-13.8,3.5
		c-0.7,0.2-1.5,0.4-2.2,0.6l-0.8-0.4c0.9-2.7,2-5.6,3.1-8.7c1-2.9,2.1-6.1,3.2-9.4c3.8-2.3,7.6-4.6,11.5-7
		c5.8-3.6,11.8-7.2,17.7-10.9c5.8-3.7,11.7-7.3,17.4-10.9c-3,3.5-6,7-8.9,10.4c-3.4,3.9-6.6,7.9-9.8,11.6c-3.2,3.8-6.2,7.5-9,11
		C265.2,161.2,262.5,164.6,260.1,167.6z M147.5,140.6c3.3,4,6.7,7.8,9.9,11.5c3.2,3.7,6.4,7.3,9.4,10.6c3,3.4,5.9,6.5,8.5,9.5
		c0.1,0.1,0.2,0.2,0.3,0.3c0.4,4.9,0.8,9.6,1.2,14.2c0.2,2.1,0.4,4.1,0.5,6.1c-1.5-0.3-3.1-0.7-4.9-1.3l-0.2,0.4
		c-3-1.8-6.6-4-10.7-6.4c-2.3-5.6-4.6-11.5-7-17.3c-2.6-6.3-5.3-12.8-7.9-19.2c-2.7-6.3-5.4-12.7-8-18.9
		C141.6,133.6,144.6,137.1,147.5,140.6z M158.1,188.5c2.6,6,5.1,11.7,7.6,17.2c0.2,0.4,0.3,0.8,0.5,1.1l-0.8,1.9
		c0,0,0.9,0.4,2.1,1.1c0.4,0.8,0.7,1.6,1.1,2.4c-3.6-0.8-8.1-1.8-13.4-2.9c-1.3-1.4-2.7-2.8-4-4.2c-4.5-4.7-9.2-9.6-14-14.5
		c-4.8-4.9-9.7-9.9-14.5-14.8c-4.9-4.9-9.7-9.8-14.5-14.6c4.1,2.1,8.1,4.3,12.2,6.4c4.6,2.4,9.1,4.7,13.5,6.9
		c4.4,2.3,8.6,4.4,12.7,6.4c3.8,1.9,7.4,3.6,10.7,5.3C157.4,187.1,157.8,187.8,158.1,188.5z M43.6,182.2c4.6,2.5,9.6,5.1,14.9,7.9
		c2.6,1.3,5.2,2.7,7.9,4.2c-0.9-0.1-1.8-0.3-2.6-0.4c-4.9-0.7-9.6-1.3-14.1-1.9c-4.5-0.6-8.7-1.1-12.6-1.6c-6-0.7-11.3-1.3-15.5-1.7
		c0.9-5.6,2-11.1,3.3-16.6C29.9,174.7,36.2,178.2,43.6,182.2z M20.7,242c6,0.8,14.6,1.9,24.9,3.1c5.2,0.6,10.8,1.3,16.7,1.9
		c2.9,0.3,5.9,0.6,8.9,1c-0.9,0.2-1.7,0.4-2.6,0.6c-4.8,1.1-9.4,2.3-13.8,3.4c-4.4,1.1-8.5,2.1-12.3,3.1c-7.6,2-14,3.7-18.4,5
		c-0.2,0-0.3,0.1-0.5,0.1C22.3,254.2,21.4,248.2,20.7,242z M131.1,279.3c4.4-2.7,8.7-5.5,12.9-8.1c4.2-2.6,8.2-5.2,12-7.7
		c3.8-2.4,7.4-4.8,10.6-7c0.1-0.1,0.2-0.2,0.4-0.2c4.9,0.4,9.7,0.7,14.2,1c2.1,0.1,4.2,0.3,6.3,0.4c-0.5,0.6-1.1,1.2-1.8,1.9
		c-3.1,3.3-7.4,8-12.5,13.6c-4.5,1-9.1,2.1-13.7,3.3c-6.7,1.6-13.4,3.3-20.2,4.9c-6.7,1.7-13.4,3.4-19.9,5
		C123.3,284.1,127.3,281.7,131.1,279.3z M180.1,276.2c6.3-1.6,12.4-3.3,18.2-4.9c1.1-0.3,2.2-0.6,3.4-0.9l0.4,0.2
		c-1.5,3.3-3.3,7.4-5.3,12.2c-1.6,1-3.3,2.1-4.9,3.1c-5.5,3.5-11.2,7-17,10.8c-5.8,3.7-11.6,7.5-17.5,11.2
		c-5.8,3.8-11.5,7.6-17.2,11.3c2.9-3.6,5.8-7.1,8.7-10.6c3.3-4,6.4-8,9.5-11.8c3.1-3.8,6-7.6,8.8-11.1c2.1-2.6,4-5.2,5.9-7.6
		C175.5,277.4,177.8,276.8,180.1,276.2z M288.9,305.8c-3.4-3.9-6.9-7.6-10.2-11.3c-3.3-3.7-6.5-7.1-9.6-10.5c-2.3-2.5-4.5-4.8-6.5-7
		c-0.2-2.4-0.5-4.8-0.7-7.2c-0.6-6.5-1.3-12.8-1.9-18.7c-0.1-1.3-0.3-2.6-0.4-3.9c0.1,0,0.2,0,0.2,0c3,2,6.8,4.4,11.2,7.2
		c0.7,1.8,1.5,3.5,2.3,5.4c2.6,6,5.2,12.2,7.9,18.5c2.7,6.3,5.5,12.6,8.3,19c2.8,6.3,5.6,12.6,8.4,18.8
		C295,312.7,291.9,309.2,288.9,305.8z M275.9,254.2c-0.1-0.1-0.3-0.1-0.4-0.2c-2.1-4.5-4.1-8.8-6-12.9c-0.3-0.6-0.6-1.2-0.8-1.8
		l1.8-5.1c3,0.6,6.3,1.2,10,1.8c1.1,0.2,2.3,0.4,3.4,0.6c4.2,4.6,8.5,9.4,12.9,14.2c4.6,5,9.3,10.2,14,15.3c4.7,5,9.4,10.1,14,15
		c-4-2.3-8-4.5-12-6.8c-4.5-2.6-9-5-13.3-7.4c-4.3-2.4-8.5-4.6-12.5-6.8C283.1,258,279.4,256,275.9,254.2z M411,271.3
		c-5.4-2.8-13.1-6.8-22.4-11.5c-4.7-2.4-9.7-4.9-15.1-7.5c-2.6-1.3-5.3-2.6-8-4c0.9,0.1,1.8,0.2,2.6,0.3c4.9,0.6,9.6,1.1,14.1,1.6
		c4.5,0.5,8.7,0.9,12.7,1.3c7.8,0.8,14.4,1.3,19,1.6c0.7,0.1,1.3,0.1,1.9,0.1c-1.1,6.2-2.4,12.4-4.1,18.4
		C411.4,271.6,411.2,271.4,411,271.3z M418.7,219c0,11.4-1,22.6-2.8,33.5c-0.6-0.1-1.2-0.2-1.9-0.4c-4.5-0.9-11-2.1-18.7-3.5
		c-3.9-0.7-8.1-1.4-12.5-2.1c-4.5-0.7-9.1-1.5-14-2.2c-4.9-0.7-9.9-1.6-15-2.3c-0.6-0.1-1.1-0.2-1.7-0.2c-4.4-2.1-8.9-4.3-13.5-6.5
		c-6.2-2.9-12.5-5.9-18.8-8.9c-6.3-2.9-12.6-5.8-18.8-8.7c-6-2.8-12-5.5-17.8-8.1c2.8-0.4,5.8-0.9,8.8-1.5c4.5-0.8,9.1-1.5,14-2.4
		c4.8-0.9,9.9-1.7,14.9-2.7c5.1-1,10.2-2,15.4-3c4.7-1,9.4-1.9,14.1-2.9c1.1,0.1,2.2,0.2,3.2,0.3c6.5,0.6,12.8,1.2,18.7,1.7
		c6,0.5,11.6,1,16.8,1.4c10.4,0.8,19.1,1.4,25.2,1.8c1.4,0.1,2.6,0.2,3.7,0.2C418.4,207.9,418.7,213.4,418.7,219z M414.4,201.3
		c-6-0.9-14.6-2.2-25-3.6c-5.2-0.7-10.8-1.5-16.7-2.2c-2.9-0.4-5.8-0.8-8.9-1.1c0.9-0.2,1.7-0.4,2.6-0.6c4.8-1,9.5-2.1,13.9-3.1
		c4.4-1,8.6-2,12.4-2.9c7.7-1.8,14-3.4,18.5-4.6c1.6-0.4,3-0.8,4-1.1c1.2,6.5,2.1,13.1,2.7,19.8
		C416.9,201.7,415.7,201.5,414.4,201.3z M392.7,120.5c-4,2-9.3,4.8-15.5,8.1c-3.5,1.8-7.3,3.9-11.2,6c-4,2.2-8.1,4.4-12.4,6.9
		c-4.3,2.4-8.8,4.9-13.2,7.5c-0.5,0.3-1,0.6-1.5,0.8c-4.8,1-9.7,2.1-14.7,3.2c-6.7,1.5-13.5,3-20.3,4.5c-6.8,1.6-13.5,3.2-20.2,4.7
		c-6.5,1.5-12.8,3.1-19,4.6c1.9-2.1,4-4.3,6.1-6.6c3-3.3,6.3-6.8,9.5-10.5c3.3-3.7,6.7-7.4,10.1-11.3c3.4-3.9,6.9-7.8,10.3-11.8
		c3.1-3.7,6.3-7.3,9.4-10.9c0.9-0.6,1.8-1.2,2.8-1.8c5.5-3.5,10.8-6.9,15.8-10.2c5-3.2,9.7-6.4,14.1-9.3
		c8.3-5.5,15.3-10.2,20.2-13.6C374.5,92.7,384.5,106,392.7,120.5z M362.3,80c-5.3,2.9-12.5,7-21,12c-4.5,2.6-9.4,5.5-14.5,8.5
		c-2.5,1.5-5.1,3-7.7,4.6c0.6-0.7,1.1-1.4,1.7-2c3.2-3.8,6.2-7.5,9-11c2.9-3.5,5.5-6.8,8-9.9c4.7-5.9,8.6-10.9,11.4-14.5
		C353.7,71.5,358.1,75.6,362.3,80z M234.7,19.9c-0.5,1.4-1,3.1-1.7,5.1c-1.9,5.8-4.5,14.1-7.5,24.1c-1.5,5-3.2,10.4-4.8,16.1
		c-0.8,2.8-1.7,5.7-2.5,8.6c0-0.9-0.1-1.8-0.1-2.7c-0.2-4.9-0.6-9.7-0.8-14.2c-0.3-4.5-0.6-8.8-0.9-12.7c-0.6-7.9-1.2-14.4-1.6-19
		c-0.2-2.3-0.4-4.1-0.6-5.3c0-0.2,0-0.5-0.1-0.7c1.7,0,3.3-0.1,5-0.1C224.3,19.3,229.5,19.5,234.7,19.9z M88.8,67.6
		c0.2,0.3,0.4,0.6,0.7,0.9c2.7,3.7,6.7,9,11.5,15.2c2.4,3.1,5,6.5,7.9,10c2.8,3.5,5.8,7.3,8.9,11.1c3.1,3.8,6.3,7.8,9.6,11.8
		c0.4,0.4,0.7,0.9,1.1,1.3c1.8,4.6,3.7,9.2,5.7,13.9c2.6,6.3,5.3,12.8,7.9,19.2c2.7,6.4,5.4,12.8,8.1,19.1c1.7,4,3.4,7.8,5,11.7
		c-2.2-1.3-4.5-2.6-7-4c-3.9-2.2-8.1-4.6-12.4-7c-4.3-2.4-8.7-4.9-13.3-7.3c-4.5-2.5-9.2-4.9-13.8-7.4c-4.3-2.2-8.5-4.5-12.7-6.7
		c-0.8-0.8-1.6-1.5-2.3-2.3c-4.6-4.6-9.2-9-13.4-13.1c-4.3-4.2-8.4-8.1-12.1-11.7c-5.8-5.6-11-10.4-15-14.2
		C63.1,93,75.1,79.4,88.8,67.6z M50.4,326c0.2-0.1,0.4-0.2,0.7-0.3c4.1-2.1,9.9-5.2,16.8-9.1c3.4-1.9,7.2-4,11.1-6.2
		c3.9-2.2,8.1-4.6,12.3-7.1c4.2-2.5,8.7-5,13.1-7.7c0.5-0.3,1-0.6,1.5-0.9c4.8-1.1,9.7-2.3,14.6-3.5c6.7-1.6,13.4-3.3,20.2-4.9
		c6.7-1.7,13.5-3.4,20.1-5.1c2.4-0.6,4.7-1.2,7-1.8c-1.1,1.2-2.2,2.5-3.3,3.8c-3,3.4-6.1,7-9.3,10.7c-3.2,3.7-6.6,7.6-9.9,11.5
		c-3.3,4-6.7,8-10.1,12c-3.1,3.7-6.1,7.5-9.1,11.1c-0.9,0.6-1.8,1.2-2.7,1.8c-5.4,3.6-10.6,7.2-15.6,10.5c-5,3.3-9.6,6.6-13.9,9.5
		c-5.8,4-10.9,7.6-15.1,10.6C68,350.5,58.5,338.8,50.4,326z M219,418.7c-5,0-10-0.2-15-0.6c1.6-5.4,3.6-12.3,5.9-20.2
		c1.4-5,3-10.5,4.5-16.2c0.8-2.8,1.6-5.7,2.4-8.6c0.1,0.9,0.1,1.8,0.2,2.6c0.3,4.9,0.8,9.7,1.1,14.2c0.4,4.5,0.8,8.7,1.1,12.7
		c0.6,6.4,1.2,11.9,1.7,16.2C220.3,418.6,219.6,418.7,219,418.7z M345.8,373.3c-2.5-3.2-5.6-7.1-9.2-11.5c-2.5-3.1-5.2-6.4-8.1-9.9
		c-2.9-3.5-5.9-7.2-9.1-10.9c-3.2-3.7-6.4-7.7-9.8-11.6c-0.4-0.4-0.7-0.9-1.1-1.3c-1.9-4.5-3.9-9.1-5.9-13.8
		c-2.7-6.3-5.5-12.6-8.3-19c-2.8-6.3-5.7-12.7-8.5-18.9c-2.7-6.1-5.5-12-8.1-17.7c2.4,1.5,5,3.1,7.6,4.7c3.9,2.4,7.9,4.9,12.1,7.4
		c4.2,2.5,8.6,5.2,13.1,7.7c4.5,2.6,9,5.2,13.5,7.9c4.2,2.4,8.4,4.8,12.5,7.1c0.8,0.8,1.5,1.6,2.2,2.4c4.5,4.7,8.9,9.3,13,13.6
		c4.1,4.3,8.1,8.3,11.8,12.1c6.4,6.5,11.9,12,16.1,16.1C369.9,350.8,358.5,362.8,345.8,373.3z"/>
	<circle class="st0" cx="218.8" cy="219.3" r="14.7"/>
</g>
</svg>
