  <svg width="150px" height="auto" viewBox="0 0 226 225" fill="none" xmlns="http://www.w3.org/2000/svg">
      <defs>
      <style>
      #gear1, #gear2, #underline {
transform-origin: center;
transform-box: fill-box;
}
#gear1 {
    animation: rotate-gears 10s linear infinite;
}
@keyframes rotate-gears {
    from {
transform: rotateZ(0deg);
    }
    to{transform: rotateZ(350deg)};
}
#gear2 {
    animation: rotate-gears reverse 20s linear infinite;
}
#underline:hover {
    opacity: 1;
    transform: scale(1.08)
}
#text {
    animation: blur-logotext 6s ease-in-out infinite ;
}
@keyframes blur-logotext {
    from {
filter: url("#f3");
    }
    to{
        filter: url("#f2");
}}    </style>
            <filter id="f1">
                <feGaussianBlur stdDeviation="6" /></filter>
            <filter id="f2">
                <feGaussianBlur stdDeviation="2" /></filter>
                <filter id="f3">
                    <feGaussianBlur stdDeviation="0.1" />
            </filter>
    </defs>
            <path id="gear2"
                d="M222.4 108.8C221.1 108.6 219.6 108.5 218.5 108.4C217 108.2 215.7 107 215.6 105.4C215.4 102.4 215 99.4 214.5 96.5C214.3 95 215.1 93.5 216.5 93C217.6 92.6 218.8 92.1 220.1 91.6C221.6 91 222.4 89.5 222.1 87.9C222 87.5 221.9 87.2 221.9 86.8C221.5 85.2 220.1 84.2 218.5 84.3C217.2 84.4 215.9 84.6 214.8 84.7C213.3 84.9 211.9 83.9 211.4 82.4C210.5 79.5 209.6 76.7 208.5 74C207.9 72.6 208.4 70.9 209.7 70.1C210.7 69.4 211.8 68.7 213 67.9C214.3 67 214.8 65.3 214.1 63.9C214 63.6 213.8 63.3 213.6 62.9C212.9 61.5 211.3 60.7 209.7 61.2C208.4 61.6 207.2 62.1 206 62.5C204.5 63 202.9 62.4 202.2 61C200.7 58.4 199.1 55.9 197.5 53.4C196.6 52.1 196.7 50.4 197.8 49.3C198.7 48.4 199.6 47.4 200.6 46.3C201.7 45.1 201.7 43.4 200.8 42.1C200.6 41.8 200.4 41.6 200.2 41.3C199.2 40 197.4 39.7 196.1 40.6C194.9 41.3 193.7 42 192.7 42.7C191.4 43.5 189.7 43.3 188.6 42.1C186.6 39.9 184.5 37.8 182.3 35.8C181.2 34.8 180.9 33.1 181.7 31.8C182.4 30.7 183.1 29.5 183.9 28.2C184.7 26.8 184.4 25.1 183.2 24.1C182.9 23.9 182.7 23.7 182.4 23.5C181.2 22.5 179.4 22.6 178.2 23.7C177.2 24.7 176.2 25.7 175.3 26.6C174.2 27.7 172.5 27.8 171.2 26.9C168.8 25.2 166.3 23.6 163.7 22.1C162.4 21.3 161.7 19.8 162.2 18.3C162.6 17 163.1 15.6 163.5 14.1C164 12.6 163.3 11 161.9 10.3C161.6 10.2 161.3 10 161.1 9.9C159.7 9.2 157.9 9.7 157.1 11C156.3 12.3 155.5 13.5 154.8 14.6C154 15.9 152.3 16.4 150.9 15.8C148.2 14.7 145.4 13.7 142.5 12.9C141 12.5 140.1 11.1 140.2 9.5C140.3 8.1 140.5 6.6 140.6 5C140.7 3.4 139.7 2 138.2 1.6C137.9 1.5 137.6 1.5 137.3 1.4C135.7 1 134.2 1.9 133.6 3.4C133.1 4.9 132.6 6.3 132.1 7.5C131.6 9 130.1 9.8 128.6 9.6C125.7 9.1 122.7 8.8 119.8 8.6C118.3 8.5 117 7.4 116.8 5.8C116.6 4.4 116.4 2.8 116.2 1.2C115.7 0.3 114.3 0 112.8 0C112.5 0 112.2 0.9 111.9 0.9H111.8C110.2 0.9 108.9 1.2 108.7 2.8C108.5 4.4 108.3 5.5 108.2 6.8C108 8.3 106.8 9.3 105.2 9.4C102.2 9.6 99.3 9.8 96.4 10.3C94.9 10.5 93.4 9.6 92.9 8.2C92.4 6.9 91.8 5.3 91.2 3.8C90.6 2.3 89.1 1.5 87.6 1.8C87.3 1.9 87 1.9 86.8 2C85.2 2.4 84.2 3.8 84.3 5.4C84.4 7 84.6 8.6 84.8 10C85 11.5 84 13 82.5 13.4C79.6 14.3 76.8 15.3 74.1 16.4C72.7 17 71.1 16.5 70.2 15.2C69.4 14 68.5 12.6 67.6 11.2C66.7 9.9 65 9.4 63.6 10.1C63.3 10.2 63.1 10.3 62.8 10.5C61.4 11.2 60.7 12.8 61.2 14.4C61.7 16 62.2 17.5 62.7 18.8C63.2 20.3 62.6 21.9 61.2 22.6C58.6 24.1 56.1 25.7 53.7 27.4C52.4 28.3 50.8 28.2 49.7 27.1C48.7 26.1 47.5 24.9 46.2 23.8C45 22.7 43.3 22.7 42.1 23.6C41.9 23.8 41.7 23.9 41.5 24.1C40.3 25.1 39.9 26.9 40.8 28.2C41.6 29.6 42.5 31 43.3 32.2C44.1 33.5 43.9 35.2 42.7 36.3C40.5 38.3 38.4 40.4 36.4 42.6C35.4 43.7 33.7 44 32.4 43.2C31.1 42.4 29.7 41.6 28.3 40.7C26.9 39.9 25.2 40.2 24.2 41.5C24 41.7 23.9 41.9 23.7 42.1C22.7 43.4 22.8 45.1 23.9 46.3C25 47.5 26.2 48.7 27.2 49.7C28.3 50.8 28.4 52.5 27.5 53.8C25.8 56.2 24.2 58.8 22.8 61.4C22 62.7 20.5 63.4 19 62.9C17.6 62.4 16 61.9 14.4 61.4C12.9 60.9 11.3 61.6 10.6 63.1C10.5 63.3 10.4 63.6 10.2 63.8C9.5 65.2 10 67 11.3 67.8C12.7 68.7 14 69.6 15.3 70.4C16.6 71.2 17.1 72.9 16.5 74.3C15.4 77.1 14.4 79.9 13.6 82.7C13.2 84.2 11.8 85.1 10.3 85C8.9 84.9 7.2 84.7 5.6 84.6C4 84.5 2.6 85.5 2.3 87.1C2.2 87.4 2.2 87.6 2.1 87.9C1.8 89.5 2.6 91 4.1 91.6C5.6 92.2 7.1 92.7 8.5 93.2C10 93.7 10.8 95.2 10.6 96.7C10.1 99.6 9.8 102.6 9.6 105.6C9.5 107.1 8.4 108.4 6.8 108.6C5.4 108.8 4.4 109 2.7 109.2C1.2 109.4 0.6 110.7 0.6 112.3C0.6 112.3 0.6 112.3 0.6 112.4C0.6 112.7 0 113 0 113.3C0 114.9 0.9 116.2 2.5 116.4C4.1 116.6 5.5 116.8 6.9 117C8.4 117.2 9.5 118.4 9.6 120C9.8 123 10.1 126 10.5 128.9C10.7 130.4 9.9 131.9 8.5 132.4C7.2 132.9 5.7 133.4 4.2 134C2.7 134.6 1.9 136.1 2.3 137.7C2.4 138 2.4 138.3 2.5 138.6C2.9 140.1 4.3 141.2 5.9 141C7.5 140.9 9 140.7 10.4 140.5C11.9 140.3 13.3 141.3 13.8 142.8C14.7 145.7 15.6 148.5 16.7 151.2C17.3 152.6 16.8 154.3 15.5 155.1C14.3 155.8 13.1 156.7 11.8 157.6C10.5 158.5 10 160.2 10.7 161.6C10.8 161.9 11 162.1 11.1 162.4C11.8 163.8 13.4 164.5 14.9 164C16.4 163.5 17.8 163 19.1 162.6C20.6 162.1 22.1 162.7 22.9 164.1C24.4 166.7 26 169.2 27.6 171.7C28.5 173 28.4 174.7 27.3 175.8C26.4 176.8 25.3 177.8 24.3 179C23.2 180.2 23.2 181.9 24.1 183.2C24.3 183.4 24.5 183.7 24.7 183.9C25.7 185.1 27.4 185.4 28.8 184.6C30.1 183.8 31.3 183.1 32.4 182.4C33.7 181.6 35.4 181.8 36.4 183C38.4 185.2 40.5 187.3 42.7 189.3C43.8 190.3 44.1 192 43.3 193.3C42.6 194.4 41.9 195.7 41.1 197C40.3 198.4 40.6 200.1 41.9 201.1C42.2 201.3 42.4 201.5 42.7 201.7C43.9 202.7 45.7 202.6 46.9 201.5C47.9 200.5 49 199.5 49.9 198.6C51 197.5 52.7 197.4 54 198.3C56.4 200 58.9 201.6 61.5 203.1C62.8 203.9 63.5 205.4 63 206.9C62.6 208.1 62.2 209.4 61.7 210.8C61.2 212.3 61.9 214 63.4 214.6C63.7 214.7 64 214.9 64.3 215C65.7 215.7 67.4 215.2 68.3 213.9C69.1 212.7 69.8 211.6 70.5 210.5C71.3 209.2 73 208.7 74.4 209.2C77.1 210.3 79.9 211.3 82.8 212.1C84.3 212.5 85.2 213.9 85.1 215.5C85 216.7 84.9 218.1 84.7 219.5C84.6 221.1 85.6 222.5 87.2 222.9C87.5 223 87.9 223.1 88.2 223.1C89.7 223.4 91.3 222.6 91.9 221.1C92.4 219.8 92.8 218.6 93.2 217.4C93.7 215.9 95.2 215.1 96.7 215.3C99.6 215.8 102.6 216.1 105.5 216.3C107 216.4 108.3 217.6 108.5 219.1C108.6 220.3 108.8 221.1 109 222.5C109.2 224.1 110.5 224.7 112.1 224.7C112.1 224.7 112.1 224.7 112.2 224.7C112.6 224.7 112.9 225.2 113.3 225.2C114.9 225.2 116.2 224.2 116.4 222.7C116.6 221.4 116.7 220.2 116.9 219.1C117.1 217.6 118.3 216.5 119.9 216.3C122.9 216.1 125.8 215.8 128.7 215.3C130.2 215.1 131.7 215.9 132.2 217.4C132.6 218.5 133 219.7 133.5 221C134.1 222.5 135.6 223.3 137.2 223C137.6 222.9 137.9 222.8 138.3 222.8C139.8 222.4 140.9 221 140.7 219.4C140.6 218.1 140.4 216.9 140.3 215.7C140.1 214.2 141.1 212.7 142.6 212.3C145.5 211.4 148.3 210.4 151 209.3C152.4 208.7 154 209.2 154.9 210.5C155.5 211.5 156.2 212.5 156.9 213.6C157.8 214.9 159.5 215.4 160.9 214.7C161.2 214.5 161.6 214.4 161.9 214.2C163.3 213.5 164 211.8 163.5 210.3C163.1 209.1 162.7 207.9 162.3 206.9C161.8 205.4 162.4 203.8 163.8 203.1C166.4 201.6 168.9 200 171.3 198.3C172.6 197.4 174.2 197.5 175.3 198.6C176.1 199.4 177 200.3 177.9 201.1C179.1 202.2 180.8 202.3 182.1 201.3C182.4 201.1 182.7 200.8 183 200.6C184.2 199.6 184.5 197.8 183.7 196.5C183.1 195.4 182.4 194.4 181.8 193.5C181 192.2 181.2 190.5 182.4 189.4C184.6 187.4 186.7 185.3 188.7 183.1C189.7 182 191.4 181.7 192.7 182.5C193.7 183.1 194.7 183.7 195.8 184.4C197.2 185.2 198.9 184.9 199.9 183.6C200.1 183.3 200.4 183 200.6 182.7C201.6 181.4 201.5 179.6 200.4 178.5C199.5 177.6 198.7 176.7 197.9 176C196.8 174.9 196.7 173.2 197.6 171.9C199.3 169.5 200.9 166.9 202.3 164.3C203.1 163 204.6 162.3 206.1 162.8C207.2 163.2 208.4 163.5 209.6 163.9C211.1 164.4 212.7 163.7 213.4 162.3C213.6 162 213.7 161.6 213.9 161.3C214.6 159.9 214.1 158.1 212.8 157.2C211.8 156.5 210.7 155.9 209.8 155.3C208.5 154.5 208 152.8 208.6 151.4C209.7 148.6 210.7 145.8 211.5 143C211.9 141.5 213.3 140.6 214.8 140.7C215.9 140.8 217.2 140.9 218.5 141C220.1 141.1 221.5 140.1 221.9 138.5C222 138.1 222.1 137.8 222.1 137.4C222.4 135.8 221.6 134.3 220.1 133.7C218.9 133.3 217.8 132.8 216.7 132.5C215.2 132 214.4 130.5 214.6 129C215.1 126.1 215.4 123.1 215.6 120.1C215.7 118.6 216.8 117.3 218.4 117.1C219.6 117 220.8 116.8 222.1 116.6C223.7 116.4 225.3 115.1 225.3 113.5C225.3 113.2 225.8 112.9 225.8 112.6C225.8 112.5 225.8 112.4 225.8 112.3C225.7 110.4 223.9 109.1 222.4 108.8ZM143.9 49.9C145.1 47.6 146.3 45.2 147.5 42.9C150.3 37.4 157.2 35.6 162.3 39C171.8 45.5 180.1 53.8 186.6 63.4C190 68.5 188.2 75.5 182.7 78.2C180.4 79.4 178 80.6 175.7 81.8C171.2 84.1 165.6 82.7 162.7 78.6C158.5 72.5 153.2 67.3 147.2 63C143 60 141.6 54.4 143.9 49.9ZM95.2 25.3C106.5 23.1 118.2 23.1 129.5 25.3C135.5 26.5 139.1 32.7 137.2 38.5C136.4 41 135.6 43.5 134.8 46C133.2 50.9 128.3 53.8 123.3 52.9C116 51.6 108.6 51.6 101.3 52.9C96.3 53.8 91.4 50.8 89.8 46C89 43.5 88.2 41 87.4 38.5C85.6 32.7 89.2 26.5 95.2 25.3ZM38.2 63.3C44.7 53.7 52.9 45.5 62.5 38.9C67.6 35.4 74.5 37.3 77.3 42.8C78.5 45.1 79.7 47.5 80.9 49.8C83.2 54.3 81.8 59.9 77.7 62.8C71.7 67 66.4 72.3 62.2 78.4C59.3 82.6 53.7 84 49.2 81.6C46.9 80.4 44.5 79.2 42.2 78C36.7 75.4 34.8 68.4 38.2 63.3ZM24.7 130.6C22.5 119.2 22.5 107.5 24.7 96.2C25.8 90.2 32.1 86.5 37.9 88.4C40.4 89.2 42.9 90 45.4 90.8C50.2 92.4 53.2 97.3 52.3 102.3C51 109.6 51 117.1 52.3 124.4C53.2 129.4 50.2 134.3 45.4 135.9C42.9 136.7 40.4 137.5 37.9 138.3C32.1 140.3 25.8 136.6 24.7 130.6ZM80.8 176.9C79.6 179.2 78.4 181.6 77.2 183.9C74.4 189.4 67.5 191.2 62.4 187.8C52.9 181.3 44.6 173 38.1 163.4C34.7 158.3 36.5 151.3 42 148.6C44.3 147.4 46.7 146.2 49 145C53.5 142.7 59.1 144.1 62 148.2C66.2 154.3 71.5 159.5 77.5 163.8C81.8 166.8 83.2 172.4 80.8 176.9ZM129.5 201.4C118.2 203.6 106.5 203.6 95.2 201.4C89.2 200.2 85.6 194 87.5 188.2C88.3 185.7 89.1 183.2 89.9 180.7C91.5 175.8 96.4 172.9 101.4 173.8C108.7 175.1 116.1 175.1 123.4 173.8C128.4 172.9 133.3 175.9 134.9 180.7C135.7 183.2 136.5 185.7 137.3 188.2C139.1 194 135.5 200.3 129.5 201.4ZM112.4 154.7C89.3 154.7 70.5 135.9 70.5 112.7C70.5 89.5 89.2 70.7 112.4 70.7C135.5 70.7 154.3 89.5 154.3 112.7C154.2 135.8 135.5 154.7 112.4 154.7ZM186.5 163.5C180 173.1 171.8 181.3 162.2 187.9C157.1 191.4 150.2 189.5 147.4 184C146.2 181.7 145 179.3 143.8 177C141.5 172.5 142.9 166.9 147 164C153 159.8 158.3 154.5 162.5 148.4C165.4 144.2 171 142.8 175.5 145.2C177.8 146.4 180.2 147.6 182.5 148.8C188.1 151.4 189.9 158.4 186.5 163.5ZM200 130.6C198.9 136.6 192.6 140.3 186.8 138.4C184.3 137.6 181.8 136.8 179.3 136C174.5 134.4 171.5 129.5 172.4 124.5C173.7 117.2 173.7 109.7 172.4 102.4C171.5 97.4 174.5 92.5 179.3 90.9C181.8 90.1 184.3 89.3 186.8 88.5C192.6 86.6 198.8 90.2 200 96.3C202.2 107.5 202.2 119.2 200 130.6Z"
                fill="#8C8C8C" opacity="0.7" filter="url(#f2)"/>
            <path id="gear1"
                d="M193.4 112.1C192.5 112 191.3 111.9 190.5 111.8C189.4 111.7 188.4 110.7 188.3 109.6C188.1 107.4 187.9 105.2 187.5 103C187.3 101.9 187.9 100.8 189 100.4C189.8 100.1 190.7 99.8 191.6 99.4C192.7 99 193.3 97.8 193 96.7C192.9 96.4 192.9 96.2 192.8 95.9C192.5 94.7 191.5 94 190.3 94.1C189.3 94.2 188.4 94.3 187.5 94.4C186.4 94.5 185.3 93.8 185 92.7C184.4 90.6 183.6 88.5 182.8 86.5C182.4 85.4 182.7 84.2 183.7 83.6C184.5 83.1 185.3 82.6 186.1 82C187.1 81.3 187.4 80.1 186.9 79C186.8 78.8 186.7 78.5 186.6 78.3C186.1 77.2 184.9 76.7 183.7 77.1C182.7 77.4 181.8 77.7 181 78C179.9 78.4 178.7 77.9 178.2 76.9C177.1 75 175.9 73.1 174.7 71.3C174.1 70.4 174.1 69.1 174.9 68.3C175.5 67.6 176.3 66.9 177 66.1C177.8 65.2 177.8 63.9 177.1 63C176.9 62.8 176.8 62.6 176.6 62.4C175.9 61.5 174.6 61.2 173.6 61.9C172.7 62.4 171.9 63 171.1 63.5C170.1 64.1 168.9 63.9 168.1 63.1C166.6 61.5 165.1 59.9 163.5 58.4C162.7 57.6 162.5 56.4 163.1 55.4C163.6 54.6 164.1 53.7 164.7 52.7C165.3 51.7 165 50.4 164.1 49.7C163.9 49.5 163.7 49.4 163.5 49.2C162.6 48.5 161.3 48.5 160.4 49.3C159.6 50 158.9 50.8 158.2 51.4C157.4 52.2 156.1 52.3 155.2 51.7C153.4 50.5 151.5 49.3 149.6 48.2C148.6 47.6 148.2 46.5 148.5 45.4C148.8 44.5 149.2 43.4 149.5 42.3C149.8 41.2 149.3 40 148.3 39.5C148.1 39.4 147.9 39.3 147.7 39.2C146.6 38.7 145.4 39 144.7 40C144.1 40.9 143.5 41.8 143 42.7C142.4 43.7 141.2 44 140.1 43.6C138.1 42.8 136 42.1 133.9 41.4C132.8 41.1 132.1 40 132.2 38.9C132.3 37.9 132.4 36.8 132.5 35.6C132.6 34.4 131.8 33.4 130.7 33.1C130.5 33 130.3 33 130 32.9C128.9 32.6 127.7 33.3 127.3 34.4C126.9 35.5 126.5 36.5 126.2 37.5C125.8 38.6 124.7 39.2 123.6 39C121.5 38.7 119.3 38.4 117.1 38.3C116 38.2 115 37.4 114.9 36.3C114.8 35.3 114.6 34.1 114.4 32.9C114.2 31.8 113.3 31.6 112.1 31.6C111.9 31.6 111.7 32.3 111.5 32.3H111.4C110.2 32.3 109.3 32.5 109.1 33.7C108.9 34.9 108.8 35.7 108.7 36.7C108.6 37.8 107.6 38.5 106.5 38.6C104.3 38.8 102.1 38.9 100 39.2C98.9 39.4 97.8 38.7 97.4 37.7C97 36.7 96.6 35.6 96.2 34.4C95.8 33.3 94.6 32.7 93.5 32.9C93.3 32.9 93.1 33 92.9 33C91.8 33.3 91 34.3 91.1 35.5C91.2 36.7 91.3 37.8 91.4 38.9C91.5 40 90.8 41.1 89.7 41.4C87.6 42 85.5 42.8 83.5 43.6C82.5 44 81.3 43.7 80.6 42.7C80.4 42 79.7 41 79.1 40C78.4 39 77.2 38.7 76.1 39.2C75.9 39.3 75.7 39.4 75.5 39.5C74.4 40 73.9 41.2 74.3 42.4C74.7 43.6 75.1 44.7 75.4 45.7C75.8 46.8 75.3 48 74.3 48.5C72.4 49.6 70.5 50.8 68.7 52C67.8 52.6 66.5 52.6 65.7 51.8C64.9 51 64.1 50.2 63.1 49.4C62.3 48.6 60.9 48.6 60 49.3C59.8 49.4 59.7 49.6 59.5 49.7C58.6 50.4 58.4 51.7 59 52.7C59.6 53.8 60.3 54.8 60.8 55.7C61.4 56.7 61.2 57.9 60.4 58.7C58.8 60.2 57.2 61.7 55.8 63.4C55 64.2 53.8 64.4 52.8 63.8C51.9 63.2 50.8 62.6 49.7 62C48.7 61.4 47.4 61.7 46.7 62.6C46.6 62.8 46.4 62.9 46.3 63.1C45.6 64 45.6 65.3 46.4 66.2C47.2 67.1 48.1 67.9 48.8 68.7C49.6 69.5 49.7 70.8 49 71.7C47.8 73.5 46.6 75.4 45.5 77.3C44.9 78.3 43.8 78.8 42.7 78.4C41.7 78.1 40.5 77.7 39.3 77.3C38.2 77 37 77.5 36.5 78.5C36.4 78.7 36.3 78.9 36.2 79C35.7 80.1 36 81.3 37 82C38 82.7 39 83.3 39.9 83.9C40.9 84.5 41.2 85.7 40.8 86.8C40 88.8 39.3 90.9 38.6 93C38.3 94.1 37.2 94.8 36.1 94.7C35 94.6 33.8 94.5 32.6 94.4C31.4 94.3 30.4 95.1 30.1 96.2C30.1 96.4 30 96.6 30 96.8C29.7 97.9 30.4 99.1 31.5 99.5C32.6 99.9 33.7 100.3 34.7 100.7C35.8 101.1 36.4 102.2 36.2 103.3C35.9 105.5 35.6 107.6 35.5 109.9C35.4 111 34.6 112 33.5 112.1C32.5 112.2 31.7 112.4 30.5 112.6C29.4 112.8 28.9 113.7 28.9 114.9C28.9 115.1 28.5 115.3 28.5 115.6C28.5 116.8 29.2 117.8 30.3 117.9C31.5 118.1 32.5 118.2 33.6 118.3C34.7 118.4 35.5 119.4 35.6 120.5C35.8 122.7 36 124.9 36.3 127.1C36.5 128.2 35.8 129.3 34.8 129.7C33.8 130.1 32.7 130.5 31.6 130.9C30.5 131.3 29.9 132.5 30.2 133.6C30.2 133.8 30.3 134 30.3 134.2C30.6 135.3 31.6 136.1 32.8 136C34 135.9 35.1 135.8 36.1 135.7C37.2 135.6 38.3 136.3 38.6 137.4C39.2 139.5 40 141.6 40.8 143.6C41.2 144.7 40.9 145.9 39.9 146.5C39 147.1 38.1 147.7 37.1 148.3C36.1 149 35.8 150.2 36.3 151.3C36.4 151.5 36.5 151.7 36.6 151.9C37.1 153 38.3 153.5 39.4 153.1C40.5 152.7 41.5 152.4 42.5 152.1C43.6 151.7 44.7 152.2 45.3 153.2C46.4 155.1 47.6 157 48.8 158.8C49.4 159.7 49.4 161 48.6 161.8C47.9 162.5 47.1 163.3 46.4 164.1C45.6 165 45.6 166.3 46.3 167.2C46.4 167.4 46.6 167.6 46.7 167.7C47.4 168.6 48.7 168.8 49.7 168.2C50.7 167.6 51.6 167.1 52.4 166.5C53.4 165.9 54.6 166.1 55.4 166.9C56.9 168.5 58.4 170.1 60 171.6C60.8 172.4 61 173.6 60.4 174.6C59.9 175.4 59.4 176.3 58.8 177.3C58.2 178.3 58.5 179.6 59.4 180.3C59.6 180.5 59.8 180.6 60 180.8C60.9 181.5 62.2 181.5 63.1 180.6C63.9 179.9 64.6 179.1 65.3 178.4C66.1 177.6 67.4 177.5 68.3 178.1C70.1 179.3 72 180.5 73.9 181.6C74.9 182.2 75.3 183.3 75 184.4C74.7 185.3 74.4 186.3 74.1 187.3C73.7 188.4 74.3 189.6 75.3 190.1C75.5 190.2 75.7 190.3 76 190.4C77.1 190.9 78.3 190.5 79 189.6C79.6 188.7 80.1 187.9 80.6 187.1C81.2 186.1 82.4 185.8 83.5 186.2C85.5 187 87.6 187.7 89.7 188.4C90.8 188.7 91.5 189.8 91.4 190.9C91.3 191.8 91.2 192.8 91.1 193.8C91 195 91.8 196 92.9 196.3C93.2 196.4 93.4 196.4 93.7 196.5C94.8 196.7 96 196.1 96.4 195C96.7 194.1 97.1 193.1 97.4 192.3C97.8 191.2 98.9 190.6 100 190.8C102.1 191.1 104.3 191.4 106.5 191.5C107.6 191.6 108.6 192.4 108.7 193.6C108.8 194.5 108.9 195.1 109.1 196.1C109.3 197.2 110.2 197.8 111.4 197.8C111.7 197.8 111.9 198.2 112.2 198.2C113.4 198.2 114.3 197.5 114.5 196.3C114.6 195.3 114.7 194.5 114.8 193.6C114.9 192.5 115.9 191.6 117 191.6C119.2 191.4 121.4 191.2 123.5 190.9C124.6 190.7 125.7 191.4 126.1 192.4C126.4 193.2 126.7 194.1 127.1 195C127.5 196.1 128.7 196.7 129.8 196.5C130.1 196.4 130.3 196.4 130.6 196.3C131.7 196 132.5 195 132.4 193.8C132.3 192.8 132.2 191.9 132.1 191.1C132 190 132.7 188.9 133.8 188.6C135.9 188 138 187.2 140 186.4C141 186 142.2 186.3 142.9 187.3C143.4 188 143.9 188.8 144.4 189.6C145.1 190.6 146.3 190.9 147.4 190.4C147.6 190.3 147.9 190.2 148.1 190C149.2 189.5 149.7 188.3 149.3 187.1C149 186.2 148.7 185.3 148.4 184.6C148 183.5 148.5 182.3 149.5 181.8C151.4 180.7 153.3 179.5 155.1 178.3C156 177.7 157.3 177.7 158.1 178.5C158.7 179.1 159.4 179.7 160 180.4C160.9 181.2 162.2 181.3 163.1 180.5C163.3 180.3 163.5 180.1 163.8 180C164.7 179.3 164.9 178 164.3 176.9C163.8 176.1 163.3 175.3 162.9 174.7C162.3 173.7 162.5 172.5 163.3 171.7C164.9 170.2 166.5 168.7 167.9 167C168.7 166.2 169.9 166 170.9 166.6C171.6 167 172.4 167.5 173.2 168C174.2 168.6 175.5 168.4 176.2 167.4C176.4 167.2 176.6 167 176.7 166.7C177.4 165.8 177.4 164.4 176.5 163.6C175.9 162.9 175.2 162.3 174.7 161.7C173.9 160.9 173.8 159.6 174.5 158.7C175.7 156.9 176.9 155 178 153.1C178.6 152.1 179.7 151.6 180.8 152C181.6 152.3 182.5 152.6 183.4 152.8C184.5 153.2 185.7 152.6 186.2 151.6C186.3 151.3 186.4 151.1 186.6 150.8C187.1 149.7 186.8 148.4 185.8 147.8C185 147.3 184.3 146.8 183.6 146.4C182.6 145.8 182.3 144.6 182.7 143.5C183.5 141.5 184.2 139.4 184.9 137.3C185.2 136.2 186.3 135.5 187.4 135.6C188.2 135.7 189.2 135.8 190.1 135.8C191.3 135.9 192.3 135.1 192.6 134C192.7 133.7 192.7 133.5 192.8 133.2C193.1 132 192.4 130.9 191.3 130.5C190.4 130.2 189.6 129.9 188.8 129.6C187.7 129.2 187.1 128.1 187.3 127C187.6 124.8 187.9 122.7 188 120.4C188.1 119.3 188.9 118.3 190 118.2C190.9 118.1 191.8 118 192.8 117.8C193.9 117.6 195.2 116.7 195.2 115.5C195.2 115.3 195.6 115.1 195.6 114.9C195.6 114.8 195.6 114.8 195.6 114.7C195.8 113.3 194.5 112.3 193.4 112.1ZM135.4 68.6C136.3 66.9 137.2 65.1 138 63.4C140.1 59.4 145.2 58 148.9 60.5C155.9 65.3 162 71.4 166.8 78.5C169.3 82.3 168 87.4 164 89.5C162.3 90.4 160.5 91.3 158.8 92.1C155.5 93.8 151.4 92.8 149.2 89.7C146.1 85.2 142.2 81.3 137.7 78.2C134.7 76.1 133.7 71.9 135.4 68.6ZM99.5 50.5C107.9 48.9 116.5 48.9 124.8 50.5C129.2 51.4 131.9 56 130.5 60.3C129.9 62.1 129.3 64 128.7 65.8C127.5 69.4 123.9 71.6 120.2 70.9C114.8 69.9 109.3 69.9 104 70.9C100.3 71.6 96.7 69.4 95.5 65.8C94.9 64 94.3 62.1 93.7 60.3C92.4 55.9 95.1 51.3 99.5 50.5ZM57.4 78.5C62.2 71.4 68.3 65.3 75.3 60.5C79 58 84.2 59.3 86.2 63.4C87.1 65.1 88 66.9 88.8 68.6C90.5 72 89.5 76.1 86.4 78.2C81.9 81.3 78.1 85.2 74.9 89.7C72.7 92.8 68.7 93.8 65.3 92.1C63.6 91.2 61.8 90.3 60.1 89.5C56.2 87.4 54.9 82.3 57.4 78.5ZM47.4 128.2C45.8 119.8 45.8 111.2 47.4 102.8C48.2 98.3 52.8 95.7 57.1 97.1C58.9 97.7 60.8 98.3 62.6 98.9C66.2 100.1 68.3 103.7 67.7 107.4C66.8 112.8 66.8 118.3 67.7 123.7C68.4 127.4 66.2 131 62.6 132.2C60.8 132.8 58.9 133.4 57.1 134C52.8 135.3 48.3 132.7 47.4 128.2ZM88.9 162.4C88 164.1 87.1 165.9 86.3 167.6C84.2 171.6 79.1 173 75.4 170.5C68.4 165.7 62.3 159.6 57.5 152.5C55 148.7 56.3 143.6 60.3 141.5C62 140.6 63.8 139.7 65.5 138.9C68.8 137.2 72.9 138.2 75.1 141.3C78.2 145.8 82.1 149.7 86.6 152.8C89.6 154.9 90.6 159 88.9 162.4ZM124.8 180.5C116.4 182.1 107.8 182.1 99.5 180.5C95.1 179.6 92.4 175 93.8 170.7C94.4 168.9 95 167 95.6 165.2C96.8 161.6 100.4 159.4 104.1 160.1C109.5 161.1 115 161.1 120.3 160.1C124 159.4 127.6 161.6 128.8 165.2C129.4 167 130 168.9 130.6 170.7C131.9 175.1 129.3 179.7 124.8 180.5ZM112.2 146C95.1 146 81.3 132.1 81.3 115C81.3 97.9 95.1 84 112.2 84C129.3 84 143.1 97.9 143.1 115C143.1 132.1 129.2 146 112.2 146ZM166.9 152.5C162.1 159.6 156 165.7 149 170.5C145.3 173 140.1 171.7 138.1 167.6C137.2 165.9 136.3 164.1 135.5 162.4C133.8 159 134.8 154.9 137.9 152.8C142.4 149.7 146.2 145.8 149.4 141.3C151.6 138.2 155.6 137.2 159 138.9C160.7 139.8 162.5 140.7 164.2 141.5C168.1 143.6 169.4 148.7 166.9 152.5ZM176.9 128.2C176.1 132.7 171.5 135.3 167.2 133.9C165.4 133.3 163.5 132.7 161.7 132.1C158.1 130.9 156 127.3 156.6 123.6C157.5 118.2 157.5 112.7 156.6 107.3C155.9 103.6 158.1 100 161.7 98.8C163.5 98.2 165.4 97.6 167.2 97C171.5 95.6 176.1 98.3 176.9 102.7C178.5 111.2 178.5 119.8 176.9 128.2Z"
                fill="#565656" opacity="0.8" filter="url(#f2)"/>
            <path id="underline" d="M189 76C146.6 97.6 54 93 13 88V150C72.2 173.2 167 156.333 207 145L189 76Z"
                fill="#47AA8D" opacity="0.9" filter="url(#f1)"/>
            <path id="text"
                d="M144.395 113.993C145.192 114.79 145.591 115.787 145.591 117.082C145.591 119.175 144.993 120.969 143.797 122.464C142.601 124.059 140.708 124.856 138.116 124.956C131.837 125.155 126.256 124.657 121.373 123.56C115.792 135.221 109.014 144.988 101.141 152.762C93.2675 160.536 85.2944 164.323 77.421 164.323C69.2485 164.323 63.169 159.539 59.1825 150.071C55.1959 140.603 53.2026 127.746 53.2026 111.501C53.2026 97.6477 54.1993 85.2894 56.1925 74.2267C56.8902 70.1405 57.8868 67.3499 59.1825 65.9546C60.4781 64.4596 62.6707 63.762 65.8599 63.762C71.0425 63.762 73.6337 65.9546 73.6337 70.4395C73.6337 70.9378 73.5341 71.7351 73.4344 73.0307C71.0425 87.183 69.9462 99.94 69.9462 111.401C69.9462 123.461 70.9428 132.53 72.9361 138.809C74.9294 145.088 77.9193 148.177 81.9059 148.177C85.9921 148.177 90.4769 145.387 95.2608 139.706C100.045 134.025 104.43 126.949 108.416 118.378C103.633 115.388 100.045 111.501 97.5531 106.817C95.1612 102.033 93.8655 96.5514 93.8655 90.3723C93.8655 84.1931 94.8622 78.9109 96.7558 74.6253C98.6494 70.3398 101.34 67.1505 104.629 65.0576C107.918 62.9647 111.705 61.8683 115.792 61.8683C120.775 61.8683 124.761 63.6623 127.751 67.2502C130.741 70.8381 132.136 75.8213 132.136 82.1001C132.136 91.1696 130.143 101.036 126.256 111.7C130.442 112.398 135.126 112.797 140.508 112.797C142.203 112.797 143.598 113.195 144.395 113.993ZM113.101 106.717C116.19 97.9467 117.685 90.6712 117.685 84.8907C117.685 81.6018 117.287 79.2099 116.39 77.6153C115.493 76.1203 114.297 75.323 112.901 75.323C110.808 75.323 109.014 76.519 107.719 79.0106C106.423 81.5022 105.726 84.9904 105.726 89.5749C105.626 97.3487 108.117 103.03 113.101 106.717Z"
                fill="#1E1E1E" />
            <path id="text"
                d="M139.412 160.635C137.518 158.144 136.322 154.157 135.924 148.676C135.027 137.713 134.528 128.045 134.528 119.773V115.687C134.628 113.096 135.326 111.302 136.621 110.305C137.917 109.308 139.91 108.81 142.601 108.81C144.594 108.81 146.189 109.308 147.186 110.205C148.182 111.102 148.681 112.597 148.681 114.79C148.681 123.859 149.279 135.52 150.375 150.071C153.764 144.29 156.654 138.909 159.145 134.125C161.637 129.341 164.328 122.962 167.218 114.989C168.115 112.597 169.211 111.003 170.607 110.205C172.002 109.408 173.796 109.009 175.889 109.009C180.175 109.009 182.367 110.405 182.367 113.096C182.367 113.993 182.068 115.288 181.47 116.983C175.092 131.832 169.112 143.792 163.431 152.961C160.64 157.446 158.049 160.536 155.558 162.13C153.066 163.825 150.275 164.622 147.285 164.622C143.797 164.323 141.206 163.127 139.412 160.635Z"
                fill="#1E1E1E" />
    </svg>
